%TF.GenerationSoftware,Altium Limited,Altium Designer,26.3.0 (6)*%
G04 Layer_Color=255*
%FSLAX45Y45*%
%MOMM*%
%TF.SameCoordinates,27FE383B-3369-4B87-A22B-3F424D22D69C*%
%TF.FilePolarity,Positive*%
%TF.FileFunction,Pads,Bot*%
%TF.Part,Single*%
G01*
G75*
%TA.AperFunction,SMDPad,CuDef*%
%ADD18R,0.91213X1.05524*%
%ADD26R,1.65000X1.45000*%
%TA.AperFunction,ComponentPad*%
%ADD54R,1.55000X1.55000*%
%ADD55C,1.55000*%
%TA.AperFunction,SMDPad,CuDef*%
%ADD59R,0.81213X0.75814*%
%ADD60O,2.50000X1.00000*%
%ADD61R,2.50000X2.25000*%
%TA.AperFunction,BGAPad,CuDef*%
%ADD62R,1.00000X1.00000*%
D18*
X1520000Y1622548D02*
D03*
Y1922548D02*
D03*
Y1777452D02*
D03*
Y1477452D02*
D03*
D26*
Y2097500D02*
D03*
Y2282500D02*
D03*
D54*
X3875000Y2652500D02*
D03*
D55*
X4125000D02*
D03*
D59*
X1350000Y1602699D02*
D03*
Y1477301D02*
D03*
D60*
X1775000Y1931000D02*
D03*
Y1677000D02*
D03*
Y1423000D02*
D03*
Y1169000D02*
D03*
Y915000D02*
D03*
X3325000Y1423000D02*
D03*
X1775000Y2185000D02*
D03*
X3325000D02*
D03*
Y1931000D02*
D03*
Y1677000D02*
D03*
Y1169000D02*
D03*
D61*
Y852500D02*
D03*
D62*
X2110000Y900000D02*
D03*
X2330000D02*
D03*
X2550000D02*
D03*
X2770000D02*
D03*
X2990000D02*
D03*
X2110000Y1120000D02*
D03*
X2330000D02*
D03*
X2550000D02*
D03*
X2770000D02*
D03*
X2990000D02*
D03*
X2110000Y1340000D02*
D03*
X2990000D02*
D03*
X2110000Y1560000D02*
D03*
X2990000D02*
D03*
X2110000Y1780000D02*
D03*
X2330000D02*
D03*
X2550000D02*
D03*
X2770000D02*
D03*
X2990000D02*
D03*
X2110000Y2000000D02*
D03*
X2330000D02*
D03*
X2550000D02*
D03*
X2770000D02*
D03*
X2990000D02*
D03*
%TF.MD5,ed460725722ba48b8b4d08594d7c6070*%
M02*
