%TF.GenerationSoftware,Altium Limited,Altium Designer,26.3.0 (6)*%
G04 Layer_Color=32768*
%FSLAX45Y45*%
%MOMM*%
%TF.SameCoordinates,27FE383B-3369-4B87-A22B-3F424D22D69C*%
%TF.FilePolarity,Positive*%
%TF.FileFunction,Other,Top_Courtyard*%
%TF.Part,Single*%
G01*
G75*
%TA.AperFunction,NonConductor*%
%ADD67C,0.20000*%
%ADD68C,0.15240*%
%ADD70C,0.10000*%
%ADD102C,0.05000*%
G36*
X2373010Y272200D02*
X2282200D01*
Y283010D01*
D01*
Y616990D01*
D01*
Y627800D01*
X2373010D01*
D01*
X2546990D01*
D01*
X2637800D01*
Y616990D01*
D01*
Y283010D01*
D01*
Y272200D01*
X2546990D01*
D01*
X2373010D01*
D01*
D02*
G37*
D67*
X2562343Y636465D02*
Y1893535D01*
X3819414D01*
Y636465D02*
Y1893535D01*
X2562343Y636465D02*
X3819414D01*
X2349393Y1861893D02*
Y2238107D01*
X2550607D01*
Y1861893D02*
Y2238107D01*
X2349393Y1861893D02*
X2550607D01*
X2219393D02*
Y2238107D01*
X2420607D01*
Y1861893D02*
Y2238107D01*
X2219393Y1861893D02*
X2420607D01*
X898651Y1070000D02*
X1274864D01*
X898651D02*
Y1271213D01*
X1274864D01*
Y1070000D02*
Y1271213D01*
X898651Y1199394D02*
X1274864D01*
X898651D02*
Y1400607D01*
X1274864D01*
Y1199394D02*
Y1400607D01*
X901894Y939393D02*
X1278107D01*
X901894D02*
Y1140607D01*
X1278107D01*
Y939393D02*
Y1140607D01*
X2230000Y817500D02*
Y1062500D01*
X2350000D01*
Y817500D02*
Y1062500D01*
X2230000Y817500D02*
X2350000D01*
X3267500Y292616D02*
X3512500D01*
X3267500D02*
Y412616D01*
X3512500D01*
Y292616D02*
Y412616D01*
X3267500Y152616D02*
X3512500D01*
X3267500D02*
Y272616D01*
X3512500D01*
Y152616D02*
Y272616D01*
X2905000Y2130500D02*
Y2410500D01*
X3095000D01*
Y2130500D02*
Y2410500D01*
X2905000Y2130500D02*
X3095000D01*
X4209393Y202238D02*
Y502858D01*
X4350607D01*
Y202238D02*
Y502858D01*
X4209393Y202238D02*
X4350607D01*
X3809393Y199690D02*
Y500310D01*
X3950607D01*
Y199690D02*
Y500310D01*
X3809393Y199690D02*
X3950607D01*
X2459690Y260607D02*
X2760310D01*
Y119393D02*
Y260607D01*
X2459690Y119393D02*
X2760310D01*
X2459690D02*
Y260607D01*
X2157142D02*
X2457762D01*
Y119393D02*
Y260607D01*
X2157142Y119393D02*
X2457762D01*
X2157142D02*
Y260607D01*
X3289393Y2011893D02*
X3490606D01*
Y2388106D01*
X3289393D02*
X3490606D01*
X3289393Y2011893D02*
Y2388106D01*
X3149393Y2011893D02*
X3350606D01*
Y2388106D01*
X3149393D02*
X3350606D01*
X3149393Y2011893D02*
Y2388106D01*
X1699690Y270607D02*
X2000310D01*
Y129393D02*
Y270607D01*
X1699690Y129393D02*
X2000310D01*
X1699690D02*
Y270607D01*
X4559393Y1365000D02*
X4780607D01*
Y1255000D02*
Y1365000D01*
X4559393Y1255000D02*
X4780607D01*
X4559393D02*
Y1365000D01*
X4319393D02*
X4540607D01*
Y1255000D02*
Y1365000D01*
X4319393Y1255000D02*
X4540607D01*
X4319393D02*
Y1365000D01*
X3945000Y2019394D02*
Y2240607D01*
X4055000D01*
Y2019394D02*
Y2240607D01*
X3945000Y2019394D02*
X4055000D01*
X3620000Y2302500D02*
Y2897500D01*
Y2302500D02*
X4380000D01*
Y2897500D01*
X3620000D02*
X4380000D01*
X3445000Y2350000D02*
Y2470000D01*
X3195000D02*
X3445000D01*
X3195000Y2350000D02*
Y2470000D01*
Y2350000D02*
X3445000D01*
X2779690Y489393D02*
Y630607D01*
Y489393D02*
X3080310D01*
Y630607D01*
X2779690D02*
X3080310D01*
X2419393Y789690D02*
X2560607D01*
Y1090310D01*
X2419393D02*
X2560607D01*
X2419393Y789690D02*
Y1090310D01*
X2679690Y1889393D02*
Y2030607D01*
Y1889393D02*
X2980310D01*
Y2030607D01*
X2679690D02*
X2980310D01*
X3819393Y1110310D02*
X3960607D01*
X3819393Y809690D02*
Y1110310D01*
Y809690D02*
X3960607D01*
Y1110310D01*
X3819393Y1770310D02*
X3960607D01*
X3819393Y1469690D02*
Y1770310D01*
Y1469690D02*
X3960607D01*
Y1770310D01*
X3540310Y499393D02*
Y640607D01*
X3239690D02*
X3540310D01*
X3239690Y499393D02*
Y640607D01*
Y499393D02*
X3540310D01*
X740000Y125000D02*
Y875000D01*
Y125000D02*
X1560000D01*
Y875000D01*
X740000D02*
X1560000D01*
X569393Y99690D02*
X710607D01*
Y400310D01*
X569393D02*
X710607D01*
X569393Y99690D02*
Y400310D01*
X1509690Y1239393D02*
Y1380607D01*
Y1239393D02*
X1810310D01*
Y1380607D01*
X1509690D02*
X1810310D01*
X4245000Y2019393D02*
X4355000D01*
Y2240607D01*
X4245000D02*
X4355000D01*
X4245000Y2019393D02*
Y2240607D01*
X4095000Y2019394D02*
X4205000D01*
Y2240607D01*
X4095000D02*
X4205000D01*
X4095000Y2019394D02*
Y2240607D01*
X3795000Y2019394D02*
X3905000D01*
Y2240607D01*
X3795000D02*
X3905000D01*
X3795000Y2019394D02*
Y2240607D01*
X3640000Y2252500D02*
X3760000D01*
X3640000Y2007500D02*
Y2252500D01*
Y2007500D02*
X3760000D01*
Y2252500D01*
X4559393Y2025000D02*
Y2135000D01*
Y2025000D02*
X4780607D01*
Y2135000D01*
X4559393D02*
X4780607D01*
X4655000Y2245000D02*
Y2355000D01*
X4425000D02*
X4655000D01*
X4425000Y2245000D02*
Y2355000D01*
Y2245000D02*
X4655000D01*
X4715000D02*
Y2355000D01*
Y2245000D02*
X4945000D01*
Y2355000D01*
X4715000D02*
X4945000D01*
D68*
X2546990Y272200D02*
X2637800D01*
X2373010D02*
X2546990D01*
X2282200D02*
X2373010D01*
X2637800Y616990D02*
Y627800D01*
Y283010D02*
Y616990D01*
Y272200D02*
Y283010D01*
X2546990Y627800D02*
X2637800D01*
X2373010D02*
X2546990D01*
X2282200D02*
X2373010D01*
X2282200Y616990D02*
Y627800D01*
Y283010D02*
Y616990D01*
Y272200D02*
Y283010D01*
D70*
X1644500Y220000D02*
Y560000D01*
X1834500Y390000D02*
X1934500D01*
X1884500Y340000D02*
Y440000D01*
X1644500Y560000D02*
X2074500D01*
X1644500Y220000D02*
X2074500D01*
X2074500Y220000D02*
Y560000D01*
X4190000Y1720000D02*
X4290000D01*
X4240000Y1670000D02*
Y1770000D01*
X4810000Y1670000D02*
Y1770000D01*
X4760000Y1720000D02*
X4860000D01*
X4525000Y1790000D02*
Y1890000D01*
X4475000Y1840000D02*
X4575000D01*
X4548569Y909160D02*
Y1009160D01*
X4498569Y959160D02*
X4598569D01*
X4160000Y902500D02*
Y1002500D01*
X4110000Y952500D02*
X4210000D01*
X4835000Y2385000D02*
Y2475000D01*
X4790000Y2430000D02*
X4880000D01*
X4495000D02*
X4585000D01*
X4540000Y2385000D02*
Y2475000D01*
D102*
X44440Y2327969D02*
X604440D01*
X44440Y698969D02*
Y2327969D01*
Y698969D02*
X604440D01*
Y2327969D01*
X4375000Y1505000D02*
Y1935000D01*
X4105000Y1505000D02*
Y1935000D01*
X4375000D01*
X4105000Y1505000D02*
X4375000D01*
X4675000D02*
X4945000D01*
X4675000Y1935000D02*
X4945000D01*
X4675000Y1505000D02*
Y1935000D01*
X4945000Y1505000D02*
Y1935000D01*
X4315000Y1630000D02*
X4735000D01*
X4315000Y2050000D02*
X4735000D01*
Y1630000D02*
Y2050000D01*
X4315000Y1630000D02*
Y2050000D01*
X4268569Y1268910D02*
X4828569D01*
X4268569Y678910D02*
X4828569D01*
Y1268910D01*
X4268569Y678910D02*
Y1268910D01*
X4025000Y737500D02*
X4295000D01*
X4025000Y1167500D02*
X4295000D01*
X4025000Y737500D02*
Y1167500D01*
X4295000Y737500D02*
Y1167500D01*
X4670000Y2330000D02*
X5000000D01*
X4670000Y2530000D02*
X5000000D01*
Y2330000D02*
Y2530000D01*
X4670000Y2330000D02*
Y2530000D01*
X4705000Y2330000D02*
Y2530000D01*
X4375000Y2330000D02*
Y2530000D01*
Y2330000D02*
X4705000D01*
X4375000Y2530000D02*
X4705000D01*
%TF.MD5,a71b411a27c510a4e54f50f1e51872d7*%
M02*
