%TF.GenerationSoftware,Altium Limited,Altium Designer,26.3.0 (6)*%
G04 Layer_Color=8388736*
%FSLAX45Y45*%
%MOMM*%
%TF.SameCoordinates,27FE383B-3369-4B87-A22B-3F424D22D69C*%
%TF.FilePolarity,Negative*%
%TF.FileFunction,Soldermask,Top*%
%TF.Part,Single*%
G01*
G75*
%TA.AperFunction,Conductor*%
%ADD10C,0.32000*%
%TA.AperFunction,SMDPad,CuDef*%
%ADD12R,1.05524X0.91213*%
%ADD14R,0.42000X0.62500*%
%ADD15R,1.15814X1.01213*%
%TA.AperFunction,BGAPad,CuDef*%
%ADD16R,0.43180X0.43180*%
%ADD17R,0.43180X0.43180*%
%TA.AperFunction,SMDPad,CuDef*%
%ADD18R,0.91213X1.05524*%
G04:AMPARAMS|DCode=19|XSize=0.21247mm|YSize=1.18828mm|CornerRadius=0.10624mm|HoleSize=0mm|Usage=FLASHONLY|Rotation=90.000|XOffset=0mm|YOffset=0mm|HoleType=Round|Shape=RoundedRectangle|*
%AMROUNDEDRECTD19*
21,1,0.21247,0.97581,0,0,90.0*
21,1,0.00000,1.18828,0,0,90.0*
1,1,0.21247,0.48791,0.00000*
1,1,0.21247,0.48791,0.00000*
1,1,0.21247,-0.48791,0.00000*
1,1,0.21247,-0.48791,0.00000*
%
%ADD19ROUNDEDRECTD19*%
%ADD21R,1.01213X1.15814*%
%ADD22R,0.75000X1.00000*%
%ADD24R,0.21247X1.18828*%
G04:AMPARAMS|DCode=25|XSize=1.18828mm|YSize=0.21247mm|CornerRadius=0.10624mm|HoleSize=0mm|Usage=FLASHONLY|Rotation=90.000|XOffset=0mm|YOffset=0mm|HoleType=Round|Shape=RoundedRectangle|*
%AMROUNDEDRECTD25*
21,1,1.18828,0.00000,0,0,90.0*
21,1,0.97581,0.21247,0,0,90.0*
1,1,0.21247,0.00000,0.48791*
1,1,0.21247,0.00000,-0.48791*
1,1,0.21247,0.00000,-0.48791*
1,1,0.21247,0.00000,0.48791*
%
%ADD25ROUNDEDRECTD25*%
%ADD28R,0.75814X0.81213*%
%ADD29R,2.00000X2.00000*%
%ADD30R,1.00000X0.75000*%
%ADD31R,0.30000X0.99000*%
%ADD32R,0.81213X0.65872*%
%ADD45R,0.60000X0.80000*%
%ADD46R,0.70000X0.70000*%
%TA.AperFunction,ComponentPad*%
%ADD54R,1.55000X1.55000*%
%ADD55C,1.55000*%
%TA.AperFunction,SMDPad,CuDef*%
%ADD71C,2.00000*%
%ADD72R,2.11320X1.20320*%
%ADD73R,0.90320X1.80320*%
%ADD74R,0.55320X0.50320*%
%ADD75R,1.85320X1.65320*%
%ADD76R,0.80320X1.80320*%
%ADD77O,0.44320X0.80320*%
%ADD78O,0.80320X0.44320*%
%ADD79R,0.65320X1.58320*%
%ADD80R,1.40320X2.40320*%
%ADD81R,1.80320X1.70320*%
%ADD82R,1.88320X1.88320*%
%ADD83R,0.50320X0.55320*%
%TA.AperFunction,ConnectorPad*%
%ADD84R,1.00320X1.20320*%
%TA.AperFunction,SMDPad,CuDef*%
%ADD85R,1.00320X1.20320*%
%ADD86R,0.90320X1.70320*%
G04:AMPARAMS|DCode=87|XSize=2.2032mm|YSize=3.6032mm|CornerRadius=0mm|HoleSize=0mm|Usage=FLASHONLY|Rotation=0.000|XOffset=0mm|YOffset=0mm|HoleType=Round|Shape=Octagon|*
%AMOCTAGOND87*
4,1,8,-0.55080,1.80160,0.55080,1.80160,1.10160,1.25080,1.10160,-1.25080,0.55080,-1.80160,-0.55080,-1.80160,-1.10160,-1.25080,-1.10160,1.25080,-0.55080,1.80160,0.0*
%
%ADD87OCTAGOND87*%

%ADD88R,1.85320X1.50320*%
%ADD89R,2.00320X2.10320*%
%ADD90R,1.62820X1.75320*%
%ADD91R,1.20320X2.10320*%
%TA.AperFunction,ViaPad*%
%ADD92C,0.64320*%
%ADD93C,0.60320*%
%ADD94C,4.20320*%
D10*
X1854000Y390000D02*
G03*
X1854000Y390000I-54000J0D01*
G01*
D12*
X1922548Y200000D02*
D03*
X2234904Y190000D02*
D03*
X2537452D02*
D03*
X1587452Y1310000D02*
D03*
X2857452Y560000D02*
D03*
X3462548Y570000D02*
D03*
X2757452Y1960000D02*
D03*
X2902548D02*
D03*
X3317452Y570000D02*
D03*
X3002548Y560000D02*
D03*
X1732548Y1310000D02*
D03*
X2682548Y190000D02*
D03*
X2380000D02*
D03*
X1777452Y200000D02*
D03*
D14*
X1969000Y334500D02*
D03*
X1909000Y445500D02*
D03*
X1969000D02*
D03*
X1909000Y334500D02*
D03*
D15*
X1009801Y1040000D02*
D03*
X1006558Y1170606D02*
D03*
Y1300000D02*
D03*
X1170200Y1040000D02*
D03*
X1166957Y1300000D02*
D03*
Y1170606D02*
D03*
D16*
X2340090Y330000D02*
D03*
X2579910D02*
D03*
X2340090Y570000D02*
D03*
X2579910D02*
D03*
D17*
X2500000Y330090D02*
D03*
X2420000Y569910D02*
D03*
Y330090D02*
D03*
X2500000Y569910D02*
D03*
D18*
X2490000Y867452D02*
D03*
X3880000Y277452D02*
D03*
X4280000Y280000D02*
D03*
X3890000Y1032548D02*
D03*
Y1692548D02*
D03*
X640000Y177452D02*
D03*
X3890000Y1547452D02*
D03*
X4280000Y425096D02*
D03*
X3890000Y887452D02*
D03*
X3880000Y422548D02*
D03*
X2490000Y1012548D02*
D03*
X640000Y322548D02*
D03*
D19*
X2631757Y890000D02*
D03*
X3750000Y1640000D02*
D03*
Y990000D02*
D03*
X2631757Y1390000D02*
D03*
Y1440000D02*
D03*
Y1540000D02*
D03*
Y1490000D02*
D03*
X3750000Y1590000D02*
D03*
Y940000D02*
D03*
X2631757D02*
D03*
Y1140000D02*
D03*
Y1190000D02*
D03*
Y1240000D02*
D03*
Y1640000D02*
D03*
Y1340000D02*
D03*
X3750000Y1040000D02*
D03*
Y1240000D02*
D03*
Y1290000D02*
D03*
Y1340000D02*
D03*
Y1390000D02*
D03*
Y1440000D02*
D03*
Y1490000D02*
D03*
Y1540000D02*
D03*
X2631757Y1590000D02*
D03*
Y1290000D02*
D03*
Y1040000D02*
D03*
Y990000D02*
D03*
X3750000Y1090000D02*
D03*
Y890000D02*
D03*
Y1140000D02*
D03*
Y1190000D02*
D03*
X2631757Y1090000D02*
D03*
D21*
X2320000Y2130199D02*
D03*
X2450000D02*
D03*
X2320000Y1969800D02*
D03*
X2450000D02*
D03*
X3390000Y2280199D02*
D03*
Y2119800D02*
D03*
X3250000D02*
D03*
Y2280199D02*
D03*
D22*
X3465000Y352616D02*
D03*
Y212616D02*
D03*
X3315000Y352616D02*
D03*
Y212616D02*
D03*
D24*
X2815879Y705879D02*
D03*
D25*
X3415879D02*
D03*
X2815879Y1824122D02*
D03*
X3215879D02*
D03*
X3265879D02*
D03*
X3115878Y705879D02*
D03*
X2865878Y1824122D02*
D03*
X3365878Y705879D02*
D03*
X2915879Y1824122D02*
D03*
X2965878Y705879D02*
D03*
X3265879D02*
D03*
X3315879D02*
D03*
X3465879D02*
D03*
X3515879D02*
D03*
X3565879Y1824122D02*
D03*
X3465879D02*
D03*
X3365878D02*
D03*
X3315879D02*
D03*
X3165879D02*
D03*
X3065879D02*
D03*
X3015879Y705879D02*
D03*
X3065879D02*
D03*
X2915879D02*
D03*
X2865878D02*
D03*
X3565879D02*
D03*
X3515879Y1824122D02*
D03*
X3415879D02*
D03*
X3115878D02*
D03*
X2965878D02*
D03*
X3015879D02*
D03*
X3165879Y705879D02*
D03*
X3215879D02*
D03*
D28*
X4367301Y1310000D02*
D03*
X4732699Y2080000D02*
D03*
Y1310000D02*
D03*
X4492699D02*
D03*
X4607301D02*
D03*
Y2080000D02*
D03*
D29*
X1450000Y500000D02*
D03*
X850000D02*
D03*
D30*
X2290000Y1015000D02*
D03*
X3700000Y2205000D02*
D03*
X2290000Y865000D02*
D03*
X3700000Y2055000D02*
D03*
D31*
X3000000Y2190000D02*
D03*
X3050000D02*
D03*
X2950000D02*
D03*
X3050000Y2351000D02*
D03*
X2950000D02*
D03*
X3000000D02*
D03*
D32*
X4150000Y2197671D02*
D03*
X4300000Y2197671D02*
D03*
X4000000Y2197671D02*
D03*
X3850000D02*
D03*
X4000000Y2062330D02*
D03*
X3850000D02*
D03*
X4150000D02*
D03*
X4300000Y2062329D02*
D03*
D45*
X3405000Y2410000D02*
D03*
X3235000D02*
D03*
D46*
X4760000Y2300000D02*
D03*
X4610000D02*
D03*
X4470000D02*
D03*
X4900000D02*
D03*
D54*
X3875000Y2652500D02*
D03*
D55*
X4125000D02*
D03*
D71*
X4875000Y600000D02*
D03*
X125000Y2400000D02*
D03*
Y575000D02*
D03*
D72*
X159940Y878469D02*
D03*
Y1894469D02*
D03*
Y1386469D02*
D03*
X488940Y1640469D02*
D03*
Y2148469D02*
D03*
Y1132469D02*
D03*
D73*
X1545000Y1490000D02*
D03*
X1985000D02*
D03*
X1435000D02*
D03*
X1875000D02*
D03*
X1655000D02*
D03*
X1215000D02*
D03*
X1325000D02*
D03*
X1765000D02*
D03*
X2095000D02*
D03*
D74*
X4160000Y280000D02*
D03*
X4005000Y330000D02*
D03*
X4160000Y380000D02*
D03*
Y330000D02*
D03*
X4005000Y380000D02*
D03*
Y430000D02*
D03*
X4160000D02*
D03*
X4005000Y280000D02*
D03*
D75*
X4160000Y1045000D02*
D03*
Y860000D02*
D03*
X4810000Y1627500D02*
D03*
X4240000D02*
D03*
Y1812500D02*
D03*
X4810000D02*
D03*
D76*
X4398569Y1138910D02*
D03*
X4698569D02*
D03*
D77*
X4600000Y1700000D02*
D03*
X4500000D02*
D03*
X4450000D02*
D03*
X4600000Y1980000D02*
D03*
X4450000D02*
D03*
X4500000D02*
D03*
X4550000D02*
D03*
Y1700000D02*
D03*
D78*
X4385000Y1765000D02*
D03*
Y1865000D02*
D03*
Y1815000D02*
D03*
X4665000Y1865000D02*
D03*
Y1815000D02*
D03*
Y1915000D02*
D03*
Y1765000D02*
D03*
X4385000Y1915000D02*
D03*
D79*
X2820000Y2570000D02*
D03*
X3015000D02*
D03*
X2950000D02*
D03*
X2885000D02*
D03*
X3080000D02*
D03*
D80*
X2250000Y2550000D02*
D03*
Y1600000D02*
D03*
X700000Y2550000D02*
D03*
D81*
X790000Y1595000D02*
D03*
D82*
X4525000Y1840000D02*
D03*
D83*
X4057500Y280000D02*
D03*
Y430000D02*
D03*
X4107500Y280000D02*
D03*
Y430000D02*
D03*
D84*
X4760000Y2430000D02*
D03*
X4910000D02*
D03*
D85*
X4615000D02*
D03*
X4465000D02*
D03*
D86*
X4548569Y1143910D02*
D03*
D87*
Y898910D02*
D03*
D88*
X2612500Y2836000D02*
D03*
X3287500D02*
D03*
D89*
X3065000D02*
D03*
D90*
X3198750Y2570000D02*
D03*
X2701250D02*
D03*
D91*
X2795000Y2836000D02*
D03*
D92*
X4490000Y1390000D02*
D03*
X950000Y2930000D02*
D03*
X4181431Y1168590D02*
D03*
X4295000Y1167500D02*
D03*
X4181431Y1271090D02*
D03*
X4290000Y1270000D02*
D03*
X2520000Y1440000D02*
D03*
X2100000Y800000D02*
D03*
X1660000Y820000D02*
D03*
X2390000Y1000000D02*
D03*
X660000Y1590000D02*
D03*
X570000Y2550000D02*
D03*
X2380000D02*
D03*
X2080000D02*
D03*
X850000D02*
D03*
X920000Y1590000D02*
D03*
X153098Y1284700D02*
D03*
X160000Y1500000D02*
D03*
X4360000Y860000D02*
D03*
X4160000Y737500D02*
D03*
X3720000Y1930000D02*
D03*
X3500000Y1980000D02*
D03*
X3630000Y1370000D02*
D03*
X3550000Y1190000D02*
D03*
X3500000Y890000D02*
D03*
X2670000Y2060000D02*
D03*
X2200000Y2000000D02*
D03*
X2100000Y1890000D02*
D03*
X2990000Y1460000D02*
D03*
X2874700Y1576902D02*
D03*
X2750000Y1400000D02*
D03*
X2870000Y1340000D02*
D03*
Y1120000D02*
D03*
X3090000Y1360000D02*
D03*
X3160000Y1490000D02*
D03*
X3320000Y1580000D02*
D03*
X3530000Y1500000D02*
D03*
X3330000Y1300000D02*
D03*
X3100000Y1070000D02*
D03*
X3120000Y860000D02*
D03*
X2880000Y870000D02*
D03*
X3180000Y290000D02*
D03*
X3010000D02*
D03*
X2840000D02*
D03*
X2560000Y390000D02*
D03*
X2190000Y420000D02*
D03*
X2070000Y310000D02*
D03*
X2360000Y440000D02*
D03*
X1840000Y1310000D02*
D03*
X1680000Y200000D02*
D03*
X2680000Y90000D02*
D03*
X2380000D02*
D03*
X3320000Y490000D02*
D03*
X3000000Y470000D02*
D03*
X3100000Y560000D02*
D03*
X3790000Y420000D02*
D03*
X3870000Y520000D02*
D03*
X4370000Y420000D02*
D03*
X4280000Y520000D02*
D03*
X3980000Y890000D02*
D03*
X4720000Y970000D02*
D03*
X4796069Y1154160D02*
D03*
X4810000Y1310000D02*
D03*
X2820000Y2690000D02*
D03*
Y2450000D02*
D03*
X3490000Y2280000D02*
D03*
X2880000Y2050000D02*
D03*
X3890000Y1450000D02*
D03*
X3980000Y1550000D02*
D03*
X4080000Y2260000D02*
D03*
X3780000D02*
D03*
X3930000D02*
D03*
X4230000D02*
D03*
X4735000Y1995000D02*
D03*
X4820000Y2080000D02*
D03*
X4375000Y1630000D02*
D03*
X4100000Y1630000D02*
D03*
X4810000Y1505000D02*
D03*
X4650000Y1630000D02*
D03*
X4240000Y1505000D02*
D03*
X4480000Y1880000D02*
D03*
X4570000D02*
D03*
Y1800000D02*
D03*
X4480000D02*
D03*
X1520000Y2405000D02*
D03*
X1369417Y2279656D02*
D03*
X1420000Y1780000D02*
D03*
X1630000D02*
D03*
X2010000Y1330000D02*
D03*
X2430000Y1160000D02*
D03*
X2010000Y1050000D02*
D03*
X2440000Y1780000D02*
D03*
X2140000Y1650000D02*
D03*
X776902Y1284700D02*
D03*
X830000Y980000D02*
D03*
X650000D02*
D03*
X505300Y1026902D02*
D03*
X640000Y1150000D02*
D03*
Y830000D02*
D03*
X1890000Y1750000D02*
D03*
X2080000Y2120000D02*
D03*
X1743098Y2085300D02*
D03*
X1380000Y2120000D02*
D03*
X1140000Y2110000D02*
D03*
X890000Y1880000D02*
D03*
X470000Y1290000D02*
D03*
X690000Y470000D02*
D03*
X390000Y920000D02*
D03*
X400000Y620000D02*
D03*
X1930000Y820000D02*
D03*
X1370000Y810000D02*
D03*
X1020000D02*
D03*
X1070000Y270000D02*
D03*
X2040000Y620000D02*
D03*
X1620000Y470000D02*
D03*
X580000Y2920000D02*
D03*
X1290000Y2940000D02*
D03*
X460000Y1750000D02*
D03*
X700000Y1960000D02*
D03*
X960000Y2170000D02*
D03*
X1900000Y2290000D02*
D03*
X2400000Y2300000D02*
D03*
X2760000Y2270000D02*
D03*
X4550000Y1630000D02*
D03*
D93*
X2525000Y2100000D02*
D03*
X2234904Y95097D02*
D03*
X2020000Y200000D02*
D03*
X160000Y760000D02*
D03*
Y1000000D02*
D03*
X2537452Y92548D02*
D03*
X2400000Y867452D02*
D03*
X898651Y1170606D02*
D03*
X1490000Y1310000D02*
D03*
X1350000Y1720000D02*
D03*
X1352548Y1922548D02*
D03*
X1587452Y1222548D02*
D03*
X2650000Y1960000D02*
D03*
X2857452Y472548D02*
D03*
X2760000Y560000D02*
D03*
X3460000Y490000D02*
D03*
X3880000Y180000D02*
D03*
X4280000D02*
D03*
X3792548Y277452D02*
D03*
X3530000Y280000D02*
D03*
X4370000D02*
D03*
X2757452Y2070000D02*
D03*
X3890000Y1130000D02*
D03*
Y1790000D02*
D03*
X3977452Y1692548D02*
D03*
X1930000Y1610000D02*
D03*
X2772700Y1213496D02*
D03*
X2520000Y1210000D02*
D03*
X2750000Y1290000D02*
D03*
X2530000Y1670000D02*
D03*
X2010000D02*
D03*
X4090000Y1780000D02*
D03*
Y1850000D02*
D03*
X4810000Y1935000D02*
D03*
X4450000Y1630000D02*
D03*
X4615000Y2525000D02*
D03*
X4650000Y1980000D02*
D03*
X4610000Y2220000D02*
D03*
X4665000Y1719050D02*
D03*
X4530000Y2150000D02*
D03*
X4760000Y2220000D02*
D03*
D94*
X250000Y250000D02*
D03*
X4750000Y250000D02*
D03*
Y2750000D02*
D03*
X250000D02*
D03*
%TF.MD5,1de11b3c38419bb03ef8dfb4e88e9ea0*%
M02*
