%TF.GenerationSoftware,Altium Limited,Altium Designer,26.3.0 (6)*%
G04 Layer_Physical_Order=1*
G04 Layer_Color=255*
%FSLAX45Y45*%
%MOMM*%
%TF.SameCoordinates,27FE383B-3369-4B87-A22B-3F424D22D69C*%
%TF.FilePolarity,Positive*%
%TF.FileFunction,Copper,L1,Top,Signal*%
%TF.Part,Single*%
G01*
G75*
%TA.AperFunction,Conductor*%
%ADD10C,0.32000*%
%TA.AperFunction,SMDPad,CuDef*%
%ADD11C,1.00000*%
%ADD12R,1.05524X0.91213*%
%ADD13R,1.91000X1.00000*%
%ADD14R,0.42000X0.62500*%
%ADD15R,1.15814X1.01213*%
%TA.AperFunction,BGAPad,CuDef*%
%ADD16R,0.43180X0.43180*%
%ADD17R,0.43180X0.43180*%
%TA.AperFunction,SMDPad,CuDef*%
%ADD18R,0.91213X1.05524*%
G04:AMPARAMS|DCode=19|XSize=0.21247mm|YSize=1.18828mm|CornerRadius=0.10624mm|HoleSize=0mm|Usage=FLASHONLY|Rotation=90.000|XOffset=0mm|YOffset=0mm|HoleType=Round|Shape=RoundedRectangle|*
%AMROUNDEDRECTD19*
21,1,0.21247,0.97581,0,0,90.0*
21,1,0.00000,1.18828,0,0,90.0*
1,1,0.21247,0.48791,0.00000*
1,1,0.21247,0.48791,0.00000*
1,1,0.21247,-0.48791,0.00000*
1,1,0.21247,-0.48791,0.00000*
%
%ADD19ROUNDEDRECTD19*%
%ADD20R,0.70000X1.60000*%
%ADD21R,1.01213X1.15814*%
%ADD22R,0.75000X1.00000*%
%ADD23R,0.35000X0.30000*%
%ADD24R,0.21247X1.18828*%
G04:AMPARAMS|DCode=25|XSize=1.18828mm|YSize=0.21247mm|CornerRadius=0.10624mm|HoleSize=0mm|Usage=FLASHONLY|Rotation=90.000|XOffset=0mm|YOffset=0mm|HoleType=Round|Shape=RoundedRectangle|*
%AMROUNDEDRECTD25*
21,1,1.18828,0.00000,0,0,90.0*
21,1,0.97581,0.21247,0,0,90.0*
1,1,0.21247,0.00000,0.48791*
1,1,0.21247,0.00000,-0.48791*
1,1,0.21247,0.00000,-0.48791*
1,1,0.21247,0.00000,0.48791*
%
%ADD25ROUNDEDRECTD25*%
%ADD26R,1.65000X1.45000*%
%ADD27R,0.60000X1.60000*%
%ADD28R,0.75814X0.81213*%
%ADD29R,2.00000X2.00000*%
%ADD30R,1.00000X0.75000*%
%ADD31R,0.30000X0.99000*%
%ADD32R,0.81213X0.65872*%
%ADD33O,0.24000X0.60000*%
%ADD34O,0.60000X0.24000*%
%ADD35R,0.45000X1.38000*%
%ADD36R,1.20000X2.20000*%
%ADD37R,1.60000X1.50000*%
%TA.AperFunction,SMDPad,SMDef*%
%ADD38C,0.28000*%
%TA.AperFunction,SMDPad,CuDef*%
%ADD39R,1.68000X1.68000*%
%ADD40R,0.30000X0.35000*%
%TA.AperFunction,ConnectorPad*%
%ADD41R,0.80000X1.00000*%
%TA.AperFunction,SMDPad,CuDef*%
%ADD42R,0.80000X1.00000*%
%ADD43R,0.70000X1.50000*%
G04:AMPARAMS|DCode=44|XSize=2mm|YSize=3.4mm|CornerRadius=0mm|HoleSize=0mm|Usage=FLASHONLY|Rotation=0.000|XOffset=0mm|YOffset=0mm|HoleType=Round|Shape=Octagon|*
%AMOCTAGOND44*
4,1,8,-0.50000,1.70000,0.50000,1.70000,1.00000,1.20000,1.00000,-1.20000,0.50000,-1.70000,-0.50000,-1.70000,-1.00000,-1.20000,-1.00000,1.20000,-0.50000,1.70000,0.0*
%
%ADD44OCTAGOND44*%

%ADD45R,0.60000X0.80000*%
%ADD46R,0.70000X0.70000*%
%ADD47R,1.65000X1.30000*%
%ADD48R,1.80000X1.90000*%
%ADD49R,1.42500X1.55000*%
%ADD50R,1.00000X1.90000*%
%TA.AperFunction,Conductor*%
%ADD51C,0.50000*%
%ADD52C,0.25400*%
%ADD53C,0.12700*%
%TA.AperFunction,ComponentPad*%
%ADD54R,1.55000X1.55000*%
%ADD55C,1.55000*%
%TA.AperFunction,ViaPad*%
%ADD56C,0.44000*%
%ADD57C,0.40000*%
%ADD58C,4.00000*%
G36*
X4411688Y2191688D02*
X4420089Y2186074D01*
X4430000Y2184102D01*
X4492348D01*
X4499090Y2171402D01*
X4494858Y2165108D01*
X4091026D01*
X4083593Y2163629D01*
X4077292Y2159419D01*
X4077291Y2159418D01*
X4025838Y2107965D01*
X3946694D01*
Y2016694D01*
X3930775D01*
X3903307Y2044163D01*
Y2107965D01*
X3796694D01*
Y2016694D01*
X3778275D01*
X3762700Y2032269D01*
Y2105200D01*
X3637300D01*
Y2004800D01*
X3735232D01*
X3838766Y1901266D01*
X3838767Y1901265D01*
X3845068Y1897055D01*
X3852501Y1895577D01*
X4018176D01*
X4023436Y1882877D01*
X4020280Y1879720D01*
X4016253Y1870000D01*
X4016254Y1869999D01*
Y1760002D01*
X4016253Y1760000D01*
X4020279Y1750279D01*
X4020281Y1750279D01*
X4040280Y1730280D01*
X4050000Y1726253D01*
X4050001Y1726254D01*
X4166646D01*
X4169173Y1727300D01*
X4225827D01*
X4228353Y1726254D01*
X4290000D01*
X4290000Y1726253D01*
X4292527Y1727300D01*
X4335200D01*
Y1765759D01*
X4345464Y1776023D01*
X4348270Y1775642D01*
X4359103Y1765000D01*
X4361074Y1755089D01*
X4366688Y1746687D01*
X4375090Y1741073D01*
X4385000Y1739102D01*
X4419120D01*
X4426098Y1728595D01*
X4426488Y1726402D01*
X4424816Y1718000D01*
Y1682000D01*
X4426733Y1672362D01*
X4430577Y1666610D01*
Y1656822D01*
X4422279Y1648523D01*
X4417300Y1636505D01*
Y1623496D01*
X4422279Y1611477D01*
X4431477Y1602279D01*
X4443496Y1597300D01*
X4456505D01*
X4468523Y1602279D01*
X4477722Y1611477D01*
X4482700Y1623496D01*
Y1636505D01*
X4477722Y1648523D01*
X4469423Y1656822D01*
Y1666610D01*
X4473267Y1672362D01*
X4473391Y1672985D01*
X4487322Y1677923D01*
X4490090Y1676074D01*
X4500000Y1674102D01*
X4509911Y1676074D01*
X4511402Y1677070D01*
X4524102Y1670282D01*
Y1653175D01*
X4520583Y1649656D01*
X4515300Y1636902D01*
Y1623098D01*
X4520583Y1610344D01*
X4530344Y1600583D01*
X4543098Y1595300D01*
X4556902D01*
X4569656Y1600583D01*
X4579417Y1610344D01*
X4584700Y1623098D01*
Y1636902D01*
X4579417Y1649656D01*
X4575898Y1653175D01*
Y1670282D01*
X4588598Y1677071D01*
X4590090Y1676074D01*
X4600000Y1674102D01*
X4609911Y1676074D01*
X4618313Y1681688D01*
X4623926Y1690089D01*
X4625201Y1696497D01*
X4633769Y1699356D01*
X4635338Y1699576D01*
X4638366Y1699440D01*
X4646477Y1691328D01*
X4658496Y1686350D01*
X4671504D01*
X4683523Y1691328D01*
X4692722Y1700527D01*
X4697700Y1712545D01*
Y1725554D01*
X4695932Y1729823D01*
X4693524Y1738527D01*
X4700808Y1747192D01*
X4702100Y1749126D01*
X4714800Y1745273D01*
Y1727300D01*
X4762473D01*
X4765000Y1726253D01*
X4765001Y1726254D01*
X4887500D01*
X4890027Y1727300D01*
X4905200D01*
X4911561Y1717235D01*
Y1545922D01*
X4834078Y1468439D01*
X4650000D01*
X4635290Y1465512D01*
X4622820Y1457180D01*
X4622819Y1457179D01*
X4583760Y1418120D01*
X4575427Y1405650D01*
X4572501Y1390940D01*
X4572501Y1390939D01*
Y1363306D01*
X4556694D01*
Y1256694D01*
X4556693D01*
X4554995Y1244697D01*
X4541908Y1231610D01*
X4500869D01*
Y1081610D01*
X4492219D01*
X4475480Y1064871D01*
X4463746Y1069731D01*
Y1200000D01*
X4459720Y1209720D01*
X4459720Y1209720D01*
X4441269Y1228172D01*
Y1231610D01*
X4437831D01*
X4423747Y1245694D01*
Y1280487D01*
X4422454Y1283606D01*
X4422123Y1286967D01*
X4420516Y1288286D01*
X4419720Y1290207D01*
X4417908Y1290958D01*
Y1363306D01*
X4337509D01*
X4336447Y1363746D01*
X4180000Y1363747D01*
X4170280Y1359720D01*
X4040280Y1229720D01*
X4036253Y1220000D01*
X4036254Y1220000D01*
Y980000D01*
X4040280Y970280D01*
X4067780Y942780D01*
X4077500Y938753D01*
X4077501Y938754D01*
X4352499Y938753D01*
X4352500Y938752D01*
X4362221Y942779D01*
X4362221Y942780D01*
X4424135Y1004694D01*
X4435869Y999834D01*
Y772560D01*
X4492219Y716210D01*
X4604919D01*
X4661269Y772560D01*
Y1025260D01*
X4604919Y1081610D01*
X4596269D01*
Y1150195D01*
X4597008Y1153910D01*
X4597008Y1153911D01*
Y1177988D01*
X4625870Y1206851D01*
X4634203Y1219321D01*
X4637129Y1234031D01*
X4637129Y1234032D01*
Y1256693D01*
X4657908D01*
Y1363306D01*
X4651765D01*
X4650367Y1376006D01*
X4665922Y1391561D01*
X4849999D01*
X4850000Y1391561D01*
X4864710Y1394487D01*
X4877180Y1402820D01*
X4977180Y1502819D01*
X4977180Y1502820D01*
X4985513Y1515290D01*
X4987300Y1524276D01*
X5000000Y1523025D01*
Y725000D01*
X4750000D01*
Y475400D01*
X4750000Y475000D01*
X4749034Y462700D01*
X4729051D01*
X4687958Y454526D01*
X4649249Y438492D01*
X4614412Y415215D01*
X4584785Y385588D01*
X4561508Y350751D01*
X4545474Y312042D01*
X4537300Y270949D01*
Y229051D01*
X4545474Y187958D01*
X4561508Y149249D01*
X4584785Y114412D01*
X4614412Y84785D01*
X4649249Y61508D01*
X4687958Y45474D01*
X4729051Y37300D01*
X4770949D01*
X4812042Y45474D01*
X4850751Y61508D01*
X4885588Y84785D01*
X4915215Y114412D01*
X4938492Y149249D01*
X4954526Y187958D01*
X4962700Y229051D01*
Y270949D01*
X4954526Y312042D01*
X4938492Y350751D01*
X4915215Y385588D01*
X4885588Y415215D01*
X4850751Y438492D01*
X4812042Y454526D01*
X4772959Y462300D01*
X4774210Y475000D01*
X5000000D01*
Y0D01*
X0D01*
Y450000D01*
X146959D01*
X147464Y437300D01*
X114412Y415215D01*
X84785Y385589D01*
X61508Y350751D01*
X45474Y312043D01*
X37300Y270949D01*
Y229051D01*
X45474Y187958D01*
X61508Y149249D01*
X84785Y114412D01*
X114412Y84785D01*
X149249Y61508D01*
X187958Y45474D01*
X229051Y37300D01*
X270949D01*
X312042Y45474D01*
X350751Y61508D01*
X385588Y84785D01*
X415215Y114412D01*
X438492Y149249D01*
X454526Y187958D01*
X462700Y229051D01*
Y270949D01*
X454526Y312043D01*
X450669Y321353D01*
X461436Y328547D01*
X579854Y210129D01*
X581694Y208900D01*
Y111990D01*
X698306D01*
Y158029D01*
X1127452D01*
X1134885Y159507D01*
X1141186Y163717D01*
X1364768Y387300D01*
X1535231D01*
X1600577Y321954D01*
Y180000D01*
X1602055Y172567D01*
X1606266Y166266D01*
X1696266Y76266D01*
X1702567Y72055D01*
X1710000Y70577D01*
X1710001Y70577D01*
X1990000D01*
X1997433Y72055D01*
X2003734Y76266D01*
X2157709Y230240D01*
X2169442Y225380D01*
Y131693D01*
X2209006D01*
Y115444D01*
X2207182Y113620D01*
X2202204Y101601D01*
Y88592D01*
X2207182Y76574D01*
X2216381Y67375D01*
X2228399Y62397D01*
X2241408D01*
X2253427Y67375D01*
X2262625Y76574D01*
X2267604Y88592D01*
Y101601D01*
X2262625Y113620D01*
X2260801Y115444D01*
Y131693D01*
X2300365D01*
Y248306D01*
X2300365Y248306D01*
X2300366D01*
X2305585Y258870D01*
X2342425Y295710D01*
X2374380D01*
Y364290D01*
X2307688D01*
X2303205Y368099D01*
X2298198Y373841D01*
X2299423Y380000D01*
Y571985D01*
X2335815Y608377D01*
X2374740D01*
X2385710Y604199D01*
X2385710Y595676D01*
Y535620D01*
X2400577D01*
Y490000D01*
X2402055Y482567D01*
X2406266Y476266D01*
X2480577Y401955D01*
Y364380D01*
X2465710D01*
Y295800D01*
X2474102D01*
Y248306D01*
X2471990D01*
Y131693D01*
X2511554D01*
Y112895D01*
X2509730Y111071D01*
X2504752Y99053D01*
Y86044D01*
X2509730Y74026D01*
X2518929Y64827D01*
X2530947Y59848D01*
X2543956D01*
X2555975Y64827D01*
X2565173Y74026D01*
X2570152Y86044D01*
Y99053D01*
X2565173Y111071D01*
X2563349Y112895D01*
Y131693D01*
X2602913D01*
Y248306D01*
X2525897D01*
Y295800D01*
X2534290D01*
Y364380D01*
X2519423D01*
Y409999D01*
X2519423Y410000D01*
X2517944Y417433D01*
X2513734Y423734D01*
X2439423Y498045D01*
Y535620D01*
X2453010D01*
X2454290Y535619D01*
X2465710D01*
X2466990Y535620D01*
X2480577D01*
Y530000D01*
X2482055Y522567D01*
X2486266Y516266D01*
X2803650Y198881D01*
X2809951Y194671D01*
X2817385Y193193D01*
X3264800D01*
Y149916D01*
X3365200D01*
Y193193D01*
X3367469D01*
X3374902Y194671D01*
X3381203Y198881D01*
X3402100Y219779D01*
X3408723Y218573D01*
X3414800Y215114D01*
Y149916D01*
X3515200D01*
Y232526D01*
X3529974Y247300D01*
X3536504D01*
X3548523Y252278D01*
X3557722Y261477D01*
X3562700Y273496D01*
Y286504D01*
X3557722Y298523D01*
X3548523Y307722D01*
X3536504Y312700D01*
X3533925D01*
X3515200Y331425D01*
Y415316D01*
X3490898D01*
Y479145D01*
X3492700Y483496D01*
Y496505D01*
X3491669Y498993D01*
X3500155Y511694D01*
X3528010D01*
Y623032D01*
X3528010Y628307D01*
X3531579Y639528D01*
X3532694Y640273D01*
X3533300Y641179D01*
X3534845Y641531D01*
X3546455Y638009D01*
Y404121D01*
X3547934Y396688D01*
X3552144Y390387D01*
X3816266Y126266D01*
X3822567Y122055D01*
X3830000Y120577D01*
X3950000D01*
X3957433Y122055D01*
X3963734Y126266D01*
X4071234Y233766D01*
X4075445Y240067D01*
X4076923Y247500D01*
Y249800D01*
X4135200D01*
Y252300D01*
X4190200D01*
Y254102D01*
X4221694D01*
Y214538D01*
X4254102D01*
Y200347D01*
X4252279Y198523D01*
X4247300Y186504D01*
Y173495D01*
X4252279Y161477D01*
X4261477Y152278D01*
X4273496Y147300D01*
X4286505D01*
X4298523Y152278D01*
X4307722Y161477D01*
X4312700Y173495D01*
Y186504D01*
X4307722Y198523D01*
X4305898Y200347D01*
Y214538D01*
X4338307D01*
Y250834D01*
X4351007Y252749D01*
X4351477Y252278D01*
X4363495Y247300D01*
X4376504D01*
X4388523Y252278D01*
X4397721Y261477D01*
X4402700Y273496D01*
Y286504D01*
X4397721Y298523D01*
X4388523Y307722D01*
X4376504Y312700D01*
X4363495D01*
X4351477Y307722D01*
X4351007Y307251D01*
X4338307Y309165D01*
Y345462D01*
X4221694D01*
Y305898D01*
X4190200D01*
Y307700D01*
X4135200D01*
Y310200D01*
X4035200D01*
Y399800D01*
X4135200D01*
Y402300D01*
X4190200D01*
Y457700D01*
X4179423D01*
Y590000D01*
X4177945Y597433D01*
X4173734Y603734D01*
X3973734Y803734D01*
X3967433Y807945D01*
X3960000Y809423D01*
X3848046D01*
X3803301Y854168D01*
X3807481Y867948D01*
X3807891Y868030D01*
X3815606Y873185D01*
X3820761Y880900D01*
X3822571Y890000D01*
X3821070Y897544D01*
X3827180Y908475D01*
X3827989Y909656D01*
X3837300Y910682D01*
X3864989Y882993D01*
X3866074Y877541D01*
X3871688Y869139D01*
X3880090Y863526D01*
X3890000Y861554D01*
X3899911Y863526D01*
X3908312Y869139D01*
X3913926Y877541D01*
X3915898Y887452D01*
Y894607D01*
X3913926Y904518D01*
X3908312Y912919D01*
X3866845Y954387D01*
X3872106Y967087D01*
X3948307D01*
Y1098010D01*
X3918449D01*
X3916955Y1110710D01*
X3917722Y1111477D01*
X3922700Y1123496D01*
Y1136504D01*
X3917722Y1148523D01*
X3908523Y1157722D01*
X3896505Y1162700D01*
X3883496D01*
X3871477Y1157722D01*
X3862279Y1148523D01*
X3857300Y1136504D01*
Y1123496D01*
X3862279Y1111477D01*
X3863046Y1110710D01*
X3861551Y1098010D01*
X3831694D01*
Y1098010D01*
X3819949Y1100316D01*
X3815606Y1106815D01*
X3814700Y1107421D01*
Y1122579D01*
X3815606Y1123185D01*
X3820761Y1130900D01*
X3822571Y1140000D01*
X3820761Y1149100D01*
X3815606Y1156815D01*
X3814700Y1157421D01*
Y1172579D01*
X3815606Y1173185D01*
X3820761Y1180900D01*
X3822571Y1190000D01*
X3820761Y1199100D01*
X3815606Y1206815D01*
X3814699Y1207421D01*
Y1222579D01*
X3815606Y1223185D01*
X3820761Y1230900D01*
X3822571Y1240000D01*
X3820761Y1249100D01*
X3815606Y1256815D01*
X3814700Y1257421D01*
Y1272579D01*
X3815606Y1273185D01*
X3820761Y1280900D01*
X3822571Y1290000D01*
X3820761Y1299100D01*
X3815606Y1306815D01*
X3814699Y1307421D01*
Y1322579D01*
X3815606Y1323185D01*
X3820761Y1330900D01*
X3822571Y1340000D01*
X3820761Y1349100D01*
X3815606Y1356815D01*
X3814700Y1357421D01*
Y1372579D01*
X3815606Y1373185D01*
X3820761Y1380900D01*
X3822571Y1390000D01*
X3820761Y1399100D01*
X3815606Y1406815D01*
X3814700Y1407421D01*
Y1422579D01*
X3815606Y1423185D01*
X3820761Y1430900D01*
X3822571Y1440000D01*
X3820761Y1449100D01*
X3815606Y1456815D01*
X3814699Y1457421D01*
Y1472579D01*
X3815606Y1473185D01*
X3820761Y1480900D01*
X3822571Y1490000D01*
X3820761Y1499100D01*
X3815606Y1506815D01*
X3814700Y1507421D01*
Y1522579D01*
X3815606Y1523185D01*
X3820761Y1530900D01*
X3822571Y1540000D01*
X3820761Y1549100D01*
X3819222Y1551403D01*
X3825819Y1564103D01*
X3843880D01*
X3864989Y1542993D01*
X3866074Y1537541D01*
X3871688Y1529139D01*
X3880090Y1523526D01*
X3890000Y1521554D01*
X3899911Y1523526D01*
X3908312Y1529139D01*
X3913926Y1537541D01*
X3915898Y1547452D01*
Y1554607D01*
X3913926Y1564518D01*
X3908312Y1572919D01*
X3872919Y1608313D01*
X3874122Y1621716D01*
X3878622Y1627087D01*
X3948307D01*
Y1657488D01*
X3953046Y1660762D01*
X3961007Y1663966D01*
X3970947Y1659848D01*
X3983956D01*
X3995974Y1664827D01*
X4005173Y1674025D01*
X4010151Y1686044D01*
Y1699053D01*
X4005173Y1711071D01*
X3995974Y1720270D01*
X3983956Y1725248D01*
X3970947D01*
X3961007Y1721131D01*
X3953046Y1724334D01*
X3948307Y1727608D01*
Y1758010D01*
X3918449D01*
X3916955Y1770710D01*
X3917722Y1771477D01*
X3922700Y1783496D01*
Y1796504D01*
X3917722Y1808523D01*
X3908523Y1817722D01*
X3896505Y1822700D01*
X3883496D01*
X3871477Y1817722D01*
X3862279Y1808523D01*
X3857300Y1796504D01*
Y1783496D01*
X3862279Y1771477D01*
X3863046Y1770710D01*
X3861551Y1758010D01*
X3831694D01*
Y1665898D01*
X3750000D01*
X3740090Y1663926D01*
X3739871Y1663781D01*
X3701210D01*
X3692109Y1661970D01*
X3684394Y1656815D01*
X3679240Y1649100D01*
X3677429Y1640000D01*
X3679240Y1630900D01*
X3684394Y1623185D01*
X3692109Y1618030D01*
X3701210Y1616220D01*
X3722402D01*
X3728485Y1603520D01*
X3726074Y1599911D01*
X3724103Y1590000D01*
X3726074Y1580090D01*
X3728485Y1576480D01*
X3722402Y1563780D01*
X3701210D01*
X3692109Y1561970D01*
X3684394Y1556815D01*
X3679240Y1549100D01*
X3677429Y1540000D01*
X3679240Y1530900D01*
X3684394Y1523185D01*
X3685300Y1522579D01*
Y1507421D01*
X3684394Y1506815D01*
X3679240Y1499100D01*
X3677429Y1490000D01*
X3679240Y1480900D01*
X3684394Y1473185D01*
X3685301Y1472579D01*
Y1457421D01*
X3684394Y1456815D01*
X3679240Y1449100D01*
X3677429Y1440000D01*
X3679240Y1430900D01*
X3684394Y1423185D01*
X3685300Y1422579D01*
Y1407421D01*
X3684394Y1406815D01*
X3679240Y1399100D01*
X3677429Y1390000D01*
X3679240Y1380900D01*
X3684394Y1373185D01*
X3685300Y1372579D01*
Y1357421D01*
X3684394Y1356815D01*
X3679240Y1349100D01*
X3677429Y1340000D01*
X3679240Y1330900D01*
X3684394Y1323185D01*
X3685301Y1322579D01*
Y1307421D01*
X3684394Y1306815D01*
X3679240Y1299100D01*
X3677429Y1290000D01*
X3679240Y1280900D01*
X3684394Y1273185D01*
X3685300Y1272579D01*
Y1257421D01*
X3684394Y1256815D01*
X3679240Y1249100D01*
X3677429Y1240000D01*
X3679240Y1230900D01*
X3684394Y1223185D01*
X3685301Y1222579D01*
X3685653Y1221034D01*
X3682131Y1209423D01*
X3640000D01*
X3632567Y1207944D01*
X3626266Y1203734D01*
X3546266Y1123734D01*
X3542055Y1117433D01*
X3540577Y1110000D01*
Y810000D01*
X3542055Y802567D01*
X3546266Y796266D01*
X3554402Y788130D01*
X3551475Y773096D01*
X3549063Y771484D01*
X3548458Y770578D01*
X3533300D01*
X3532694Y771484D01*
X3524979Y776639D01*
X3515879Y778450D01*
X3506778Y776639D01*
X3499063Y771484D01*
X3498458Y770578D01*
X3483299D01*
X3482694Y771484D01*
X3474979Y776639D01*
X3465879Y778450D01*
X3456778Y776639D01*
X3449063Y771484D01*
X3448458Y770578D01*
X3433299D01*
X3432694Y771484D01*
X3424979Y776639D01*
X3415879Y778450D01*
X3406778Y776639D01*
X3399063Y771484D01*
X3393908Y763769D01*
X3392098Y754669D01*
Y733477D01*
X3379398Y727394D01*
X3375789Y729805D01*
X3365878Y731776D01*
X3355968Y729805D01*
X3352359Y727394D01*
X3339659Y733477D01*
Y754669D01*
X3337849Y763769D01*
X3332694Y771484D01*
X3324979Y776639D01*
X3315879Y778450D01*
X3306778Y776639D01*
X3299063Y771484D01*
X3298458Y770578D01*
X3283300D01*
X3282694Y771484D01*
X3274979Y776639D01*
X3265879Y778450D01*
X3256778Y776639D01*
X3249063Y771484D01*
X3248458Y770578D01*
X3233299D01*
X3232694Y771484D01*
X3224979Y776639D01*
X3215879Y778450D01*
X3206778Y776639D01*
X3199063Y771484D01*
X3198458Y770578D01*
X3183299D01*
X3182694Y771484D01*
X3174979Y776639D01*
X3165879Y778450D01*
X3156778Y776639D01*
X3149063Y771484D01*
X3148458Y770578D01*
X3133299D01*
X3132694Y771484D01*
X3124979Y776639D01*
X3120482Y777534D01*
X3099939Y798077D01*
X3093638Y802287D01*
X3086205Y803766D01*
X2784343D01*
X2780772Y803056D01*
X2769633Y810794D01*
X2768984Y821515D01*
X3529613Y1582144D01*
X3533823Y1588446D01*
X3535302Y1595879D01*
X3535302Y1595880D01*
Y1756252D01*
X3546913Y1759774D01*
X3548458Y1759422D01*
X3549063Y1758516D01*
X3556778Y1753361D01*
X3565879Y1751551D01*
X3574979Y1753361D01*
X3582694Y1758516D01*
X3587849Y1766231D01*
X3589659Y1775331D01*
Y1872912D01*
X3587849Y1882012D01*
X3582694Y1889727D01*
X3574979Y1894882D01*
X3565879Y1896692D01*
X3556778Y1894882D01*
X3549063Y1889727D01*
X3548458Y1888821D01*
X3533300D01*
X3532694Y1889727D01*
X3524979Y1894882D01*
X3515879Y1896692D01*
X3506778Y1894882D01*
X3499063Y1889727D01*
X3498458Y1888821D01*
X3483299D01*
X3482694Y1889727D01*
X3474979Y1894882D01*
X3465879Y1896692D01*
X3456778Y1894882D01*
X3449063Y1889727D01*
X3448458Y1888821D01*
X3433299D01*
X3432694Y1889727D01*
X3424979Y1894882D01*
X3415879Y1896692D01*
X3406778Y1894882D01*
X3399063Y1889727D01*
X3398458Y1888821D01*
X3383299D01*
X3382694Y1889727D01*
X3374979Y1894882D01*
X3365878Y1896692D01*
X3356778Y1894882D01*
X3349063Y1889727D01*
X3348458Y1888821D01*
X3333299D01*
X3332694Y1889727D01*
X3324979Y1894882D01*
X3315879Y1896692D01*
X3306778Y1894882D01*
X3299063Y1889727D01*
X3298458Y1888821D01*
X3283300D01*
X3282694Y1889727D01*
X3274979Y1894882D01*
X3265879Y1896692D01*
X3256778Y1894882D01*
X3249063Y1889727D01*
X3248458Y1888821D01*
X3233299D01*
X3232694Y1889727D01*
X3224979Y1894882D01*
X3215879Y1896692D01*
X3206778Y1894882D01*
X3199063Y1889727D01*
X3198458Y1888821D01*
X3183299D01*
X3182694Y1889727D01*
X3174979Y1894882D01*
X3165879Y1896692D01*
X3156778Y1894882D01*
X3149063Y1889727D01*
X3148458Y1888821D01*
X3146912Y1888469D01*
X3135302Y1891991D01*
Y1970333D01*
X3214162Y2049194D01*
X3313306D01*
Y2093903D01*
X3326693D01*
Y2049194D01*
X3453306D01*
Y2190407D01*
X3326693D01*
Y2145698D01*
X3313306D01*
Y2190407D01*
X3186693D01*
Y2076662D01*
X3102144Y1992113D01*
X3097934Y1985812D01*
X3096455Y1978379D01*
Y1891991D01*
X3084844Y1888469D01*
X3083299Y1888821D01*
X3082694Y1889727D01*
X3074979Y1894882D01*
X3065879Y1896692D01*
X3056778Y1894882D01*
X3049063Y1889727D01*
X3038119Y1896208D01*
X3032971Y1901385D01*
Y2104061D01*
X3055084Y2126174D01*
X3055084Y2126175D01*
X3056170Y2127800D01*
X3077700D01*
Y2251077D01*
X3186693D01*
Y2209592D01*
X3313306D01*
Y2306952D01*
X3313519Y2307094D01*
X3332306Y2325880D01*
X3337919Y2334282D01*
X3339891Y2344193D01*
Y2371372D01*
X3349600Y2381082D01*
X3362300Y2376810D01*
Y2357300D01*
X3447700D01*
Y2384102D01*
X4219273D01*
X4411688Y2191688D01*
D02*
G37*
G36*
X3065874Y2480289D02*
X3071488Y2471888D01*
X3151688Y2391688D01*
X3160089Y2386074D01*
X3170000Y2384102D01*
X3192300D01*
Y2361184D01*
X3186693Y2350806D01*
X3186693Y2350806D01*
X3186693Y2350806D01*
Y2289923D01*
X3077700D01*
Y2413200D01*
X3056170D01*
X3055084Y2414825D01*
X3038473Y2431436D01*
Y2464450D01*
X3036995Y2471883D01*
X3034511Y2475600D01*
X3037591Y2484798D01*
X3040137Y2488300D01*
X3064280D01*
X3065874Y2480289D01*
D02*
G37*
G36*
X4540363Y1938733D02*
X4550000Y1936816D01*
X4559638Y1938733D01*
X4567807Y1944192D01*
X4582193D01*
X4590363Y1938733D01*
X4600000Y1936816D01*
X4609638Y1938733D01*
X4611259Y1939817D01*
X4625031Y1933882D01*
X4626295Y1928470D01*
X4623733Y1924637D01*
X4621816Y1915000D01*
X4623733Y1905362D01*
X4629192Y1897192D01*
X4628164Y1882605D01*
X4625280Y1879721D01*
X4621254Y1870000D01*
X4621254Y1870000D01*
X4621254Y1810001D01*
X4621253Y1810000D01*
X4625279Y1800279D01*
X4625272Y1800262D01*
X4619550Y1788263D01*
X4616260Y1785661D01*
X4615881Y1785744D01*
X4588312Y1813312D01*
X4579911Y1818926D01*
X4570000Y1820898D01*
X4560089Y1818926D01*
X4554042Y1814885D01*
X4544885Y1824042D01*
X4548926Y1830089D01*
X4550898Y1840000D01*
X4548926Y1849910D01*
X4543312Y1858312D01*
X4534911Y1863926D01*
X4525000Y1865897D01*
X4515090Y1863926D01*
X4506688Y1858312D01*
X4481688Y1833312D01*
X4476233Y1825148D01*
X4470089Y1823926D01*
X4461688Y1818312D01*
X4456074Y1809911D01*
X4455524Y1807149D01*
X4447245Y1798870D01*
X4443185Y1799597D01*
X4433747Y1810000D01*
X4433747Y1810000D01*
Y1869999D01*
X4433748Y1870000D01*
X4429721Y1879721D01*
X4429720Y1879721D01*
X4424833Y1884608D01*
X4421522Y1894961D01*
X4423856Y1901754D01*
X4426267Y1905362D01*
X4428184Y1915000D01*
X4426267Y1924637D01*
X4422158Y1930786D01*
X4423577Y1936193D01*
X4435510Y1941976D01*
X4440363Y1938733D01*
X4450000Y1936816D01*
X4459638Y1938733D01*
X4467808Y1944192D01*
X4482193D01*
X4490363Y1938733D01*
X4500000Y1936816D01*
X4509638Y1938733D01*
X4517808Y1944192D01*
X4532193D01*
X4540363Y1938733D01*
D02*
G37*
G36*
X5000000Y1786977D02*
X4987300Y1785726D01*
X4985513Y1794710D01*
X4977180Y1807180D01*
X4977180Y1807181D01*
X4947180Y1837180D01*
X4934710Y1845512D01*
X4920000Y1848439D01*
X4919999Y1848439D01*
X4905200D01*
Y1897700D01*
X4835898D01*
Y1914653D01*
X4837722Y1916477D01*
X4842700Y1928496D01*
Y1941505D01*
X4837722Y1953523D01*
X4828523Y1962722D01*
X4816504Y1967700D01*
X4803496D01*
X4791477Y1962722D01*
X4782278Y1953523D01*
X4777300Y1941505D01*
Y1928496D01*
X4782278Y1916477D01*
X4784102Y1914653D01*
Y1897700D01*
X4716422D01*
X4712506Y1900655D01*
X4706593Y1907001D01*
X4708184Y1915000D01*
X4706267Y1924637D01*
X4700808Y1932807D01*
X4692638Y1938267D01*
X4683000Y1940184D01*
X4669423D01*
Y1953179D01*
X4677722Y1961477D01*
X4682700Y1973496D01*
Y1986505D01*
X4677722Y1998523D01*
X4668523Y2007722D01*
X4656505Y2012700D01*
X4647633D01*
X4639368Y2020977D01*
X4637814Y2024093D01*
X4638602Y2026693D01*
X4657908D01*
Y2133306D01*
X4633198D01*
Y2152699D01*
X4631227Y2162610D01*
X4625613Y2171012D01*
X4621058Y2175567D01*
X4624128Y2190458D01*
X4628523Y2192278D01*
X4637721Y2201477D01*
X4642700Y2213495D01*
Y2226504D01*
X4637721Y2238523D01*
X4636644Y2239600D01*
X4641905Y2252300D01*
X4657700D01*
Y2347700D01*
X4562300D01*
Y2252300D01*
X4576636D01*
X4581647Y2241071D01*
X4574779Y2231583D01*
X4565567Y2230147D01*
X4559911Y2233926D01*
X4550000Y2235897D01*
X4447870D01*
X4445173Y2239600D01*
X4451633Y2252300D01*
X4517700D01*
Y2347700D01*
X4505939D01*
Y2367300D01*
X4517700D01*
Y2492700D01*
X4412300D01*
Y2367300D01*
X4429061D01*
Y2347700D01*
X4422300D01*
Y2270918D01*
X4410567Y2266058D01*
X4248312Y2428312D01*
X4239910Y2433926D01*
X4230000Y2435898D01*
X3447700D01*
Y2462700D01*
X3362300D01*
Y2435898D01*
X3341893D01*
X3331983Y2433926D01*
X3323581Y2428312D01*
X3295681Y2400412D01*
X3290400Y2392509D01*
X3289446Y2392319D01*
X3277700Y2395497D01*
Y2462700D01*
X3192300D01*
Y2438619D01*
X3179600Y2437025D01*
X3148558Y2468067D01*
X3153418Y2479800D01*
X3282700D01*
Y2660200D01*
X3114800D01*
Y2651700D01*
X2849800D01*
Y2488300D01*
X2944027D01*
Y2466168D01*
X2945505Y2458735D01*
X2949716Y2452434D01*
X2959043Y2443107D01*
Y2428952D01*
X2944916Y2414825D01*
X2943830Y2413200D01*
X2922300D01*
Y2288800D01*
X2980904D01*
X2982166Y2282456D01*
X2986376Y2276155D01*
X3005766Y2256766D01*
X3012067Y2252555D01*
X3019500Y2251077D01*
X3022300D01*
Y2183226D01*
X3021927Y2181350D01*
Y2147954D01*
X3003576Y2129604D01*
X2991922Y2128538D01*
X2987378Y2130090D01*
X2977700Y2139768D01*
Y2252200D01*
X2922300D01*
Y2127800D01*
X2939429D01*
X2940076Y2124546D01*
X2944286Y2118245D01*
X2956024Y2106507D01*
Y1894378D01*
X2949063Y1889727D01*
X2948458Y1888821D01*
X2933299D01*
X2932694Y1889727D01*
X2924979Y1894882D01*
X2915879Y1896692D01*
X2906778Y1894882D01*
X2904476Y1893344D01*
X2891776Y1899941D01*
Y1916366D01*
X2910535Y1935125D01*
X2915304Y1936074D01*
X2923705Y1941688D01*
X2929319Y1950090D01*
X2931291Y1960000D01*
X2929319Y1969911D01*
X2923705Y1978313D01*
X2915304Y1983926D01*
X2905393Y1985898D01*
X2898785D01*
X2888875Y1983926D01*
X2880473Y1978313D01*
X2847566Y1945406D01*
X2843490Y1939306D01*
X2833107Y1936168D01*
X2828786Y1935759D01*
X2822913Y1940362D01*
Y2018306D01*
X2783349D01*
Y2049653D01*
X2785173Y2051477D01*
X2790152Y2063496D01*
Y2076505D01*
X2785173Y2088523D01*
X2775975Y2097722D01*
X2763956Y2102700D01*
X2750947D01*
X2738929Y2097722D01*
X2729730Y2088523D01*
X2724752Y2076505D01*
Y2063496D01*
X2729730Y2051477D01*
X2731554Y2049653D01*
Y2018306D01*
X2691990D01*
Y1985897D01*
X2670347D01*
X2668523Y1987721D01*
X2656504Y1992700D01*
X2643496D01*
X2643073Y1992525D01*
X2630373Y2001011D01*
Y2104704D01*
X2628895Y2112137D01*
X2624684Y2118438D01*
X2522232Y2220891D01*
X2515930Y2225101D01*
X2508497Y2226580D01*
X1097158D01*
X1097157Y2226580D01*
X1089724Y2225101D01*
X1083423Y2220891D01*
X1083422Y2220890D01*
X565701Y1703169D01*
X393813D01*
Y2071374D01*
X408209Y2085770D01*
X597140D01*
Y2211169D01*
X380740D01*
Y2113238D01*
X360656Y2093154D01*
X356446Y2086852D01*
X354967Y2079419D01*
Y1074578D01*
X356446Y1067145D01*
X360656Y1060844D01*
X535234Y886266D01*
X541536Y882055D01*
X548969Y880577D01*
X2020000D01*
X2027433Y882055D01*
X2033734Y886266D01*
X2178843Y1031375D01*
X2190577Y1026515D01*
Y890000D01*
X2192055Y882567D01*
X2196266Y876266D01*
X2214655Y857876D01*
X2220956Y853666D01*
X2227300Y852404D01*
Y814800D01*
X2352700D01*
Y915200D01*
X2229423D01*
Y1041395D01*
X2258604Y1070577D01*
X2563888D01*
X2567410Y1058966D01*
X2567058Y1057421D01*
X2566152Y1056815D01*
X2560997Y1049100D01*
X2559186Y1040000D01*
X2560997Y1030900D01*
X2566152Y1023185D01*
X2567058Y1022579D01*
Y1007421D01*
X2566152Y1006815D01*
X2560997Y999100D01*
X2559318Y990661D01*
X2556581Y988847D01*
X2547285Y984733D01*
X2515011Y1017007D01*
X2513926Y1022459D01*
X2508312Y1030861D01*
X2499911Y1036474D01*
X2490000Y1038446D01*
X2480090Y1036474D01*
X2471688Y1030861D01*
X2466074Y1022459D01*
X2464103Y1012548D01*
Y1005393D01*
X2466074Y995482D01*
X2471688Y987081D01*
X2514122Y944647D01*
X2509261Y932913D01*
X2431694D01*
Y896617D01*
X2418994Y894703D01*
X2418523Y895173D01*
X2406504Y900152D01*
X2393496D01*
X2381477Y895173D01*
X2372278Y885975D01*
X2367300Y873956D01*
Y860947D01*
X2372278Y848929D01*
X2381477Y839730D01*
X2393496Y834752D01*
X2406504D01*
X2418523Y839730D01*
X2418994Y840201D01*
X2431694Y838287D01*
Y801990D01*
X2548307D01*
Y864102D01*
X2631757D01*
X2641668Y866074D01*
X2641886Y866220D01*
X2662157D01*
X2667018Y854486D01*
X2591955Y779423D01*
X2300000D01*
X2292567Y777945D01*
X2286266Y773734D01*
X2002354Y489823D01*
X1983651D01*
X1983650Y489823D01*
X1981772Y489450D01*
X1935300D01*
Y407459D01*
X1909916Y382075D01*
X1907493Y378450D01*
X1891524D01*
X1883150Y387998D01*
X1883413Y390000D01*
X1880571Y411589D01*
X1872238Y431707D01*
X1858982Y448982D01*
X1841707Y462238D01*
X1821589Y470571D01*
X1800000Y473413D01*
X1778411Y470571D01*
X1758293Y462238D01*
X1741017Y448982D01*
X1727761Y431707D01*
X1719428Y411589D01*
X1716586Y390000D01*
X1719428Y368411D01*
X1727761Y348293D01*
X1741017Y331017D01*
X1758293Y317761D01*
X1778411Y309428D01*
X1800000Y306586D01*
X1821589Y309428D01*
X1841707Y317761D01*
X1858982Y331017D01*
X1862600Y335732D01*
X1875300Y331421D01*
Y290550D01*
X1936712D01*
Y258306D01*
X1857086D01*
Y141693D01*
X1988010D01*
Y171551D01*
X2000710Y173045D01*
X2001477Y172278D01*
X2013495Y167300D01*
X2021871D01*
X2027575Y155043D01*
X1981955Y109423D01*
X1718046D01*
X1639423Y188046D01*
Y330000D01*
X1637945Y337433D01*
X1633734Y343734D01*
X1562700Y414769D01*
Y612700D01*
X1337300D01*
Y414768D01*
X1119406Y196875D01*
X698306D01*
Y242913D01*
X602620D01*
X601855Y243066D01*
X313337Y531584D01*
Y973555D01*
X311858Y980988D01*
X307648Y987289D01*
X307647Y987290D01*
X293914Y1001024D01*
Y1825419D01*
X292435Y1832852D01*
X288225Y1839154D01*
X288224Y1839154D01*
X268140Y1859238D01*
Y1957169D01*
X51740D01*
Y1831770D01*
X240672D01*
X255067Y1817374D01*
Y992978D01*
X256546Y985545D01*
X260756Y979244D01*
X274490Y965510D01*
Y951239D01*
X268140Y941170D01*
X261790Y941169D01*
X185898D01*
Y979653D01*
X187721Y981477D01*
X192700Y993496D01*
Y1006504D01*
X187721Y1018523D01*
X178523Y1027722D01*
X166504Y1032700D01*
X153496D01*
X141477Y1027722D01*
X132278Y1018523D01*
X127300Y1006504D01*
Y993496D01*
X132278Y981477D01*
X134102Y979653D01*
Y941169D01*
X51740D01*
Y815770D01*
X134102D01*
Y780347D01*
X132278Y778523D01*
X127300Y766504D01*
Y753496D01*
X132278Y741477D01*
X141477Y732278D01*
X153496Y727300D01*
X166504D01*
X178523Y732278D01*
X187721Y741477D01*
X192700Y753496D01*
Y766504D01*
X187721Y778523D01*
X185898Y780347D01*
Y815770D01*
X261790D01*
X268140Y815769D01*
X274490Y805700D01*
Y523538D01*
X275969Y516105D01*
X280179Y509804D01*
X328547Y461436D01*
X321353Y450669D01*
X312042Y454526D01*
X270949Y462700D01*
X250000D01*
Y700000D01*
X0D01*
Y2275000D01*
X250000D01*
Y2524600D01*
X250000Y2525000D01*
X250965Y2537300D01*
X270949D01*
X312042Y2545474D01*
X350751Y2561508D01*
X385588Y2584785D01*
X415215Y2614412D01*
X438492Y2649249D01*
X454526Y2687958D01*
X462700Y2729051D01*
Y2770949D01*
X454526Y2812042D01*
X438492Y2850751D01*
X415215Y2885588D01*
X385588Y2915215D01*
X350751Y2938492D01*
X312042Y2954526D01*
X270949Y2962700D01*
X229051D01*
X187958Y2954526D01*
X149249Y2938492D01*
X114412Y2915215D01*
X84785Y2885588D01*
X61508Y2850751D01*
X45474Y2812042D01*
X37300Y2770949D01*
Y2729051D01*
X45474Y2687958D01*
X61508Y2649249D01*
X84785Y2614412D01*
X114412Y2584785D01*
X149249Y2561508D01*
X187958Y2545474D01*
X227041Y2537700D01*
X225790Y2525000D01*
X0D01*
Y3000000D01*
X5000000D01*
Y1786977D01*
D02*
G37*
G36*
X3396455Y1756252D02*
Y1583924D01*
X2714008Y901477D01*
X2698974Y904404D01*
X2697363Y906815D01*
X2689648Y911970D01*
X2680548Y913780D01*
X2659355D01*
X2653272Y926480D01*
X2655684Y930089D01*
X2657655Y940000D01*
X2655684Y949910D01*
X2653272Y953520D01*
X2659261Y966024D01*
X2659495Y966220D01*
X2680548D01*
X2689648Y968030D01*
X2697363Y973185D01*
X2702518Y980900D01*
X2704328Y990000D01*
X2702518Y999100D01*
X2697363Y1006815D01*
X2696457Y1007421D01*
Y1022579D01*
X2697363Y1023185D01*
X2702518Y1030900D01*
X2704328Y1040000D01*
X2702518Y1049100D01*
X2697363Y1056815D01*
X2696456Y1057421D01*
Y1072579D01*
X2697363Y1073185D01*
X2702518Y1080900D01*
X2704328Y1090000D01*
X2702518Y1099100D01*
X2697363Y1106815D01*
X2696457Y1107421D01*
Y1122579D01*
X2697363Y1123185D01*
X2702518Y1130900D01*
X2703412Y1135396D01*
X2753984Y1185968D01*
X2754177Y1185774D01*
X2766196Y1180796D01*
X2779205D01*
X2791223Y1185774D01*
X2800422Y1194973D01*
X2805400Y1206991D01*
Y1220000D01*
X2800422Y1232019D01*
X2791223Y1241217D01*
X2779205Y1246196D01*
X2766196D01*
X2754177Y1241217D01*
X2744979Y1232019D01*
X2742682Y1226474D01*
X2741387Y1226217D01*
X2735085Y1222006D01*
X2735085Y1222006D01*
X2714099Y1201020D01*
X2699194Y1204075D01*
X2697363Y1206815D01*
X2696456Y1207421D01*
Y1222579D01*
X2697363Y1223185D01*
X2702518Y1230900D01*
X2703412Y1235396D01*
X2730886Y1262870D01*
X2731477Y1262278D01*
X2743496Y1257300D01*
X2756505D01*
X2768523Y1262278D01*
X2777722Y1271477D01*
X2782700Y1283496D01*
Y1296504D01*
X2777722Y1308523D01*
X2768523Y1317722D01*
X2756505Y1322700D01*
X2743496D01*
X2731477Y1317722D01*
X2722279Y1308523D01*
X2720277Y1303692D01*
X2708320Y1299978D01*
X2699194Y1304075D01*
X2697363Y1306815D01*
X2696456Y1307421D01*
Y1322579D01*
X2697363Y1323185D01*
X2702518Y1330900D01*
X2704328Y1340000D01*
X2702518Y1349100D01*
X2697363Y1356815D01*
X2696457Y1357421D01*
Y1372579D01*
X2697363Y1373185D01*
X2702518Y1380900D01*
X2704328Y1390000D01*
X2702518Y1399100D01*
X2697363Y1406815D01*
X2696457Y1407421D01*
Y1422579D01*
X2697363Y1423185D01*
X2702518Y1430900D01*
X2704328Y1440000D01*
X2702518Y1449100D01*
X2697363Y1456815D01*
X2696456Y1457421D01*
Y1472579D01*
X2697363Y1473185D01*
X2702518Y1480900D01*
X2704328Y1490000D01*
X2702518Y1499100D01*
X2697363Y1506815D01*
X2696457Y1507421D01*
Y1522579D01*
X2697363Y1523185D01*
X2702518Y1530900D01*
X2704328Y1540000D01*
X2702518Y1549100D01*
X2697363Y1556815D01*
X2696456Y1557421D01*
Y1572579D01*
X2697363Y1573185D01*
X2702518Y1580900D01*
X2704328Y1590000D01*
X2702518Y1599100D01*
X2697363Y1606815D01*
X2703976Y1617671D01*
X2709157Y1622540D01*
X2712099Y1622379D01*
X2718212Y1616266D01*
X2724514Y1612055D01*
X2731947Y1610577D01*
X3170000D01*
X3177433Y1612055D01*
X3183735Y1616266D01*
X3279613Y1712144D01*
X3283823Y1718445D01*
X3285302Y1725878D01*
Y1756252D01*
X3296913Y1759774D01*
X3298458Y1759422D01*
X3299063Y1758516D01*
X3306778Y1753361D01*
X3315879Y1751551D01*
X3324979Y1753361D01*
X3332694Y1758516D01*
X3333299Y1759422D01*
X3348458D01*
X3349063Y1758516D01*
X3356778Y1753361D01*
X3365878Y1751551D01*
X3374979Y1753361D01*
X3382694Y1758516D01*
X3383299Y1759422D01*
X3384845Y1759774D01*
X3396455Y1756252D01*
D02*
G37*
G36*
X4784102Y1840537D02*
X4782820Y1839680D01*
X4774488Y1827210D01*
X4771561Y1812500D01*
X4774488Y1797790D01*
X4782820Y1785320D01*
X4795319Y1772820D01*
X4795320Y1772820D01*
X4800315Y1769482D01*
X4807790Y1764487D01*
X4822500Y1761561D01*
X4837210Y1764487D01*
X4847797Y1771561D01*
X4887500D01*
Y1740000D01*
X4765000D01*
X4705000Y1800000D01*
X4645000D01*
X4635000Y1810000D01*
X4635000Y1870000D01*
X4645000Y1880000D01*
X4784102D01*
Y1840537D01*
D02*
G37*
G36*
X4420000Y1870000D02*
Y1810000D01*
X4410000Y1800000D01*
X4350000D01*
X4290000Y1740000D01*
X4228353D01*
X4224501Y1752700D01*
X4224680Y1752820D01*
X4267180Y1795320D01*
X4275512Y1807790D01*
X4278438Y1822500D01*
X4275512Y1837210D01*
X4267180Y1849680D01*
X4254710Y1858013D01*
X4240000Y1860939D01*
X4225290Y1858013D01*
X4212820Y1849680D01*
X4170320Y1807180D01*
X4161987Y1794710D01*
X4159061Y1780000D01*
X4161987Y1765290D01*
X4170320Y1752820D01*
X4170498Y1752700D01*
X4166646Y1740000D01*
X4050000D01*
X4030000Y1760000D01*
Y1870000D01*
X4040000Y1880000D01*
X4410000D01*
X4420000Y1870000D01*
D02*
G37*
G36*
X2256693Y2059593D02*
X2354449D01*
X2359798Y2047459D01*
X2354148Y2040407D01*
X2256693D01*
Y1899194D01*
X2265131D01*
X2269992Y1887460D01*
X2055400Y1672869D01*
X2047704Y1675072D01*
X2042224Y1677653D01*
X2037722Y1688523D01*
X2028523Y1697722D01*
X2016504Y1702700D01*
X2003496D01*
X1991477Y1697722D01*
X1983179Y1689423D01*
X1383628D01*
X1377722Y1701477D01*
X1382700Y1713495D01*
Y1726504D01*
X1377722Y1738523D01*
X1368523Y1747721D01*
X1356505Y1752700D01*
X1343496D01*
X1331477Y1747721D01*
X1322279Y1738523D01*
X1317300Y1726504D01*
Y1713495D01*
X1322279Y1701477D01*
X1316372Y1689423D01*
X1071971D01*
X1064538Y1687945D01*
X1058237Y1683734D01*
X1058236Y1683733D01*
X569672Y1195169D01*
X393813D01*
Y1577770D01*
X597140D01*
Y1679672D01*
X1105202Y2187733D01*
X2256693D01*
Y2059593D01*
D02*
G37*
G36*
X2474834Y1867690D02*
X2476312Y1860257D01*
X2480522Y1853956D01*
X2658964Y1675514D01*
X2654104Y1663781D01*
X2582967D01*
X2574275Y1662052D01*
X2573219Y1662409D01*
X2562700Y1669536D01*
Y1676504D01*
X2557722Y1688523D01*
X2548523Y1697722D01*
X2536504Y1702700D01*
X2523496D01*
X2511477Y1697722D01*
X2502278Y1688523D01*
X2497300Y1676504D01*
Y1663496D01*
X2502278Y1651477D01*
X2511477Y1642278D01*
X2523496Y1637300D01*
X2535231D01*
X2546266Y1626266D01*
X2552567Y1622055D01*
X2560000Y1620577D01*
X2560001Y1620577D01*
X2563888D01*
X2567410Y1608966D01*
X2567058Y1607421D01*
X2566152Y1606815D01*
X2560997Y1599100D01*
X2559186Y1590000D01*
X2560997Y1580900D01*
X2566152Y1573185D01*
X2567058Y1572579D01*
X2567410Y1571034D01*
X2563888Y1559423D01*
X2450000D01*
X2442567Y1557945D01*
X2436266Y1553734D01*
X2410331Y1527800D01*
X2397920Y1533349D01*
Y1884798D01*
X2412316Y1899194D01*
X2474834D01*
Y1867690D01*
D02*
G37*
G36*
X2359074Y1892843D02*
Y1536543D01*
X2231955Y1409423D01*
X2142700D01*
Y1582700D01*
X2047300D01*
Y1409423D01*
X2032700D01*
Y1582700D01*
X2032700D01*
X2029030Y1591561D01*
X2324017Y1886549D01*
X2328227Y1892850D01*
X2329489Y1899194D01*
X2353862D01*
X2359074Y1892843D01*
D02*
G37*
G36*
X2567410Y1308966D02*
X2567058Y1307421D01*
X2566152Y1306815D01*
X2560997Y1299100D01*
X2559186Y1290000D01*
X2560997Y1280900D01*
X2566152Y1273185D01*
X2567058Y1272579D01*
Y1257421D01*
X2566152Y1256815D01*
X2560997Y1249100D01*
X2559186Y1240000D01*
X2560997Y1230900D01*
X2563208Y1227589D01*
Y1227549D01*
X2556298Y1216107D01*
X2552700Y1216505D01*
X2547722Y1228523D01*
X2538523Y1237722D01*
X2526504Y1242700D01*
X2513496D01*
X2501477Y1237722D01*
X2492278Y1228523D01*
X2487300Y1216505D01*
Y1203496D01*
X2492278Y1191477D01*
X2501477Y1182279D01*
X2513496Y1177300D01*
X2526504D01*
X2530828Y1179091D01*
X2533653Y1176266D01*
X2533653Y1176266D01*
X2539955Y1172055D01*
X2547388Y1170577D01*
X2547389Y1170577D01*
X2563888D01*
X2567410Y1158966D01*
X2567058Y1157421D01*
X2566152Y1156815D01*
X2560997Y1149100D01*
X2559186Y1140000D01*
X2560997Y1130900D01*
X2566152Y1123185D01*
X2567058Y1122579D01*
X2567410Y1121034D01*
X2563888Y1109423D01*
X2273485D01*
X2268625Y1121157D01*
X2468045Y1320577D01*
X2563888D01*
X2567410Y1308966D01*
D02*
G37*
G36*
X1827300Y1582700D02*
Y1397300D01*
X1895231D01*
X1916266Y1376266D01*
X1922567Y1372055D01*
X1930000Y1370577D01*
X1930001Y1370577D01*
X2235148D01*
X2240697Y1358165D01*
X2085453Y1202922D01*
X1628463D01*
X1619977Y1215622D01*
X1620152Y1216044D01*
Y1229053D01*
X1616034Y1238993D01*
X1619238Y1246954D01*
X1622512Y1251693D01*
X1652913D01*
Y1368306D01*
X1598439D01*
Y1388271D01*
X1607301Y1397300D01*
X1702700D01*
Y1555231D01*
X1738046Y1590577D01*
X1817863D01*
X1827300Y1582700D01*
D02*
G37*
G36*
X4336447Y1350000D02*
X4340299Y1337300D01*
X4340120Y1337180D01*
X4331788Y1324710D01*
X4328862Y1310000D01*
Y1307300D01*
X4331788Y1292591D01*
X4340120Y1280120D01*
X4352591Y1271788D01*
X4367301Y1268862D01*
X4382011Y1271788D01*
X4394481Y1280120D01*
X4397300Y1284339D01*
X4410000Y1280487D01*
Y1240000D01*
X4450000Y1200000D01*
Y1050000D01*
X4352500Y952500D01*
X4077500Y952500D01*
X4050000Y980000D01*
Y1220000D01*
X4180000Y1350000D01*
X4336447Y1350000D01*
D02*
G37*
G36*
X840000Y1392600D02*
Y1357469D01*
X836266Y1353734D01*
X832055Y1347433D01*
X830577Y1340000D01*
Y1060000D01*
X832055Y1052567D01*
X836266Y1046266D01*
X925922Y956609D01*
X932224Y952399D01*
X934262Y951993D01*
X939657Y939427D01*
Y920000D01*
X927196Y919423D01*
X557014D01*
X418401Y1058036D01*
X423261Y1069770D01*
X597140D01*
Y1167701D01*
X827300Y1397861D01*
X840000Y1392600D01*
D02*
G37*
G36*
X3248458Y641180D02*
X3249063Y640273D01*
X3256778Y635118D01*
X3265879Y633308D01*
X3274979Y635118D01*
X3282694Y640273D01*
X3283300Y641179D01*
X3298458D01*
X3299063Y640273D01*
X3306778Y635118D01*
X3315879Y633308D01*
X3323423Y634808D01*
X3334354Y628699D01*
X3335535Y627890D01*
X3336561Y618578D01*
X3312993Y595011D01*
X3307541Y593926D01*
X3299139Y588313D01*
X3293526Y579911D01*
X3291554Y570000D01*
X3293526Y560090D01*
X3299139Y551688D01*
X3307541Y546074D01*
X3317452Y544103D01*
X3324607D01*
X3334518Y546074D01*
X3342919Y551688D01*
X3382349Y591117D01*
X3385212Y591393D01*
X3397087Y581408D01*
Y511694D01*
X3419845D01*
X3428331Y498993D01*
X3427300Y496505D01*
Y483496D01*
X3432278Y471477D01*
X3439103Y464653D01*
Y415316D01*
X3418029D01*
X3414803Y415316D01*
X3402149Y415435D01*
X3373850Y443734D01*
X3367549Y447945D01*
X3360116Y449423D01*
X3288045D01*
X3235302Y502167D01*
Y638009D01*
X3246912Y641531D01*
X3248458Y641180D01*
D02*
G37*
G36*
X2792555Y747126D02*
Y716691D01*
X2791952Y715789D01*
X2789981Y705879D01*
Y594418D01*
X2787212Y591044D01*
X2778523Y587721D01*
X2766505Y592700D01*
X2753496D01*
X2741477Y587721D01*
X2732279Y578523D01*
X2727300Y566504D01*
Y553495D01*
X2732279Y541477D01*
X2741477Y532278D01*
X2753496Y527300D01*
X2766505D01*
X2778523Y532278D01*
X2779290Y533045D01*
X2791990Y531551D01*
Y501693D01*
X2822392D01*
X2825666Y496954D01*
X2828869Y488993D01*
X2824752Y479053D01*
Y466044D01*
X2829730Y454026D01*
X2838929Y444827D01*
X2850947Y439848D01*
X2863956D01*
X2875975Y444827D01*
X2885173Y454026D01*
X2890152Y466044D01*
Y479053D01*
X2886034Y488993D01*
X2889238Y496954D01*
X2892512Y501693D01*
X2922913D01*
Y618306D01*
X2851632D01*
X2843211Y627813D01*
X2843599Y631006D01*
X2854476Y636656D01*
X2856778Y635118D01*
X2865878Y633308D01*
X2874979Y635118D01*
X2882694Y640273D01*
X2883299Y641180D01*
X2898458D01*
X2899063Y640273D01*
X2906778Y635118D01*
X2915879Y633308D01*
X2924979Y635118D01*
X2932694Y640273D01*
X2933299Y641179D01*
X2948458D01*
X2949063Y640273D01*
X2956778Y635118D01*
X2965878Y633308D01*
X2974979Y635118D01*
X2982694Y640273D01*
X2983299Y641180D01*
X2998458D01*
X2999063Y640273D01*
X3006778Y635118D01*
X3015879Y633308D01*
X3024979Y635118D01*
X3032694Y640273D01*
X3033299Y641179D01*
X3048458D01*
X3049063Y640273D01*
X3056778Y635118D01*
X3065879Y633308D01*
X3074979Y635118D01*
X3082694Y640273D01*
X3083299Y641179D01*
X3098458D01*
X3099063Y640273D01*
X3106778Y635118D01*
X3115878Y633308D01*
X3124979Y635118D01*
X3132694Y640273D01*
X3133299Y641180D01*
X3134845Y641531D01*
X3146455Y638009D01*
Y474122D01*
X3147934Y466689D01*
X3152144Y460387D01*
X3227793Y384739D01*
X3222533Y372039D01*
X2805339D01*
X2614200Y563178D01*
X2614200Y604290D01*
X2625207Y608377D01*
X2627800D01*
X2635233Y609855D01*
X2641534Y614066D01*
X2779855Y752386D01*
X2792555Y747126D01*
D02*
G37*
G36*
X3756266Y586267D02*
X3756266Y586266D01*
X3762568Y582055D01*
X3770000Y580577D01*
X3770002Y580577D01*
X3871954D01*
X3934777Y517754D01*
Y392370D01*
X3936256Y384936D01*
X3940466Y378635D01*
X3947905Y371196D01*
X3951794Y368597D01*
X3949884Y356393D01*
X3949681Y355897D01*
X3925393D01*
X3915482Y353926D01*
X3907081Y348312D01*
X3901682Y342913D01*
X3821694D01*
Y312511D01*
X3816953Y309237D01*
X3808994Y306034D01*
X3799053Y310152D01*
X3786044D01*
X3774025Y305173D01*
X3764827Y295975D01*
X3759848Y283956D01*
Y270947D01*
X3764827Y258929D01*
X3774025Y249730D01*
X3786044Y244752D01*
X3799053D01*
X3808994Y248870D01*
X3816953Y245667D01*
X3821694Y242392D01*
Y211990D01*
X3851551D01*
X3853046Y199290D01*
X3852279Y198523D01*
X3847300Y186504D01*
Y173496D01*
X3835678Y168367D01*
X3829691Y167778D01*
X3585302Y412167D01*
Y644176D01*
X3587849Y647988D01*
X3589659Y657088D01*
Y736279D01*
X3601392Y741139D01*
X3756266Y586267D01*
D02*
G37*
G36*
X2783560Y338881D02*
X2789861Y334671D01*
X2797294Y333192D01*
X2797295Y333193D01*
X3264800D01*
Y289916D01*
X3353867D01*
X3358081Y282616D01*
X3353867Y275316D01*
X3264800D01*
Y232039D01*
X2825430D01*
X2534548Y522921D01*
X2539766Y535663D01*
X2545620Y535710D01*
Y535710D01*
X2586731D01*
X2783560Y338881D01*
D02*
G37*
G36*
X2261277Y587154D02*
X2261847Y586418D01*
X2260577Y580031D01*
Y388045D01*
X2064956Y192425D01*
X2052700Y198129D01*
Y206504D01*
X2047721Y218523D01*
X2038523Y227721D01*
X2026504Y232700D01*
X2013495D01*
X2001477Y227721D01*
X2000710Y226954D01*
X1996819Y227412D01*
X1988508Y232907D01*
Y290550D01*
X2002700D01*
Y375776D01*
X2025200D01*
X2032633Y377255D01*
X2038934Y381465D01*
X2247577Y590108D01*
X2261277Y587154D01*
D02*
G37*
%LPC*%
G36*
X3382700Y2913700D02*
X3192300D01*
Y2758300D01*
X3382700D01*
Y2913700D01*
D02*
G37*
G36*
X2707700D02*
X2517300D01*
Y2758300D01*
X2707700D01*
Y2913700D01*
D02*
G37*
G36*
X3167700Y2943700D02*
X2962300D01*
Y2728300D01*
X3167700D01*
Y2943700D01*
D02*
G37*
G36*
X2857700D02*
X2732300D01*
Y2728300D01*
X2857700D01*
Y2943700D01*
D02*
G37*
G36*
X4136875Y2742700D02*
X4113125D01*
X4090184Y2736553D01*
X4069616Y2724678D01*
X4052822Y2707884D01*
X4040947Y2687316D01*
X4034800Y2664375D01*
Y2640625D01*
X4040947Y2617684D01*
X4052822Y2597116D01*
X4069616Y2580322D01*
X4090184Y2568447D01*
X4113125Y2562300D01*
X4136875D01*
X4159816Y2568447D01*
X4180384Y2580322D01*
X4197178Y2597116D01*
X4209053Y2617684D01*
X4215200Y2640625D01*
Y2664375D01*
X4209053Y2687316D01*
X4197178Y2707884D01*
X4180384Y2724678D01*
X4159816Y2736553D01*
X4136875Y2742700D01*
D02*
G37*
G36*
X4770949Y2962700D02*
X4729051D01*
X4687958Y2954526D01*
X4649249Y2938492D01*
X4614412Y2915215D01*
X4584785Y2885588D01*
X4561508Y2850751D01*
X4545474Y2812042D01*
X4537300Y2770949D01*
Y2729051D01*
X4545474Y2687958D01*
X4561508Y2649249D01*
X4584785Y2614412D01*
X4614412Y2584785D01*
X4632058Y2572995D01*
X4627102Y2561031D01*
X4615000Y2563439D01*
X4600290Y2560513D01*
X4587820Y2552181D01*
X4579488Y2539710D01*
X4576562Y2525000D01*
Y2492700D01*
X4562300D01*
Y2367300D01*
X4667700D01*
Y2391561D01*
X4707300D01*
Y2367300D01*
X4812700D01*
Y2492700D01*
X4707300D01*
Y2468439D01*
X4667700D01*
Y2492700D01*
X4653439D01*
Y2525000D01*
X4650513Y2539710D01*
X4643128Y2550762D01*
X4646758Y2557134D01*
X4650370Y2561044D01*
X4687958Y2545474D01*
X4729051Y2537300D01*
X4770949D01*
X4812042Y2545474D01*
X4850751Y2561508D01*
X4885588Y2584785D01*
X4915215Y2614412D01*
X4938492Y2649249D01*
X4954526Y2687958D01*
X4962700Y2729051D01*
Y2770949D01*
X4954526Y2812042D01*
X4938492Y2850751D01*
X4915215Y2885588D01*
X4885588Y2915215D01*
X4850751Y2938492D01*
X4812042Y2954526D01*
X4770949Y2962700D01*
D02*
G37*
G36*
X2785200Y2660200D02*
X2617300D01*
Y2479800D01*
X2785200D01*
Y2660200D01*
D02*
G37*
G36*
X4962700Y2492700D02*
X4857300D01*
Y2367300D01*
X4866562D01*
Y2347700D01*
X4852300D01*
Y2252300D01*
X4947700D01*
Y2347700D01*
X4943439D01*
Y2367300D01*
X4962700D01*
Y2492700D01*
D02*
G37*
G36*
X4807700Y2347700D02*
X4712300D01*
Y2252300D01*
X4728095D01*
X4733356Y2239600D01*
X4732278Y2238523D01*
X4727300Y2226504D01*
Y2213495D01*
X4732278Y2201477D01*
X4741477Y2192278D01*
X4753495Y2187300D01*
X4766504D01*
X4778523Y2192278D01*
X4787721Y2201477D01*
X4792700Y2213495D01*
Y2226504D01*
X4787721Y2238523D01*
X4786644Y2239600D01*
X4791905Y2252300D01*
X4807700D01*
Y2347700D01*
D02*
G37*
G36*
X1359053Y1955248D02*
X1346044D01*
X1334026Y1950270D01*
X1324827Y1941071D01*
X1319849Y1929053D01*
Y1916044D01*
X1324827Y1904025D01*
X1334026Y1894827D01*
X1346044Y1889848D01*
X1359053D01*
X1371071Y1894827D01*
X1380270Y1904025D01*
X1385248Y1916044D01*
Y1929053D01*
X1380270Y1941071D01*
X1371071Y1950270D01*
X1359053Y1955248D01*
D02*
G37*
G36*
X4398569Y1177348D02*
X4383859Y1174422D01*
X4371389Y1166090D01*
X4363056Y1153620D01*
X4360130Y1138910D01*
Y1088910D01*
X4363056Y1074200D01*
X4371389Y1061729D01*
X4383859Y1053397D01*
X4398569Y1050471D01*
X4413279Y1053397D01*
X4425749Y1061729D01*
X4434081Y1074200D01*
X4437007Y1088910D01*
Y1138910D01*
X4434081Y1153620D01*
X4425749Y1166090D01*
X4413279Y1174422D01*
X4398569Y1177348D01*
D02*
G37*
%LPD*%
D10*
X1854000Y390000D02*
G03*
X1854000Y390000I-54000J0D01*
G01*
D11*
X4875000Y600000D02*
D03*
X125000Y2400000D02*
D03*
Y575000D02*
D03*
D12*
X1922548Y200000D02*
D03*
X2234904Y190000D02*
D03*
X2537452D02*
D03*
X1587452Y1310000D02*
D03*
X2857452Y560000D02*
D03*
X3462548Y570000D02*
D03*
X2757452Y1960000D02*
D03*
X2902548D02*
D03*
X3317452Y570000D02*
D03*
X3002548Y560000D02*
D03*
X1732548Y1310000D02*
D03*
X2682548Y190000D02*
D03*
X2380000D02*
D03*
X1777452Y200000D02*
D03*
D13*
X159940Y878469D02*
D03*
Y1894469D02*
D03*
Y1386469D02*
D03*
X488940Y1640469D02*
D03*
Y2148469D02*
D03*
Y1132469D02*
D03*
D14*
X1969000Y334500D02*
D03*
X1909000Y445500D02*
D03*
X1969000D02*
D03*
X1909000Y334500D02*
D03*
D15*
X1009801Y1040000D02*
D03*
X1006558Y1170606D02*
D03*
Y1300000D02*
D03*
X1170200Y1040000D02*
D03*
X1166957Y1300000D02*
D03*
Y1170606D02*
D03*
D16*
X2340090Y330000D02*
D03*
X2579910D02*
D03*
X2340090Y570000D02*
D03*
X2579910D02*
D03*
D17*
X2500000Y330090D02*
D03*
X2420000Y569910D02*
D03*
Y330090D02*
D03*
X2500000Y569910D02*
D03*
D18*
X2490000Y867452D02*
D03*
X3880000Y277452D02*
D03*
X4280000Y280000D02*
D03*
X3890000Y1032548D02*
D03*
Y1692548D02*
D03*
X640000Y177452D02*
D03*
X3890000Y1547452D02*
D03*
X4280000Y425096D02*
D03*
X3890000Y887452D02*
D03*
X3880000Y422548D02*
D03*
X2490000Y1012548D02*
D03*
X640000Y322548D02*
D03*
D19*
X2631757Y890000D02*
D03*
X3750000Y1640000D02*
D03*
Y990000D02*
D03*
X2631757Y1390000D02*
D03*
Y1440000D02*
D03*
Y1540000D02*
D03*
Y1490000D02*
D03*
X3750000Y1590000D02*
D03*
Y940000D02*
D03*
X2631757D02*
D03*
Y1140000D02*
D03*
Y1190000D02*
D03*
Y1240000D02*
D03*
Y1640000D02*
D03*
Y1340000D02*
D03*
X3750000Y1040000D02*
D03*
Y1240000D02*
D03*
Y1290000D02*
D03*
Y1340000D02*
D03*
Y1390000D02*
D03*
Y1440000D02*
D03*
Y1490000D02*
D03*
Y1540000D02*
D03*
X2631757Y1590000D02*
D03*
Y1290000D02*
D03*
Y1040000D02*
D03*
Y990000D02*
D03*
X3750000Y1090000D02*
D03*
Y890000D02*
D03*
Y1140000D02*
D03*
Y1190000D02*
D03*
X2631757Y1090000D02*
D03*
D20*
X1545000Y1490000D02*
D03*
X1985000D02*
D03*
X1435000D02*
D03*
X1875000D02*
D03*
X1655000D02*
D03*
X1215000D02*
D03*
X1325000D02*
D03*
X1765000D02*
D03*
X2095000D02*
D03*
D21*
X2320000Y2130199D02*
D03*
X2450000D02*
D03*
X2320000Y1969800D02*
D03*
X2450000D02*
D03*
X3390000Y2280199D02*
D03*
Y2119800D02*
D03*
X3250000D02*
D03*
Y2280199D02*
D03*
D22*
X3465000Y352616D02*
D03*
Y212616D02*
D03*
X3315000Y352616D02*
D03*
Y212616D02*
D03*
D23*
X4160000Y280000D02*
D03*
X4005000Y330000D02*
D03*
X4160000Y380000D02*
D03*
Y330000D02*
D03*
X4005000Y380000D02*
D03*
Y430000D02*
D03*
X4160000D02*
D03*
X4005000Y280000D02*
D03*
D24*
X2815879Y705879D02*
D03*
D25*
X3415879D02*
D03*
X2815879Y1824122D02*
D03*
X3215879D02*
D03*
X3265879D02*
D03*
X3115878Y705879D02*
D03*
X2865878Y1824122D02*
D03*
X3365878Y705879D02*
D03*
X2915879Y1824122D02*
D03*
X2965878Y705879D02*
D03*
X3265879D02*
D03*
X3315879D02*
D03*
X3465879D02*
D03*
X3515879D02*
D03*
X3565879Y1824122D02*
D03*
X3465879D02*
D03*
X3365878D02*
D03*
X3315879D02*
D03*
X3165879D02*
D03*
X3065879D02*
D03*
X3015879Y705879D02*
D03*
X3065879D02*
D03*
X2915879D02*
D03*
X2865878D02*
D03*
X3565879D02*
D03*
X3515879Y1824122D02*
D03*
X3415879D02*
D03*
X3115878D02*
D03*
X2965878D02*
D03*
X3015879D02*
D03*
X3165879Y705879D02*
D03*
X3215879D02*
D03*
D26*
X4160000Y1045000D02*
D03*
Y860000D02*
D03*
X4810000Y1627500D02*
D03*
X4240000D02*
D03*
Y1812500D02*
D03*
X4810000D02*
D03*
D27*
X4398569Y1138910D02*
D03*
X4698569D02*
D03*
D28*
X4367301Y1310000D02*
D03*
X4732699Y2080000D02*
D03*
Y1310000D02*
D03*
X4492699D02*
D03*
X4607301D02*
D03*
Y2080000D02*
D03*
D29*
X1450000Y500000D02*
D03*
X850000D02*
D03*
D30*
X2290000Y1015000D02*
D03*
X3700000Y2205000D02*
D03*
X2290000Y865000D02*
D03*
X3700000Y2055000D02*
D03*
D31*
X3000000Y2190000D02*
D03*
X3050000D02*
D03*
X2950000D02*
D03*
X3050000Y2351000D02*
D03*
X2950000D02*
D03*
X3000000D02*
D03*
D32*
X4150000Y2197671D02*
D03*
X4300000Y2197671D02*
D03*
X4000000Y2197671D02*
D03*
X3850000D02*
D03*
X4000000Y2062330D02*
D03*
X3850000D02*
D03*
X4150000D02*
D03*
X4300000Y2062329D02*
D03*
D33*
X4600000Y1700000D02*
D03*
X4500000D02*
D03*
X4450000D02*
D03*
X4600000Y1980000D02*
D03*
X4450000D02*
D03*
X4500000D02*
D03*
X4550000D02*
D03*
Y1700000D02*
D03*
D34*
X4385000Y1765000D02*
D03*
Y1865000D02*
D03*
Y1815000D02*
D03*
X4665000Y1865000D02*
D03*
Y1815000D02*
D03*
Y1915000D02*
D03*
Y1765000D02*
D03*
X4385000Y1915000D02*
D03*
D35*
X2820000Y2570000D02*
D03*
X3015000D02*
D03*
X2950000D02*
D03*
X2885000D02*
D03*
X3080000D02*
D03*
D36*
X2250000Y2550000D02*
D03*
Y1600000D02*
D03*
X700000Y2550000D02*
D03*
D37*
X790000Y1595000D02*
D03*
D38*
X1853500Y390000D02*
D03*
D39*
X4525000Y1840000D02*
D03*
D40*
X4057500Y280000D02*
D03*
Y430000D02*
D03*
X4107500Y280000D02*
D03*
Y430000D02*
D03*
D41*
X4760000Y2430000D02*
D03*
X4910000D02*
D03*
D42*
X4615000D02*
D03*
X4465000D02*
D03*
D43*
X4548569Y1143910D02*
D03*
D44*
Y898910D02*
D03*
D45*
X3405000Y2410000D02*
D03*
X3235000D02*
D03*
D46*
X4760000Y2300000D02*
D03*
X4610000D02*
D03*
X4470000D02*
D03*
X4900000D02*
D03*
D47*
X2612500Y2836000D02*
D03*
X3287500D02*
D03*
D48*
X3065000D02*
D03*
D49*
X3198750Y2570000D02*
D03*
X2701250D02*
D03*
D50*
X2795000Y2836000D02*
D03*
D51*
X2475607Y2100000D02*
X2525000D01*
X2450000Y2125607D02*
X2475607Y2100000D01*
X2450000Y2125607D02*
Y2130199D01*
X2320000D02*
X2450000D01*
X4398569Y1088910D02*
Y1138910D01*
X4367301Y1307300D02*
Y1310000D01*
X1580607D02*
X1587452D01*
X1560000Y1330607D02*
X1580607Y1310000D01*
X1555000Y1435000D02*
Y1480000D01*
Y1435000D02*
X1560000Y1430000D01*
Y1330607D02*
Y1430000D01*
X1545000Y1490000D02*
X1555000Y1480000D01*
X1006558Y1170606D02*
Y1300000D01*
X1008180Y1041621D02*
X1009801Y1040000D01*
X1008180Y1041621D02*
Y1168985D01*
X1006558Y1170606D02*
X1008180Y1168985D01*
X898651Y1170606D02*
X1006558D01*
X4197500Y1780000D02*
X4240000Y1822500D01*
X4650000Y1430000D02*
X4850000D01*
X4950000Y1530000D01*
X4610940Y1390940D02*
X4650000Y1430000D01*
X4598690Y1301389D02*
X4610940Y1313639D01*
Y1390940D01*
X4558569Y1153910D02*
Y1193910D01*
X4598690Y1234031D01*
X4548569Y1143910D02*
X4558569Y1153910D01*
X4598690Y1234031D02*
Y1301389D01*
X4950000Y1530000D02*
Y1780000D01*
X4920000Y1810000D02*
X4950000Y1780000D01*
X4832500Y1810000D02*
X4920000D01*
X4822500Y1800000D02*
X4832500Y1810000D01*
X4810000Y1812500D02*
X4822500Y1800000D01*
X4615000Y2430000D02*
Y2525000D01*
Y2430000D02*
X4760000D01*
X4905000Y2425000D02*
X4910000Y2430000D01*
X4905000Y2305000D02*
Y2425000D01*
X4900000Y2300000D02*
X4905000Y2305000D01*
X4465000Y2430000D02*
X4467500Y2427500D01*
Y2302500D02*
Y2427500D01*
Y2302500D02*
X4470000Y2300000D01*
D52*
X1929703Y200000D02*
X1962610Y232907D01*
Y328110D01*
X1922548Y200000D02*
X2020000D01*
X1962610Y328110D02*
X1969000Y334500D01*
X2234904Y95097D02*
Y190000D01*
X2235315D02*
X2268222Y222907D01*
Y258132D01*
X159940Y878469D02*
X160000Y878529D01*
X159940Y878469D02*
X160000Y878410D01*
Y760000D02*
Y878410D01*
Y878529D02*
Y1000000D01*
X2268222Y258132D02*
X2340090Y330000D01*
X2537452Y92548D02*
Y190000D01*
X2500000Y222907D02*
Y330090D01*
X2532907Y190000D02*
X2537452D01*
X2500000Y222907D02*
X2532907Y190000D01*
X2397452Y870000D02*
X2400000Y867452D01*
X2490000D01*
X2512548Y890000D01*
X2631757D01*
X1587452Y1222548D02*
Y1310000D01*
X3460000Y486050D02*
X3465000Y481049D01*
X3460000Y486050D02*
Y490000D01*
X3465000Y340116D02*
X3489800Y315316D01*
X3494684D01*
X3465000Y390000D02*
Y481049D01*
Y340116D02*
Y352616D01*
Y340116D02*
Y377500D01*
X2815879Y594418D02*
X2850297Y560000D01*
X2857452D01*
X2760000D02*
X2857452D01*
Y472548D02*
Y560000D01*
X3460000Y490000D02*
Y567452D01*
X3462548Y570000D01*
X3455393D02*
X3462548D01*
X3496049Y250000D02*
X3526049Y280000D01*
X3465000Y250000D02*
X3496049D01*
X3792548Y277452D02*
X3880000D01*
X3526049Y280000D02*
X3530000D01*
X4280000Y180000D02*
Y280000D01*
X3880000Y180000D02*
Y277452D01*
X4280000Y280000D02*
X4370000D01*
X4160000D02*
X4280000D01*
X3494684Y315316D02*
X3530000Y280000D01*
X3880000Y284607D02*
X3925393Y330000D01*
X4005000D01*
X2815879Y594418D02*
Y705879D01*
X3415879Y609515D02*
X3455393Y570000D01*
X3415879Y609515D02*
Y705879D01*
X3750000Y990000D02*
X3847452D01*
X3849938Y992486D01*
X3857093D01*
X2757452Y1960000D02*
Y2070000D01*
X2650000Y1960000D02*
X2757452D01*
Y2070000D02*
X2760000D01*
X3750000Y1640000D02*
X3844607D01*
X2815879Y1824122D02*
Y1904121D01*
X2767452Y1960000D02*
X2797514Y1929938D01*
Y1922486D02*
X2815879Y1904121D01*
X2797514Y1922486D02*
Y1929938D01*
X3857093Y992486D02*
X3890000Y1025393D01*
Y1032548D02*
Y1130000D01*
Y1025393D02*
Y1032548D01*
X3844607Y1640000D02*
X3890000Y1685393D01*
Y1692548D02*
Y1790000D01*
Y1685393D02*
Y1692548D01*
X3977452D01*
X1490000Y1310000D02*
X1587452D01*
X4500000Y1815000D02*
X4525000Y1840000D01*
X4500000Y1700000D02*
Y1815000D01*
X4570000Y1795000D02*
X4600000Y1765000D01*
Y1700000D02*
Y1765000D01*
X4480000Y1795000D02*
Y1800000D01*
X4450000Y1765000D02*
X4480000Y1795000D01*
X4385000Y1765000D02*
X4450000D01*
X2898785Y1960000D02*
X2905393D01*
X2865878Y1927093D02*
X2898785Y1960000D01*
X2865878Y1824122D02*
Y1927093D01*
X3854607Y1590000D02*
X3890000Y1554607D01*
Y1547452D02*
Y1554607D01*
Y887452D02*
Y894607D01*
X3750000Y1590000D02*
X3854607D01*
X3750000Y940000D02*
X3844607D01*
X3890000Y894607D01*
X3365878Y611272D02*
Y705879D01*
X3324607Y570000D02*
X3365878Y611272D01*
X3317452Y570000D02*
X3324607D01*
X2629681Y942076D02*
X2631757Y940000D01*
X2553317Y942076D02*
X2629681D01*
X2490000Y1005393D02*
Y1012548D01*
Y1005393D02*
X2553317Y942076D01*
X3250000Y2119800D02*
X3390000D01*
X4810000Y1812500D02*
Y1935000D01*
X3405000Y2410000D02*
X4230000D01*
X3089800Y2490200D02*
X3170000Y2410000D01*
X3313993Y2344193D02*
Y2382100D01*
X3341893Y2410000D02*
X3405000D01*
X3313993Y2382100D02*
X3341893Y2410000D01*
X3287907Y2325407D02*
X3295207D01*
X3313993Y2344193D01*
X3250000Y2287500D02*
X3287907Y2325407D01*
X4550000Y2210000D02*
X4607301Y2152699D01*
X4430000Y2210000D02*
X4550000D01*
X4607301Y2080000D02*
Y2152699D01*
X4230000Y2410000D02*
X4430000Y2210000D01*
X4600700Y2073399D02*
X4607301Y2080000D01*
X4600700Y1980700D02*
Y2073399D01*
X4600000Y1980000D02*
X4600700Y1980700D01*
X3170000Y2410000D02*
X3235000D01*
X3089800Y2490200D02*
Y2560200D01*
X3080000Y2570000D02*
X3089800Y2560200D01*
X4665000Y1719050D02*
Y1765000D01*
X4550000Y1630000D02*
Y1700000D01*
D53*
X2420000Y490000D02*
Y569910D01*
Y490000D02*
X2500000Y410000D01*
Y330090D02*
Y410000D01*
X2320000Y1977101D02*
X2392899Y2050000D01*
X2505255D01*
X3130547Y1690000D02*
X3215879Y1775331D01*
Y1824122D01*
X2505255Y2050000D02*
X2540607Y2014648D01*
X2320000Y1969800D02*
Y1977101D01*
X1985000Y1490000D02*
X1991610Y1496610D01*
Y1581611D01*
X2540607Y1915272D02*
X2765879Y1690000D01*
X2540607Y1915272D02*
Y2014648D01*
X2765879Y1690000D02*
X3130547D01*
X2310283Y1960083D02*
X2320000Y1969800D01*
X2310283Y1900283D02*
Y1960083D01*
X1991610Y1581611D02*
X2310283Y1900283D01*
X1435000Y1490000D02*
Y1535000D01*
X1340000Y1630000D02*
X1435000Y1535000D01*
X2440000Y1390000D02*
X2631757D01*
X1140000Y1009800D02*
X1170200Y1040000D01*
X1101546Y970343D02*
X1118642Y987440D01*
Y995743D02*
X1132700Y1009800D01*
X1118642Y987440D02*
Y995743D01*
X1132700Y1009800D02*
X1140000D01*
X939657Y970343D02*
X1101546D01*
X1140000Y1630000D02*
X1340000D01*
X850000Y1060000D02*
X939657Y970343D01*
X850000Y1060000D02*
Y1340000D01*
X1140000Y1630000D01*
X1170200Y1040000D02*
X1177500D01*
X1217500Y1000000D01*
X2050000D01*
X2440000Y1390000D01*
X2494257Y1867690D02*
Y1925544D01*
X2692839Y1669674D02*
X2710221Y1652291D01*
X2692273Y1669674D02*
X2692839D01*
X2710221Y1651725D02*
X2731947Y1630000D01*
X2494257Y1867690D02*
X2692273Y1669674D01*
X2710221Y1651725D02*
Y1652291D01*
X2731947Y1630000D02*
X3170000D01*
X3265879Y1725878D02*
Y1824122D01*
X3170000Y1630000D02*
X3265879Y1725878D01*
X1875000Y1490000D02*
X1903650Y1461350D01*
Y1416349D02*
Y1461350D01*
Y1416349D02*
X1930000Y1390000D01*
X2240000D01*
X2450000Y1962500D02*
Y1969800D01*
X2405743Y1918243D02*
X2450000Y1962500D01*
Y1969800D02*
X2494257Y1925544D01*
X2378497Y1892843D02*
X2403897Y1918243D01*
X2378497Y1528497D02*
Y1892843D01*
X2403897Y1918243D02*
X2405743D01*
X2240000Y1390000D02*
X2378497Y1528497D01*
X1655000Y1490000D02*
Y1535000D01*
X1730000Y1610000D01*
X1930000D01*
X2520000Y1440000D02*
X2631757D01*
X2093498Y1183499D02*
X2450000Y1540000D01*
X2631757D01*
X1215000Y1297500D02*
Y1490000D01*
X1290759Y1183499D02*
X2093498D01*
X1174258Y1300000D02*
X1290759Y1183499D01*
X1166957Y1300000D02*
X1174258D01*
X1325000Y1490000D02*
Y1535000D01*
X1270950Y1589050D02*
X1325000Y1535000D01*
X1172109Y1589050D02*
X1270950D01*
X2470000Y1490000D02*
X2631757D01*
X1090000Y1506941D02*
X1172109Y1589050D01*
X1090000Y1240263D02*
Y1506941D01*
Y1240263D02*
X1159657Y1170606D01*
X1166957D01*
X1211214Y1126350D01*
X1232364D01*
X1258713Y1100000D01*
X2080000D02*
X2470000Y1490000D01*
X1258713Y1100000D02*
X2080000D01*
X274490Y992978D02*
Y1825419D01*
X293914Y523538D02*
X593588Y223864D01*
X274490Y992978D02*
X293914Y973555D01*
Y523538D02*
Y973555D01*
X205440Y1894469D02*
X274490Y1825419D01*
X2020000Y900000D02*
X2460000Y1340000D01*
X548969Y900000D02*
X2020000D01*
X374390Y1074578D02*
X548969Y900000D01*
X640000Y177452D02*
X1127452D01*
X1450000Y500000D01*
X159940Y1894469D02*
X205440D01*
X1620000Y180000D02*
X1710000Y90000D01*
X1450000Y500000D02*
X1620000Y330000D01*
Y180000D02*
Y330000D01*
X1710000Y90000D02*
X1990000D01*
X2280000Y380000D01*
Y580031D01*
X2327769Y627800D02*
X2627800D01*
X2280000Y580031D02*
X2327769Y627800D01*
X2627800D02*
X2784343Y784343D01*
X3115878Y705879D02*
Y754669D01*
X2784343Y784343D02*
X3086205D01*
X3115878Y754669D01*
X640000Y177452D02*
Y184607D01*
X593588Y223864D02*
X600743D01*
X640000Y184607D01*
X2683340Y1142792D02*
X2748820Y1208272D01*
X2631757Y1140000D02*
X2634549Y1142792D01*
X2683340D01*
X2748820Y1208272D02*
X2767477D01*
X2772700Y1213496D01*
X2547388Y1190000D02*
X2631757D01*
X2527387Y1210000D02*
X2547388Y1190000D01*
X2520000Y1210000D02*
X2527387D01*
X2631757Y1240000D02*
X2680548D01*
X2725324Y1284776D01*
X2744777D01*
X2750000Y1290000D01*
X2460000Y1340000D02*
X2631757D01*
X374390Y2079419D02*
X443440Y2148469D01*
X374390Y1074578D02*
Y2079419D01*
X1071971Y1670000D02*
X2010000D01*
X534440Y1132469D02*
X1071971Y1670000D01*
X2560000Y1640000D02*
X2631757D01*
X2530000Y1670000D02*
X2560000Y1640000D01*
X488940Y1132469D02*
X534440D01*
X443440Y2148469D02*
X488940D01*
X534440Y1640469D02*
X578091Y1684120D01*
X488940Y1640469D02*
X534440D01*
X578091Y1684120D02*
Y1688090D01*
X1097157Y2207157D01*
X2508497D01*
X2915879Y1775331D02*
Y1824122D01*
X2886205Y1745657D02*
X2915879Y1775331D01*
X2803587Y1745657D02*
X2886205D01*
X2610950Y1938295D02*
X2803587Y1745657D01*
X2610950Y1938295D02*
Y2104704D01*
X2508497Y2207157D02*
X2610950Y2104704D01*
X3165879Y474122D02*
Y705879D01*
X2579910Y570000D02*
X2797294Y352616D01*
X3287385D02*
X3315000D01*
X2797294D02*
X3287385D01*
X3165879Y474122D02*
X3250000Y390000D01*
X3283850D02*
X3287385Y386465D01*
Y352616D02*
Y386465D01*
X3250000Y390000D02*
X3283850D01*
X4057500Y247500D02*
Y280000D01*
X3950000Y140000D02*
X4057500Y247500D01*
X3830000Y140000D02*
X3950000D01*
X3565879Y404121D02*
Y705879D01*
Y404121D02*
X3830000Y140000D01*
X3640000Y1190000D02*
X3750000D01*
X3560000Y810000D02*
Y1110000D01*
X3640000Y1190000D01*
X3954200Y392370D02*
Y525800D01*
Y392370D02*
X3961640Y384930D01*
X3770000Y600000D02*
X3880000D01*
X3954200Y525800D01*
X4000070Y384930D02*
X4005000Y380000D01*
X3961640Y384930D02*
X4000070D01*
X3560000Y810000D02*
X3770000Y600000D01*
X3790000Y660000D02*
X3910000D01*
X4005000Y565000D01*
X3670000Y1140000D02*
X3750000D01*
X3620000Y1090000D02*
X3670000Y1140000D01*
X4005000Y430000D02*
Y565000D01*
X3620000Y830000D02*
Y1090000D01*
Y830000D02*
X3790000Y660000D01*
X3815401Y724600D02*
X3935400D01*
X4057500Y430000D02*
Y602500D01*
X3935400Y724600D02*
X4057500Y602500D01*
X3698897Y1090000D02*
X3750000D01*
X3671536Y1062639D02*
X3698897Y1090000D01*
X3671536Y998464D02*
Y1062639D01*
Y998464D02*
X3671537Y998463D01*
Y977709D02*
Y998463D01*
X3671536Y977708D02*
X3671537Y977709D01*
X3671536Y868464D02*
Y977708D01*
Y868464D02*
X3815401Y724600D01*
X1969000Y445500D02*
Y455750D01*
X1983650Y470400D01*
X2010400D01*
X2300000Y760000D01*
X2600000D01*
X3415879Y1575878D01*
Y1824122D01*
X4160000Y430000D02*
Y590000D01*
X3840000Y790000D02*
X3960000D01*
X4160000Y590000D01*
X3762234Y867766D02*
X3840000Y790000D01*
X3758286Y890000D02*
X3762234Y886052D01*
X3750000Y890000D02*
X3758286D01*
X3762234Y867766D02*
Y886052D01*
X3250000Y2112500D02*
Y2119800D01*
X3115878Y1978379D02*
X3250000Y2112500D01*
X3115878Y1824122D02*
Y1978379D01*
X2210000Y1049441D02*
X2250559Y1090000D01*
X2631757D01*
X2283389Y871610D02*
X2290000Y865000D01*
X2228389Y871610D02*
X2283389D01*
X2210000Y890000D02*
Y1049441D01*
Y890000D02*
X2228389Y871610D01*
X3014243Y1825757D02*
X3015879Y1824122D01*
X3013547Y1881287D02*
Y2112107D01*
X3014243Y1825757D02*
Y1880592D01*
X3013547Y1881287D02*
X3014243Y1880592D01*
X3041350Y2181350D02*
X3050000Y2190000D01*
X3041350Y2139909D02*
Y2181350D01*
X3013547Y2112107D02*
X3041350Y2139909D01*
X2965878Y1875056D02*
X2975447Y1884625D01*
X2965878Y1824122D02*
Y1875056D01*
X2958020Y2131979D02*
Y2181980D01*
X2975447Y1884625D02*
Y2114553D01*
X2958020Y2131979D02*
X2975447Y2114553D01*
X2950000Y2190000D02*
X2958020Y2181980D01*
X1909000Y334500D02*
X1923650Y349150D01*
Y368341D01*
X1950509Y395200D01*
X2025200D01*
X2330000Y700000D01*
X2620000D01*
X3515879Y1595879D02*
Y1824122D01*
X2620000Y700000D02*
X3515879Y1595879D01*
X2500000Y530000D02*
Y569910D01*
Y530000D02*
X2817385Y212616D01*
X3215879Y494121D02*
Y705879D01*
Y494121D02*
X3280000Y430000D01*
X2817385Y212616D02*
X3367469D01*
X3390000Y235147D01*
X3360116Y430000D02*
X3390000Y400116D01*
Y235147D02*
Y400116D01*
X3280000Y430000D02*
X3360116D01*
X4450000Y1630000D02*
Y1700000D01*
X4485685Y2114315D02*
X4550000Y2050000D01*
X4209657Y2114315D02*
X4485685D01*
X4550000Y1980000D02*
Y2050000D01*
X4650000Y1920219D02*
Y1980000D01*
Y1920219D02*
X4655220Y1915000D01*
X4665000D01*
X3000111Y2289890D02*
Y2350889D01*
Y2289890D02*
X3019500Y2270500D01*
X3000000Y2351000D02*
X3000111Y2350889D01*
X3019500Y2270500D02*
X3240300D01*
X3250000Y2280199D01*
X3019050Y2423391D02*
X3041350Y2401091D01*
Y2359650D02*
X3050000Y2351000D01*
X3041350Y2359650D02*
Y2401091D01*
X2950000Y2351000D02*
X2958650Y2359650D01*
Y2401091D02*
X2980950Y2423391D01*
X2958650Y2359650D02*
Y2401091D01*
X2980950Y2423391D02*
Y2448668D01*
X2950000Y2570000D02*
X2963450Y2556550D01*
Y2466168D02*
Y2556550D01*
Y2466168D02*
X2980950Y2448668D01*
X3001550Y2556550D02*
X3015000Y2570000D01*
X3001550Y2481950D02*
Y2556550D01*
Y2481950D02*
X3019050Y2464450D01*
Y2423391D02*
Y2464450D01*
X4610000Y2220000D02*
Y2300000D01*
X4610000Y2300000D01*
X3852501Y1915000D02*
X4385000D01*
X3712500Y2055000D02*
X3852501Y1915000D01*
X4525685Y2145685D02*
X4530000Y2150000D01*
X4091026Y2145685D02*
X4525685D01*
X4007671Y2062330D02*
X4091026Y2145685D01*
X4000000Y2062330D02*
X4007671D01*
X4157671D02*
X4209657Y2114315D01*
X4760000Y2220000D02*
Y2300000D01*
X4447671Y2062329D02*
X4497838Y2012162D01*
X4300000Y2062329D02*
X4447671D01*
X4497838Y1982162D02*
X4500000Y1980000D01*
X4497838Y1982162D02*
Y2012162D01*
X4150000Y2062330D02*
X4157671D01*
X3850000D02*
X3857671D01*
X3940001Y1980000D01*
X4450000D01*
X3700000Y2055000D02*
X3712500D01*
D54*
X3875000Y2652500D02*
D03*
D55*
X4125000D02*
D03*
D56*
X4490000Y1390000D02*
D03*
X950000Y2930000D02*
D03*
X4181431Y1168590D02*
D03*
X4295000Y1167500D02*
D03*
X4181431Y1271090D02*
D03*
X4290000Y1270000D02*
D03*
X2520000Y1440000D02*
D03*
X2100000Y800000D02*
D03*
X1660000Y820000D02*
D03*
X2390000Y1000000D02*
D03*
X660000Y1590000D02*
D03*
X570000Y2550000D02*
D03*
X2380000D02*
D03*
X2080000D02*
D03*
X850000D02*
D03*
X920000Y1590000D02*
D03*
X153098Y1284700D02*
D03*
X160000Y1500000D02*
D03*
X4360000Y860000D02*
D03*
X4160000Y737500D02*
D03*
X3720000Y1930000D02*
D03*
X3500000Y1980000D02*
D03*
X3630000Y1370000D02*
D03*
X3550000Y1190000D02*
D03*
X3500000Y890000D02*
D03*
X2670000Y2060000D02*
D03*
X2200000Y2000000D02*
D03*
X2100000Y1890000D02*
D03*
X2990000Y1460000D02*
D03*
X2874700Y1576902D02*
D03*
X2750000Y1400000D02*
D03*
X2870000Y1340000D02*
D03*
Y1120000D02*
D03*
X3090000Y1360000D02*
D03*
X3160000Y1490000D02*
D03*
X3320000Y1580000D02*
D03*
X3530000Y1500000D02*
D03*
X3330000Y1300000D02*
D03*
X3100000Y1070000D02*
D03*
X3120000Y860000D02*
D03*
X2880000Y870000D02*
D03*
X3180000Y290000D02*
D03*
X3010000D02*
D03*
X2840000D02*
D03*
X2560000Y390000D02*
D03*
X2190000Y420000D02*
D03*
X2070000Y310000D02*
D03*
X2360000Y440000D02*
D03*
X1840000Y1310000D02*
D03*
X1680000Y200000D02*
D03*
X2680000Y90000D02*
D03*
X2380000D02*
D03*
X3320000Y490000D02*
D03*
X3000000Y470000D02*
D03*
X3100000Y560000D02*
D03*
X3790000Y420000D02*
D03*
X3870000Y520000D02*
D03*
X4370000Y420000D02*
D03*
X4280000Y520000D02*
D03*
X3980000Y890000D02*
D03*
X4720000Y970000D02*
D03*
X4796069Y1154160D02*
D03*
X4810000Y1310000D02*
D03*
X2820000Y2690000D02*
D03*
Y2450000D02*
D03*
X3490000Y2280000D02*
D03*
X2880000Y2050000D02*
D03*
X3890000Y1450000D02*
D03*
X3980000Y1550000D02*
D03*
X4080000Y2260000D02*
D03*
X3780000D02*
D03*
X3930000D02*
D03*
X4230000D02*
D03*
X4735000Y1995000D02*
D03*
X4820000Y2080000D02*
D03*
X4375000Y1630000D02*
D03*
X4100000Y1630000D02*
D03*
X4810000Y1505000D02*
D03*
X4650000Y1630000D02*
D03*
X4240000Y1505000D02*
D03*
X4480000Y1880000D02*
D03*
X4570000D02*
D03*
Y1800000D02*
D03*
X4480000D02*
D03*
X1520000Y2405000D02*
D03*
X1369417Y2279656D02*
D03*
X1420000Y1780000D02*
D03*
X1630000D02*
D03*
X2010000Y1330000D02*
D03*
X2430000Y1160000D02*
D03*
X2010000Y1050000D02*
D03*
X2440000Y1780000D02*
D03*
X2140000Y1650000D02*
D03*
X776902Y1284700D02*
D03*
X830000Y980000D02*
D03*
X650000D02*
D03*
X505300Y1026902D02*
D03*
X640000Y1150000D02*
D03*
Y830000D02*
D03*
X1890000Y1750000D02*
D03*
X2080000Y2120000D02*
D03*
X1743098Y2085300D02*
D03*
X1380000Y2120000D02*
D03*
X1140000Y2110000D02*
D03*
X890000Y1880000D02*
D03*
X470000Y1290000D02*
D03*
X690000Y470000D02*
D03*
X390000Y920000D02*
D03*
X400000Y620000D02*
D03*
X1930000Y820000D02*
D03*
X1370000Y810000D02*
D03*
X1020000D02*
D03*
X1070000Y270000D02*
D03*
X2040000Y620000D02*
D03*
X1620000Y470000D02*
D03*
X580000Y2920000D02*
D03*
X1290000Y2940000D02*
D03*
X460000Y1750000D02*
D03*
X700000Y1960000D02*
D03*
X960000Y2170000D02*
D03*
X1900000Y2290000D02*
D03*
X2400000Y2300000D02*
D03*
X2760000Y2270000D02*
D03*
X4550000Y1630000D02*
D03*
D57*
X2525000Y2100000D02*
D03*
X2234904Y95097D02*
D03*
X2020000Y200000D02*
D03*
X160000Y760000D02*
D03*
Y1000000D02*
D03*
X2537452Y92548D02*
D03*
X2400000Y867452D02*
D03*
X898651Y1170606D02*
D03*
X1490000Y1310000D02*
D03*
X1350000Y1720000D02*
D03*
X1352548Y1922548D02*
D03*
X1587452Y1222548D02*
D03*
X2650000Y1960000D02*
D03*
X2857452Y472548D02*
D03*
X2760000Y560000D02*
D03*
X3460000Y490000D02*
D03*
X3880000Y180000D02*
D03*
X4280000D02*
D03*
X3792548Y277452D02*
D03*
X3530000Y280000D02*
D03*
X4370000D02*
D03*
X2757452Y2070000D02*
D03*
X3890000Y1130000D02*
D03*
Y1790000D02*
D03*
X3977452Y1692548D02*
D03*
X1930000Y1610000D02*
D03*
X2772700Y1213496D02*
D03*
X2520000Y1210000D02*
D03*
X2750000Y1290000D02*
D03*
X2530000Y1670000D02*
D03*
X2010000D02*
D03*
X4090000Y1780000D02*
D03*
Y1850000D02*
D03*
X4810000Y1935000D02*
D03*
X4450000Y1630000D02*
D03*
X4615000Y2525000D02*
D03*
X4650000Y1980000D02*
D03*
X4610000Y2220000D02*
D03*
X4665000Y1719050D02*
D03*
X4530000Y2150000D02*
D03*
X4760000Y2220000D02*
D03*
D58*
X250000Y250000D02*
D03*
X4750000Y250000D02*
D03*
Y2750000D02*
D03*
X250000D02*
D03*
%TF.MD5,9aa713eae4ad11557abd6820933002aa*%
M02*
