%TF.GenerationSoftware,Altium Limited,Altium Designer,26.3.0 (6)*%
G04 Layer_Color=255*
%FSLAX45Y45*%
%MOMM*%
%TF.SameCoordinates,27FE383B-3369-4B87-A22B-3F424D22D69C*%
%TF.FilePolarity,Positive*%
%TF.FileFunction,Pads,Top*%
%TF.Part,Single*%
G01*
G75*
%TA.AperFunction,SMDPad,CuDef*%
%ADD11C,1.00000*%
%ADD12R,1.05524X0.91213*%
%ADD13R,1.91000X1.00000*%
%ADD14R,0.42000X0.62500*%
%ADD15R,1.15814X1.01213*%
%TA.AperFunction,BGAPad,CuDef*%
%ADD16R,0.43180X0.43180*%
%ADD17R,0.43180X0.43180*%
%TA.AperFunction,SMDPad,CuDef*%
%ADD18R,0.91213X1.05524*%
G04:AMPARAMS|DCode=19|XSize=0.21247mm|YSize=1.18828mm|CornerRadius=0.10624mm|HoleSize=0mm|Usage=FLASHONLY|Rotation=90.000|XOffset=0mm|YOffset=0mm|HoleType=Round|Shape=RoundedRectangle|*
%AMROUNDEDRECTD19*
21,1,0.21247,0.97581,0,0,90.0*
21,1,0.00000,1.18828,0,0,90.0*
1,1,0.21247,0.48791,0.00000*
1,1,0.21247,0.48791,0.00000*
1,1,0.21247,-0.48791,0.00000*
1,1,0.21247,-0.48791,0.00000*
%
%ADD19ROUNDEDRECTD19*%
%ADD20R,0.70000X1.60000*%
%ADD21R,1.01213X1.15814*%
%ADD22R,0.75000X1.00000*%
%ADD23R,0.35000X0.30000*%
%ADD24R,0.21247X1.18828*%
G04:AMPARAMS|DCode=25|XSize=1.18828mm|YSize=0.21247mm|CornerRadius=0.10624mm|HoleSize=0mm|Usage=FLASHONLY|Rotation=90.000|XOffset=0mm|YOffset=0mm|HoleType=Round|Shape=RoundedRectangle|*
%AMROUNDEDRECTD25*
21,1,1.18828,0.00000,0,0,90.0*
21,1,0.97581,0.21247,0,0,90.0*
1,1,0.21247,0.00000,0.48791*
1,1,0.21247,0.00000,-0.48791*
1,1,0.21247,0.00000,-0.48791*
1,1,0.21247,0.00000,0.48791*
%
%ADD25ROUNDEDRECTD25*%
%ADD26R,1.65000X1.45000*%
%ADD27R,0.60000X1.60000*%
%ADD28R,0.75814X0.81213*%
%ADD29R,2.00000X2.00000*%
%ADD30R,1.00000X0.75000*%
%ADD31R,0.30000X0.99000*%
%ADD32R,0.81213X0.65872*%
%ADD33O,0.24000X0.60000*%
%ADD34O,0.60000X0.24000*%
%ADD35R,0.45000X1.38000*%
%ADD36R,1.20000X2.20000*%
%ADD37R,1.60000X1.50000*%
%TA.AperFunction,SMDPad,SMDef*%
%ADD38C,0.28000*%
%TA.AperFunction,SMDPad,CuDef*%
%ADD39R,1.68000X1.68000*%
%ADD40R,0.30000X0.35000*%
%TA.AperFunction,ConnectorPad*%
%ADD41R,0.80000X1.00000*%
%TA.AperFunction,SMDPad,CuDef*%
%ADD42R,0.80000X1.00000*%
%ADD43R,0.70000X1.50000*%
G04:AMPARAMS|DCode=44|XSize=2mm|YSize=3.4mm|CornerRadius=0mm|HoleSize=0mm|Usage=FLASHONLY|Rotation=0.000|XOffset=0mm|YOffset=0mm|HoleType=Round|Shape=Octagon|*
%AMOCTAGOND44*
4,1,8,-0.50000,1.70000,0.50000,1.70000,1.00000,1.20000,1.00000,-1.20000,0.50000,-1.70000,-0.50000,-1.70000,-1.00000,-1.20000,-1.00000,1.20000,-0.50000,1.70000,0.0*
%
%ADD44OCTAGOND44*%

%ADD45R,0.60000X0.80000*%
%ADD46R,0.70000X0.70000*%
%ADD47R,1.65000X1.30000*%
%ADD48R,1.80000X1.90000*%
%ADD49R,1.42500X1.55000*%
%ADD50R,1.00000X1.90000*%
%TA.AperFunction,ComponentPad*%
%ADD54R,1.55000X1.55000*%
%ADD55C,1.55000*%
D11*
X4875000Y600000D02*
D03*
X125000Y2400000D02*
D03*
Y575000D02*
D03*
D12*
X1922548Y200000D02*
D03*
X2234904Y190000D02*
D03*
X2537452D02*
D03*
X1587452Y1310000D02*
D03*
X2857452Y560000D02*
D03*
X3462548Y570000D02*
D03*
X2757452Y1960000D02*
D03*
X2902548D02*
D03*
X3317452Y570000D02*
D03*
X3002548Y560000D02*
D03*
X1732548Y1310000D02*
D03*
X2682548Y190000D02*
D03*
X2380000D02*
D03*
X1777452Y200000D02*
D03*
D13*
X159940Y878469D02*
D03*
Y1894469D02*
D03*
Y1386469D02*
D03*
X488940Y1640469D02*
D03*
Y2148469D02*
D03*
Y1132469D02*
D03*
D14*
X1969000Y334500D02*
D03*
X1909000Y445500D02*
D03*
X1969000D02*
D03*
X1909000Y334500D02*
D03*
D15*
X1009801Y1040000D02*
D03*
X1006558Y1170606D02*
D03*
Y1300000D02*
D03*
X1170200Y1040000D02*
D03*
X1166957Y1300000D02*
D03*
Y1170606D02*
D03*
D16*
X2340090Y330000D02*
D03*
X2579910D02*
D03*
X2340090Y570000D02*
D03*
X2579910D02*
D03*
D17*
X2500000Y330090D02*
D03*
X2420000Y569910D02*
D03*
Y330090D02*
D03*
X2500000Y569910D02*
D03*
D18*
X2490000Y867452D02*
D03*
X3880000Y277452D02*
D03*
X4280000Y280000D02*
D03*
X3890000Y1032548D02*
D03*
Y1692548D02*
D03*
X640000Y177452D02*
D03*
X3890000Y1547452D02*
D03*
X4280000Y425096D02*
D03*
X3890000Y887452D02*
D03*
X3880000Y422548D02*
D03*
X2490000Y1012548D02*
D03*
X640000Y322548D02*
D03*
D19*
X2631757Y890000D02*
D03*
X3750000Y1640000D02*
D03*
Y990000D02*
D03*
X2631757Y1390000D02*
D03*
Y1440000D02*
D03*
Y1540000D02*
D03*
Y1490000D02*
D03*
X3750000Y1590000D02*
D03*
Y940000D02*
D03*
X2631757D02*
D03*
Y1140000D02*
D03*
Y1190000D02*
D03*
Y1240000D02*
D03*
Y1640000D02*
D03*
Y1340000D02*
D03*
X3750000Y1040000D02*
D03*
Y1240000D02*
D03*
Y1290000D02*
D03*
Y1340000D02*
D03*
Y1390000D02*
D03*
Y1440000D02*
D03*
Y1490000D02*
D03*
Y1540000D02*
D03*
X2631757Y1590000D02*
D03*
Y1290000D02*
D03*
Y1040000D02*
D03*
Y990000D02*
D03*
X3750000Y1090000D02*
D03*
Y890000D02*
D03*
Y1140000D02*
D03*
Y1190000D02*
D03*
X2631757Y1090000D02*
D03*
D20*
X1545000Y1490000D02*
D03*
X1985000D02*
D03*
X1435000D02*
D03*
X1875000D02*
D03*
X1655000D02*
D03*
X1215000D02*
D03*
X1325000D02*
D03*
X1765000D02*
D03*
X2095000D02*
D03*
D21*
X2320000Y2130199D02*
D03*
X2450000D02*
D03*
X2320000Y1969800D02*
D03*
X2450000D02*
D03*
X3390000Y2280199D02*
D03*
Y2119800D02*
D03*
X3250000D02*
D03*
Y2280199D02*
D03*
D22*
X3465000Y352616D02*
D03*
Y212616D02*
D03*
X3315000Y352616D02*
D03*
Y212616D02*
D03*
D23*
X4160000Y280000D02*
D03*
X4005000Y330000D02*
D03*
X4160000Y380000D02*
D03*
Y330000D02*
D03*
X4005000Y380000D02*
D03*
Y430000D02*
D03*
X4160000D02*
D03*
X4005000Y280000D02*
D03*
D24*
X2815879Y705879D02*
D03*
D25*
X3415879D02*
D03*
X2815879Y1824122D02*
D03*
X3215879D02*
D03*
X3265879D02*
D03*
X3115878Y705879D02*
D03*
X2865878Y1824122D02*
D03*
X3365878Y705879D02*
D03*
X2915879Y1824122D02*
D03*
X2965878Y705879D02*
D03*
X3265879D02*
D03*
X3315879D02*
D03*
X3465879D02*
D03*
X3515879D02*
D03*
X3565879Y1824122D02*
D03*
X3465879D02*
D03*
X3365878D02*
D03*
X3315879D02*
D03*
X3165879D02*
D03*
X3065879D02*
D03*
X3015879Y705879D02*
D03*
X3065879D02*
D03*
X2915879D02*
D03*
X2865878D02*
D03*
X3565879D02*
D03*
X3515879Y1824122D02*
D03*
X3415879D02*
D03*
X3115878D02*
D03*
X2965878D02*
D03*
X3015879D02*
D03*
X3165879Y705879D02*
D03*
X3215879D02*
D03*
D26*
X4160000Y1045000D02*
D03*
Y860000D02*
D03*
X4810000Y1627500D02*
D03*
X4240000D02*
D03*
Y1812500D02*
D03*
X4810000D02*
D03*
D27*
X4398569Y1138910D02*
D03*
X4698569D02*
D03*
D28*
X4367301Y1310000D02*
D03*
X4732699Y2080000D02*
D03*
Y1310000D02*
D03*
X4492699D02*
D03*
X4607301D02*
D03*
Y2080000D02*
D03*
D29*
X1450000Y500000D02*
D03*
X850000D02*
D03*
D30*
X2290000Y1015000D02*
D03*
X3700000Y2205000D02*
D03*
X2290000Y865000D02*
D03*
X3700000Y2055000D02*
D03*
D31*
X3000000Y2190000D02*
D03*
X3050000D02*
D03*
X2950000D02*
D03*
X3050000Y2351000D02*
D03*
X2950000D02*
D03*
X3000000D02*
D03*
D32*
X4150000Y2197671D02*
D03*
X4300000Y2197671D02*
D03*
X4000000Y2197671D02*
D03*
X3850000D02*
D03*
X4000000Y2062330D02*
D03*
X3850000D02*
D03*
X4150000D02*
D03*
X4300000Y2062329D02*
D03*
D33*
X4600000Y1700000D02*
D03*
X4500000D02*
D03*
X4450000D02*
D03*
X4600000Y1980000D02*
D03*
X4450000D02*
D03*
X4500000D02*
D03*
X4550000D02*
D03*
Y1700000D02*
D03*
D34*
X4385000Y1765000D02*
D03*
Y1865000D02*
D03*
Y1815000D02*
D03*
X4665000Y1865000D02*
D03*
Y1815000D02*
D03*
Y1915000D02*
D03*
Y1765000D02*
D03*
X4385000Y1915000D02*
D03*
D35*
X2820000Y2570000D02*
D03*
X3015000D02*
D03*
X2950000D02*
D03*
X2885000D02*
D03*
X3080000D02*
D03*
D36*
X2250000Y2550000D02*
D03*
Y1600000D02*
D03*
X700000Y2550000D02*
D03*
D37*
X790000Y1595000D02*
D03*
D38*
X1853500Y390000D02*
D03*
D39*
X4525000Y1840000D02*
D03*
D40*
X4057500Y280000D02*
D03*
Y430000D02*
D03*
X4107500Y280000D02*
D03*
Y430000D02*
D03*
D41*
X4760000Y2430000D02*
D03*
X4910000D02*
D03*
D42*
X4615000D02*
D03*
X4465000D02*
D03*
D43*
X4548569Y1143910D02*
D03*
D44*
Y898910D02*
D03*
D45*
X3405000Y2410000D02*
D03*
X3235000D02*
D03*
D46*
X4760000Y2300000D02*
D03*
X4610000D02*
D03*
X4470000D02*
D03*
X4900000D02*
D03*
D47*
X2612500Y2836000D02*
D03*
X3287500D02*
D03*
D48*
X3065000D02*
D03*
D49*
X3198750Y2570000D02*
D03*
X2701250D02*
D03*
D50*
X2795000Y2836000D02*
D03*
D54*
X3875000Y2652500D02*
D03*
D55*
X4125000D02*
D03*
%TF.MD5,b1010c54da17eaf46d0a1ec3ff1b18f8*%
M02*
