%TF.GenerationSoftware,Altium Limited,Altium Designer,26.3.0 (6)*%
G04 Layer_Color=32768*
%FSLAX45Y45*%
%MOMM*%
%TF.SameCoordinates,27FE383B-3369-4B87-A22B-3F424D22D69C*%
%TF.FilePolarity,Positive*%
%TF.FileFunction,Other,Top_Component_Outline*%
%TF.Part,Single*%
G01*
G75*
%TA.AperFunction,NonConductor*%
%ADD70C,0.10000*%
D70*
X199440Y2300469D02*
X449440D01*
Y2173469D02*
X526940D01*
Y2123469D02*
Y2173469D01*
X449440Y2123469D02*
X526940D01*
X121940Y1919469D02*
X199440D01*
X121940Y1869469D02*
Y1919469D01*
Y1869469D02*
X199440D01*
X449440Y1665469D02*
X526940D01*
Y1615469D02*
Y1665469D01*
X449440Y1615469D02*
X526940D01*
X449440Y726469D02*
Y2300469D01*
X199440Y726469D02*
Y2300469D01*
X121940Y1411469D02*
X199440D01*
X121940Y1361469D02*
Y1411469D01*
Y1361469D02*
X199440D01*
X449440Y1157469D02*
X526940D01*
Y1107469D02*
Y1157469D01*
X449440Y1107469D02*
X526940D01*
X121940Y903469D02*
X199440D01*
X121940Y853469D02*
Y903469D01*
Y853469D02*
X199440D01*
Y726469D02*
X449440D01*
%TF.MD5,f65292f497c20b569df19892d99c2456*%
M02*
