%TF.GenerationSoftware,Altium Limited,Altium Designer,26.3.0 (6)*%
G04 Layer_Color=32896*
%FSLAX45Y45*%
%MOMM*%
%TF.SameCoordinates,27FE383B-3369-4B87-A22B-3F424D22D69C*%
%TF.FilePolarity,Positive*%
%TF.FileFunction,Other,Bottom_Assembly*%
%TF.Part,Single*%
G01*
G75*
%TA.AperFunction,NonConductor*%
%ADD67C,0.20000*%
%ADD103C,0.01000*%
G36*
X1489768Y1549816D02*
X1493004Y1549446D01*
X1495870Y1548984D01*
X1497257Y1548614D01*
X1498459Y1548337D01*
X1499568Y1548060D01*
X1500585Y1547690D01*
X1501510Y1547412D01*
X1502249Y1547228D01*
X1502804Y1546950D01*
X1503266Y1546858D01*
X1503544Y1546673D01*
X1503636D01*
X1506410Y1545286D01*
X1508906Y1543714D01*
X1511033Y1542050D01*
X1511865Y1541218D01*
X1512697Y1540478D01*
X1513436Y1539739D01*
X1514084Y1538999D01*
X1514638Y1538352D01*
X1515008Y1537797D01*
X1515378Y1537427D01*
X1515655Y1537057D01*
X1515748Y1536872D01*
X1515840Y1536780D01*
X1516580Y1535486D01*
X1517227Y1534191D01*
X1518244Y1531418D01*
X1518984Y1528644D01*
X1519446Y1525963D01*
X1519631Y1524668D01*
X1519816Y1523559D01*
X1519908Y1522542D01*
Y1521710D01*
X1520001Y1520970D01*
Y1519953D01*
X1519908Y1518104D01*
X1519723Y1516347D01*
X1519538Y1514683D01*
X1519169Y1513111D01*
X1518706Y1511632D01*
X1518244Y1510245D01*
X1517782Y1508951D01*
X1517227Y1507749D01*
X1516765Y1506732D01*
X1516303Y1505715D01*
X1515840Y1504975D01*
X1515378Y1504235D01*
X1515008Y1503773D01*
X1514823Y1503311D01*
X1514638Y1503126D01*
X1514546Y1503034D01*
X1513436Y1501739D01*
X1512327Y1500630D01*
X1511033Y1499613D01*
X1509738Y1498596D01*
X1507149Y1496931D01*
X1504561Y1495637D01*
X1503359Y1495082D01*
X1502249Y1494620D01*
X1501232Y1494250D01*
X1500400Y1493973D01*
X1499660Y1493696D01*
X1499106Y1493511D01*
X1498736Y1493418D01*
X1498643D01*
X1496517Y1501924D01*
X1497996Y1502294D01*
X1499383Y1502756D01*
X1500677Y1503218D01*
X1501879Y1503681D01*
X1502989Y1504235D01*
X1503913Y1504790D01*
X1504838Y1505437D01*
X1505670Y1505992D01*
X1506410Y1506454D01*
X1506964Y1507009D01*
X1507519Y1507471D01*
X1507981Y1507841D01*
X1508259Y1508211D01*
X1508536Y1508488D01*
X1508629Y1508581D01*
X1508721Y1508673D01*
X1509461Y1509598D01*
X1510016Y1510615D01*
X1511033Y1512649D01*
X1511772Y1514591D01*
X1512234Y1516532D01*
X1512604Y1518196D01*
X1512697Y1518844D01*
Y1519491D01*
X1512789Y1520045D01*
Y1520693D01*
X1512697Y1522819D01*
X1512327Y1524853D01*
X1511865Y1526702D01*
X1511310Y1528367D01*
X1510755Y1529661D01*
X1510478Y1530216D01*
X1510293Y1530678D01*
X1510108Y1531048D01*
X1509923Y1531325D01*
X1509831Y1531510D01*
Y1531602D01*
X1508536Y1533359D01*
X1507149Y1534838D01*
X1505578Y1536133D01*
X1504098Y1537150D01*
X1502804Y1537982D01*
X1501694Y1538537D01*
X1501232Y1538722D01*
X1500955Y1538906D01*
X1500770Y1538999D01*
X1500677D01*
X1498274Y1539739D01*
X1495870Y1540293D01*
X1493466Y1540756D01*
X1491247Y1541033D01*
X1490230Y1541125D01*
X1489305Y1541218D01*
X1488473D01*
X1487826Y1541310D01*
X1487271D01*
X1486809D01*
X1486532D01*
X1486439D01*
X1484035Y1541218D01*
X1481816Y1541033D01*
X1479782Y1540663D01*
X1477933Y1540293D01*
X1476362Y1540016D01*
X1475714Y1539831D01*
X1475160Y1539646D01*
X1474697Y1539554D01*
X1474420Y1539461D01*
X1474235Y1539369D01*
X1474143D01*
X1472016Y1538444D01*
X1470075Y1537427D01*
X1468503Y1536318D01*
X1467116Y1535116D01*
X1466006Y1534099D01*
X1465267Y1533267D01*
X1464805Y1532619D01*
X1464620Y1532527D01*
Y1532435D01*
X1463418Y1530493D01*
X1462493Y1528367D01*
X1461846Y1526332D01*
X1461476Y1524391D01*
X1461199Y1522634D01*
X1461106Y1521895D01*
Y1521247D01*
X1461014Y1520785D01*
Y1520045D01*
X1461106Y1517734D01*
X1461476Y1515608D01*
X1462031Y1513851D01*
X1462586Y1512279D01*
X1463233Y1511077D01*
X1463695Y1510153D01*
X1464065Y1509598D01*
X1464250Y1509413D01*
X1465637Y1507934D01*
X1467208Y1506547D01*
X1468873Y1505437D01*
X1470537Y1504513D01*
X1472016Y1503773D01*
X1472756Y1503496D01*
X1473310Y1503311D01*
X1473773Y1503126D01*
X1474143Y1502941D01*
X1474328Y1502849D01*
X1474420D01*
X1472478Y1494528D01*
X1470814Y1495082D01*
X1469335Y1495637D01*
X1467948Y1496377D01*
X1466561Y1497024D01*
X1465359Y1497764D01*
X1464250Y1498596D01*
X1463140Y1499335D01*
X1462216Y1500075D01*
X1461476Y1500815D01*
X1460736Y1501462D01*
X1460089Y1502109D01*
X1459627Y1502571D01*
X1459165Y1503034D01*
X1458887Y1503403D01*
X1458795Y1503588D01*
X1458702Y1503681D01*
X1457870Y1504975D01*
X1457038Y1506270D01*
X1456391Y1507564D01*
X1455836Y1508951D01*
X1455004Y1511724D01*
X1454449Y1514221D01*
X1454172Y1515423D01*
X1454080Y1516440D01*
X1453987Y1517457D01*
X1453895Y1518289D01*
X1453802Y1518936D01*
Y1519861D01*
X1453987Y1522912D01*
X1454449Y1525870D01*
X1455004Y1528459D01*
X1455374Y1529661D01*
X1455744Y1530770D01*
X1456114Y1531787D01*
X1456483Y1532712D01*
X1456761Y1533452D01*
X1457038Y1534191D01*
X1457316Y1534654D01*
X1457501Y1535023D01*
X1457593Y1535301D01*
X1457685Y1535393D01*
X1459257Y1537889D01*
X1461106Y1540016D01*
X1462955Y1541865D01*
X1464805Y1543437D01*
X1466469Y1544639D01*
X1467208Y1545101D01*
X1467856Y1545471D01*
X1468318Y1545841D01*
X1468688Y1546026D01*
X1468965Y1546118D01*
X1469058Y1546211D01*
X1471924Y1547505D01*
X1474882Y1548429D01*
X1477841Y1549077D01*
X1480522Y1549539D01*
X1481724Y1549724D01*
X1482926Y1549816D01*
X1483850Y1549909D01*
X1484775D01*
X1485422Y1550001D01*
X1485977D01*
X1486347D01*
X1486439D01*
X1489768Y1549816D01*
D02*
G37*
G36*
X1477748Y1478810D02*
X1477101Y1477423D01*
X1476454Y1476036D01*
X1475807Y1474742D01*
X1475252Y1473633D01*
X1474790Y1472708D01*
X1474420Y1472153D01*
X1474328Y1472061D01*
Y1471968D01*
X1473310Y1470304D01*
X1472293Y1468825D01*
X1471369Y1467530D01*
X1470537Y1466513D01*
X1469890Y1465589D01*
X1469335Y1465034D01*
X1468965Y1464572D01*
X1468873Y1464479D01*
X1518891D01*
Y1456621D01*
X1454634D01*
Y1461706D01*
X1456206Y1462630D01*
X1457685Y1463647D01*
X1459165Y1464849D01*
X1460459Y1465959D01*
X1461569Y1467068D01*
X1462493Y1467900D01*
X1462771Y1468270D01*
X1463048Y1468547D01*
X1463140Y1468640D01*
X1463233Y1468732D01*
X1464805Y1470674D01*
X1466284Y1472616D01*
X1467578Y1474465D01*
X1468595Y1476314D01*
X1469520Y1477886D01*
X1469890Y1478533D01*
X1470167Y1479087D01*
X1470444Y1479550D01*
X1470537Y1479920D01*
X1470722Y1480104D01*
Y1480197D01*
X1478303D01*
X1477748Y1478810D01*
D02*
G37*
G36*
X1503451Y1436188D02*
X1504838Y1435911D01*
X1507427Y1435078D01*
X1509646Y1434061D01*
X1510570Y1433507D01*
X1511495Y1432952D01*
X1512327Y1432397D01*
X1512974Y1431842D01*
X1513621Y1431380D01*
X1514084Y1430918D01*
X1514453Y1430641D01*
X1514731Y1430363D01*
X1514916Y1430178D01*
X1515008Y1430086D01*
X1515840Y1428976D01*
X1516672Y1427867D01*
X1517320Y1426757D01*
X1517874Y1425555D01*
X1518799Y1423244D01*
X1519354Y1421025D01*
X1519538Y1420008D01*
X1519723Y1419084D01*
X1519816Y1418251D01*
X1519908Y1417512D01*
X1520001Y1416957D01*
Y1416125D01*
X1519908Y1414368D01*
X1519723Y1412797D01*
X1519446Y1411225D01*
X1519076Y1409745D01*
X1518614Y1408359D01*
X1518152Y1407157D01*
X1517597Y1405955D01*
X1517042Y1404938D01*
X1516580Y1403921D01*
X1516025Y1403089D01*
X1515563Y1402349D01*
X1515101Y1401794D01*
X1514731Y1401332D01*
X1514453Y1400962D01*
X1514268Y1400777D01*
X1514176Y1400685D01*
X1513067Y1399575D01*
X1511865Y1398651D01*
X1510663Y1397819D01*
X1509461Y1397079D01*
X1508351Y1396524D01*
X1507149Y1395970D01*
X1504930Y1395230D01*
X1503913Y1395045D01*
X1502989Y1394860D01*
X1502157Y1394675D01*
X1501417Y1394583D01*
X1500862Y1394490D01*
X1500400D01*
X1500123D01*
X1500030D01*
X1497811Y1394583D01*
X1495777Y1394953D01*
X1494021Y1395507D01*
X1492541Y1396062D01*
X1491339Y1396617D01*
X1490415Y1397171D01*
X1489860Y1397541D01*
X1489675Y1397634D01*
X1488288Y1398928D01*
X1487086Y1400315D01*
X1486162Y1401794D01*
X1485422Y1403274D01*
X1484867Y1404568D01*
X1484498Y1405585D01*
X1484405Y1405955D01*
X1484313Y1406232D01*
X1484220Y1406417D01*
Y1406510D01*
X1483388Y1404938D01*
X1482556Y1403643D01*
X1481632Y1402534D01*
X1480799Y1401609D01*
X1480060Y1400870D01*
X1479413Y1400315D01*
X1479043Y1400038D01*
X1478858Y1399945D01*
X1477563Y1399205D01*
X1476269Y1398651D01*
X1474975Y1398188D01*
X1473773Y1397911D01*
X1472756Y1397726D01*
X1472016Y1397634D01*
X1471461D01*
X1471276D01*
X1469705Y1397726D01*
X1468133Y1398004D01*
X1466746Y1398373D01*
X1465544Y1398836D01*
X1464527Y1399298D01*
X1463695Y1399668D01*
X1463233Y1399945D01*
X1463048Y1400038D01*
X1461661Y1400962D01*
X1460459Y1402072D01*
X1459442Y1403181D01*
X1458518Y1404291D01*
X1457870Y1405215D01*
X1457316Y1406047D01*
X1457038Y1406602D01*
X1456946Y1406694D01*
Y1406787D01*
X1456206Y1408451D01*
X1455651Y1410115D01*
X1455189Y1411779D01*
X1454912Y1413259D01*
X1454727Y1414461D01*
X1454634Y1415478D01*
Y1417789D01*
X1454819Y1419084D01*
X1455282Y1421580D01*
X1456021Y1423706D01*
X1456761Y1425555D01*
X1457223Y1426388D01*
X1457593Y1427035D01*
X1457963Y1427682D01*
X1458333Y1428144D01*
X1458610Y1428514D01*
X1458795Y1428791D01*
X1458887Y1428976D01*
X1458980Y1429069D01*
X1460736Y1430825D01*
X1462678Y1432212D01*
X1464712Y1433322D01*
X1466746Y1434246D01*
X1468503Y1434801D01*
X1469242Y1435078D01*
X1469890Y1435263D01*
X1470444Y1435356D01*
X1470814Y1435448D01*
X1471092Y1435541D01*
X1471184D01*
X1472571Y1427682D01*
X1470537Y1427312D01*
X1468780Y1426757D01*
X1467301Y1426110D01*
X1466099Y1425463D01*
X1465174Y1424816D01*
X1464527Y1424261D01*
X1464065Y1423891D01*
X1463972Y1423799D01*
X1463048Y1422597D01*
X1462308Y1421302D01*
X1461846Y1420101D01*
X1461476Y1418899D01*
X1461291Y1417789D01*
X1461106Y1416957D01*
Y1416217D01*
X1461199Y1414553D01*
X1461569Y1413074D01*
X1462031Y1411779D01*
X1462493Y1410670D01*
X1463048Y1409838D01*
X1463510Y1409191D01*
X1463880Y1408728D01*
X1463972Y1408636D01*
X1465082Y1407619D01*
X1466284Y1406879D01*
X1467486Y1406417D01*
X1468595Y1406047D01*
X1469612Y1405862D01*
X1470352Y1405677D01*
X1470907D01*
X1470999D01*
X1471092D01*
X1472109D01*
X1473033Y1405862D01*
X1474605Y1406325D01*
X1475992Y1406972D01*
X1477194Y1407711D01*
X1478026Y1408451D01*
X1478673Y1409098D01*
X1479043Y1409561D01*
X1479135Y1409653D01*
Y1409745D01*
X1479967Y1411317D01*
X1480615Y1412797D01*
X1481077Y1414368D01*
X1481354Y1415755D01*
X1481539Y1416957D01*
X1481724Y1417974D01*
Y1419176D01*
X1481632Y1419546D01*
Y1420008D01*
X1488566Y1420933D01*
X1488288Y1419731D01*
X1488103Y1418621D01*
X1487919Y1417697D01*
X1487826Y1416865D01*
X1487734Y1416217D01*
Y1415385D01*
X1487919Y1413444D01*
X1488288Y1411687D01*
X1488843Y1410115D01*
X1489490Y1408821D01*
X1490137Y1407804D01*
X1490692Y1407064D01*
X1491062Y1406602D01*
X1491247Y1406417D01*
X1492634Y1405215D01*
X1494113Y1404291D01*
X1495592Y1403643D01*
X1497072Y1403274D01*
X1498274Y1402996D01*
X1499291Y1402904D01*
X1499660Y1402811D01*
X1499938D01*
X1500123D01*
X1500215D01*
X1502249Y1402996D01*
X1504098Y1403458D01*
X1505670Y1404013D01*
X1507057Y1404753D01*
X1508166Y1405492D01*
X1508999Y1406047D01*
X1509553Y1406510D01*
X1509738Y1406694D01*
X1511033Y1408174D01*
X1511957Y1409745D01*
X1512604Y1411317D01*
X1513067Y1412797D01*
X1513344Y1414091D01*
X1513436Y1415108D01*
X1513529Y1415478D01*
Y1416032D01*
X1513436Y1417697D01*
X1513067Y1419268D01*
X1512604Y1420655D01*
X1512050Y1421765D01*
X1511587Y1422689D01*
X1511125Y1423429D01*
X1510755Y1423799D01*
X1510663Y1423984D01*
X1509368Y1425093D01*
X1507889Y1426018D01*
X1506317Y1426850D01*
X1504653Y1427497D01*
X1503266Y1427959D01*
X1502619Y1428144D01*
X1502064Y1428237D01*
X1501602Y1428329D01*
X1501232Y1428422D01*
X1501047Y1428514D01*
X1500955D01*
X1501972Y1436373D01*
X1503451Y1436188D01*
D02*
G37*
G36*
X1319768Y1539817D02*
X1323004Y1539447D01*
X1325870Y1538984D01*
X1327257Y1538615D01*
X1328459Y1538337D01*
X1329568Y1538060D01*
X1330585Y1537690D01*
X1331510Y1537413D01*
X1332250Y1537228D01*
X1332804Y1536950D01*
X1333267Y1536858D01*
X1333544Y1536673D01*
X1333636D01*
X1336410Y1535286D01*
X1338906Y1533714D01*
X1341033Y1532050D01*
X1341865Y1531218D01*
X1342697Y1530479D01*
X1343437Y1529739D01*
X1344084Y1528999D01*
X1344639Y1528352D01*
X1345008Y1527797D01*
X1345378Y1527427D01*
X1345656Y1527058D01*
X1345748Y1526873D01*
X1345841Y1526780D01*
X1346580Y1525486D01*
X1347227Y1524192D01*
X1348244Y1521418D01*
X1348984Y1518644D01*
X1349446Y1515963D01*
X1349631Y1514669D01*
X1349816Y1513559D01*
X1349909Y1512542D01*
Y1511710D01*
X1350001Y1510970D01*
Y1509953D01*
X1349909Y1508104D01*
X1349724Y1506348D01*
X1349539Y1504683D01*
X1349169Y1503112D01*
X1348707Y1501632D01*
X1348244Y1500245D01*
X1347782Y1498951D01*
X1347227Y1497749D01*
X1346765Y1496732D01*
X1346303Y1495715D01*
X1345841Y1494975D01*
X1345378Y1494236D01*
X1345008Y1493773D01*
X1344824Y1493311D01*
X1344639Y1493126D01*
X1344546Y1493034D01*
X1343437Y1491739D01*
X1342327Y1490630D01*
X1341033Y1489613D01*
X1339738Y1488596D01*
X1337150Y1486932D01*
X1334561Y1485637D01*
X1333359Y1485083D01*
X1332250Y1484620D01*
X1331233Y1484251D01*
X1330400Y1483973D01*
X1329661Y1483696D01*
X1329106Y1483511D01*
X1328736Y1483418D01*
X1328644D01*
X1326517Y1491924D01*
X1327997Y1492294D01*
X1329383Y1492756D01*
X1330678Y1493219D01*
X1331880Y1493681D01*
X1332989Y1494236D01*
X1333914Y1494791D01*
X1334838Y1495438D01*
X1335670Y1495992D01*
X1336410Y1496455D01*
X1336965Y1497009D01*
X1337520Y1497472D01*
X1337982Y1497842D01*
X1338259Y1498211D01*
X1338537Y1498489D01*
X1338629Y1498581D01*
X1338721Y1498674D01*
X1339461Y1499598D01*
X1340016Y1500615D01*
X1341033Y1502649D01*
X1341773Y1504591D01*
X1342235Y1506532D01*
X1342605Y1508197D01*
X1342697Y1508844D01*
Y1509491D01*
X1342790Y1510046D01*
Y1510693D01*
X1342697Y1512819D01*
X1342327Y1514853D01*
X1341865Y1516703D01*
X1341310Y1518367D01*
X1340756Y1519661D01*
X1340478Y1520216D01*
X1340293Y1520678D01*
X1340108Y1521048D01*
X1339923Y1521325D01*
X1339831Y1521510D01*
Y1521603D01*
X1338537Y1523359D01*
X1337150Y1524839D01*
X1335578Y1526133D01*
X1334099Y1527150D01*
X1332804Y1527982D01*
X1331695Y1528537D01*
X1331233Y1528722D01*
X1330955Y1528907D01*
X1330770Y1528999D01*
X1330678D01*
X1328274Y1529739D01*
X1325870Y1530294D01*
X1323466Y1530756D01*
X1321247Y1531033D01*
X1320230Y1531126D01*
X1319306Y1531218D01*
X1318474D01*
X1317826Y1531311D01*
X1317272D01*
X1316809D01*
X1316532D01*
X1316440D01*
X1314036Y1531218D01*
X1311817Y1531033D01*
X1309783Y1530663D01*
X1307934Y1530294D01*
X1306362Y1530016D01*
X1305715Y1529831D01*
X1305160Y1529646D01*
X1304698Y1529554D01*
X1304420Y1529462D01*
X1304235Y1529369D01*
X1304143D01*
X1302016Y1528444D01*
X1300075Y1527427D01*
X1298503Y1526318D01*
X1297116Y1525116D01*
X1296007Y1524099D01*
X1295267Y1523267D01*
X1294805Y1522620D01*
X1294620Y1522527D01*
Y1522435D01*
X1293418Y1520493D01*
X1292493Y1518367D01*
X1291846Y1516333D01*
X1291476Y1514391D01*
X1291199Y1512635D01*
X1291107Y1511895D01*
Y1511248D01*
X1291014Y1510785D01*
Y1510046D01*
X1291107Y1507734D01*
X1291476Y1505608D01*
X1292031Y1503851D01*
X1292586Y1502279D01*
X1293233Y1501078D01*
X1293695Y1500153D01*
X1294065Y1499598D01*
X1294250Y1499413D01*
X1295637Y1497934D01*
X1297209Y1496547D01*
X1298873Y1495438D01*
X1300537Y1494513D01*
X1302016Y1493773D01*
X1302756Y1493496D01*
X1303311Y1493311D01*
X1303773Y1493126D01*
X1304143Y1492941D01*
X1304328Y1492849D01*
X1304420D01*
X1302479Y1484528D01*
X1300815Y1485083D01*
X1299335Y1485637D01*
X1297948Y1486377D01*
X1296562Y1487024D01*
X1295360Y1487764D01*
X1294250Y1488596D01*
X1293141Y1489336D01*
X1292216Y1490075D01*
X1291476Y1490815D01*
X1290737Y1491462D01*
X1290090Y1492109D01*
X1289627Y1492572D01*
X1289165Y1493034D01*
X1288888Y1493404D01*
X1288795Y1493589D01*
X1288703Y1493681D01*
X1287871Y1494975D01*
X1287039Y1496270D01*
X1286391Y1497564D01*
X1285837Y1498951D01*
X1285005Y1501725D01*
X1284450Y1504221D01*
X1284172Y1505423D01*
X1284080Y1506440D01*
X1283988Y1507457D01*
X1283895Y1508289D01*
X1283803Y1508936D01*
Y1509861D01*
X1283988Y1512912D01*
X1284450Y1515870D01*
X1285005Y1518459D01*
X1285374Y1519661D01*
X1285744Y1520771D01*
X1286114Y1521788D01*
X1286484Y1522712D01*
X1286761Y1523452D01*
X1287039Y1524192D01*
X1287316Y1524654D01*
X1287501Y1525024D01*
X1287593Y1525301D01*
X1287686Y1525393D01*
X1289258Y1527890D01*
X1291107Y1530016D01*
X1292956Y1531865D01*
X1294805Y1533437D01*
X1296469Y1534639D01*
X1297209Y1535101D01*
X1297856Y1535471D01*
X1298318Y1535841D01*
X1298688Y1536026D01*
X1298965Y1536118D01*
X1299058Y1536211D01*
X1301924Y1537505D01*
X1304883Y1538430D01*
X1307841Y1539077D01*
X1310522Y1539539D01*
X1311724Y1539724D01*
X1312926Y1539817D01*
X1313851Y1539909D01*
X1314775D01*
X1315423Y1540001D01*
X1315977D01*
X1316347D01*
X1316440D01*
X1319768Y1539817D01*
D02*
G37*
G36*
X1307749Y1468810D02*
X1307102Y1467424D01*
X1306454Y1466037D01*
X1305807Y1464742D01*
X1305252Y1463633D01*
X1304790Y1462708D01*
X1304420Y1462154D01*
X1304328Y1462061D01*
Y1461969D01*
X1303311Y1460304D01*
X1302294Y1458825D01*
X1301369Y1457531D01*
X1300537Y1456514D01*
X1299890Y1455589D01*
X1299335Y1455034D01*
X1298965Y1454572D01*
X1298873Y1454480D01*
X1348892D01*
Y1446621D01*
X1284635D01*
Y1451706D01*
X1286206Y1452631D01*
X1287686Y1453648D01*
X1289165Y1454850D01*
X1290459Y1455959D01*
X1291569Y1457068D01*
X1292493Y1457901D01*
X1292771Y1458270D01*
X1293048Y1458548D01*
X1293141Y1458640D01*
X1293233Y1458733D01*
X1294805Y1460674D01*
X1296284Y1462616D01*
X1297579Y1464465D01*
X1298596Y1466314D01*
X1299520Y1467886D01*
X1299890Y1468533D01*
X1300167Y1469088D01*
X1300445Y1469550D01*
X1300537Y1469920D01*
X1300722Y1470105D01*
Y1470197D01*
X1308303D01*
X1307749Y1468810D01*
D02*
G37*
G36*
X1333636Y1426281D02*
X1335023Y1426003D01*
X1337612Y1425171D01*
X1339831Y1424154D01*
X1340848Y1423599D01*
X1341680Y1423045D01*
X1342512Y1422582D01*
X1343252Y1422028D01*
X1343807Y1421565D01*
X1344269Y1421103D01*
X1344639Y1420733D01*
X1345008Y1420548D01*
X1345101Y1420363D01*
X1345193Y1420271D01*
X1346026Y1419161D01*
X1346765Y1418052D01*
X1347412Y1416850D01*
X1347967Y1415648D01*
X1348799Y1413337D01*
X1349354Y1411025D01*
X1349631Y1410008D01*
X1349724Y1408991D01*
X1349816Y1408159D01*
X1349909Y1407420D01*
X1350001Y1406772D01*
Y1405940D01*
X1349909Y1403999D01*
X1349631Y1402150D01*
X1349261Y1400393D01*
X1348799Y1398821D01*
X1348152Y1397342D01*
X1347505Y1395955D01*
X1346858Y1394661D01*
X1346118Y1393551D01*
X1345378Y1392534D01*
X1344731Y1391610D01*
X1343991Y1390870D01*
X1343437Y1390223D01*
X1342974Y1389760D01*
X1342605Y1389391D01*
X1342327Y1389206D01*
X1342235Y1389113D01*
X1341033Y1388189D01*
X1339738Y1387449D01*
X1338537Y1386709D01*
X1337242Y1386155D01*
X1334746Y1385230D01*
X1332342Y1384675D01*
X1331325Y1384490D01*
X1330308Y1384306D01*
X1329476Y1384213D01*
X1328736Y1384121D01*
X1328089Y1384028D01*
X1327627D01*
X1327349D01*
X1327257D01*
X1325593Y1384121D01*
X1324021Y1384306D01*
X1322449Y1384583D01*
X1321062Y1384953D01*
X1319768Y1385415D01*
X1318474Y1385877D01*
X1317364Y1386432D01*
X1316347Y1386894D01*
X1315423Y1387449D01*
X1314590Y1388004D01*
X1313943Y1388466D01*
X1313296Y1388928D01*
X1312834Y1389298D01*
X1312556Y1389576D01*
X1312372Y1389760D01*
X1312279Y1389853D01*
X1311262Y1390962D01*
X1310337Y1392072D01*
X1309598Y1393274D01*
X1308951Y1394476D01*
X1308303Y1395678D01*
X1307841Y1396880D01*
X1307194Y1399099D01*
X1306917Y1400116D01*
X1306732Y1401040D01*
X1306639Y1401872D01*
X1306547Y1402612D01*
X1306454Y1403167D01*
Y1405201D01*
X1306639Y1406310D01*
X1307102Y1408529D01*
X1307749Y1410563D01*
X1308488Y1412412D01*
X1309228Y1413892D01*
X1309598Y1414539D01*
X1309875Y1415093D01*
X1310153Y1415556D01*
X1310337Y1415833D01*
X1310430Y1416018D01*
X1310522Y1416110D01*
X1293233Y1412690D01*
Y1387079D01*
X1285744D01*
Y1418884D01*
X1318659Y1425079D01*
X1319676Y1417682D01*
X1318659Y1417035D01*
X1317826Y1416203D01*
X1316994Y1415463D01*
X1316347Y1414724D01*
X1315885Y1413984D01*
X1315423Y1413429D01*
X1315238Y1413059D01*
X1315145Y1412967D01*
X1314590Y1411765D01*
X1314128Y1410563D01*
X1313851Y1409454D01*
X1313573Y1408344D01*
X1313481Y1407420D01*
X1313389Y1406680D01*
Y1404923D01*
X1313573Y1403814D01*
X1314036Y1401872D01*
X1314683Y1400208D01*
X1315330Y1398729D01*
X1316070Y1397619D01*
X1316717Y1396787D01*
X1317179Y1396325D01*
X1317272Y1396140D01*
X1317364D01*
X1318936Y1394846D01*
X1320600Y1393921D01*
X1322357Y1393274D01*
X1324113Y1392812D01*
X1325593Y1392534D01*
X1326240Y1392442D01*
X1326795D01*
X1327257Y1392349D01*
X1327627D01*
X1327812D01*
X1327904D01*
X1329199D01*
X1330400Y1392534D01*
X1332712Y1392996D01*
X1334653Y1393644D01*
X1336225Y1394291D01*
X1337520Y1395030D01*
X1338537Y1395678D01*
X1338814Y1395955D01*
X1339091Y1396140D01*
X1339184Y1396232D01*
X1339276Y1396325D01*
X1340016Y1397065D01*
X1340663Y1397804D01*
X1341773Y1399468D01*
X1342512Y1401040D01*
X1342974Y1402612D01*
X1343344Y1403906D01*
X1343437Y1405016D01*
X1343529Y1405386D01*
Y1405940D01*
X1343437Y1407697D01*
X1343067Y1409269D01*
X1342605Y1410656D01*
X1342050Y1411765D01*
X1341495Y1412782D01*
X1341033Y1413522D01*
X1340663Y1413892D01*
X1340571Y1414076D01*
X1339276Y1415186D01*
X1337889Y1416110D01*
X1336318Y1416850D01*
X1334931Y1417405D01*
X1333544Y1417775D01*
X1332527Y1418052D01*
X1332065Y1418144D01*
X1331787Y1418237D01*
X1331602D01*
X1331510D01*
X1332157Y1426466D01*
X1333636Y1426281D01*
D02*
G37*
G36*
X1489768Y1849816D02*
X1493004Y1849446D01*
X1495870Y1848984D01*
X1497257Y1848614D01*
X1498459Y1848337D01*
X1499568Y1848060D01*
X1500585Y1847690D01*
X1501510Y1847412D01*
X1502249Y1847227D01*
X1502804Y1846950D01*
X1503266Y1846858D01*
X1503544Y1846673D01*
X1503636D01*
X1506410Y1845286D01*
X1508906Y1843714D01*
X1511033Y1842050D01*
X1511865Y1841218D01*
X1512697Y1840478D01*
X1513437Y1839739D01*
X1514084Y1838999D01*
X1514639Y1838352D01*
X1515008Y1837797D01*
X1515378Y1837427D01*
X1515656Y1837057D01*
X1515748Y1836872D01*
X1515841Y1836780D01*
X1516580Y1835486D01*
X1517227Y1834191D01*
X1518244Y1831417D01*
X1518984Y1828644D01*
X1519446Y1825963D01*
X1519631Y1824668D01*
X1519816Y1823559D01*
X1519909Y1822542D01*
Y1821710D01*
X1520001Y1820970D01*
Y1819953D01*
X1519909Y1818104D01*
X1519724Y1816347D01*
X1519539Y1814683D01*
X1519169Y1813111D01*
X1518707Y1811632D01*
X1518244Y1810245D01*
X1517782Y1808951D01*
X1517227Y1807749D01*
X1516765Y1806732D01*
X1516303Y1805715D01*
X1515841Y1804975D01*
X1515378Y1804235D01*
X1515008Y1803773D01*
X1514823Y1803311D01*
X1514639Y1803126D01*
X1514546Y1803033D01*
X1513437Y1801739D01*
X1512327Y1800630D01*
X1511033Y1799613D01*
X1509738Y1798596D01*
X1507150Y1796931D01*
X1504561Y1795637D01*
X1503359Y1795082D01*
X1502249Y1794620D01*
X1501232Y1794250D01*
X1500400Y1793973D01*
X1499661Y1793695D01*
X1499106Y1793511D01*
X1498736Y1793418D01*
X1498644D01*
X1496517Y1801924D01*
X1497996Y1802294D01*
X1499383Y1802756D01*
X1500678Y1803218D01*
X1501880Y1803681D01*
X1502989Y1804235D01*
X1503914Y1804790D01*
X1504838Y1805437D01*
X1505670Y1805992D01*
X1506410Y1806454D01*
X1506965Y1807009D01*
X1507519Y1807471D01*
X1507982Y1807841D01*
X1508259Y1808211D01*
X1508536Y1808488D01*
X1508629Y1808581D01*
X1508721Y1808673D01*
X1509461Y1809598D01*
X1510016Y1810615D01*
X1511033Y1812649D01*
X1511772Y1814590D01*
X1512235Y1816532D01*
X1512605Y1818196D01*
X1512697Y1818843D01*
Y1819491D01*
X1512789Y1820045D01*
Y1820693D01*
X1512697Y1822819D01*
X1512327Y1824853D01*
X1511865Y1826702D01*
X1511310Y1828366D01*
X1510755Y1829661D01*
X1510478Y1830216D01*
X1510293Y1830678D01*
X1510108Y1831048D01*
X1509923Y1831325D01*
X1509831Y1831510D01*
Y1831602D01*
X1508536Y1833359D01*
X1507150Y1834838D01*
X1505578Y1836133D01*
X1504099Y1837150D01*
X1502804Y1837982D01*
X1501695Y1838537D01*
X1501232Y1838721D01*
X1500955Y1838906D01*
X1500770Y1838999D01*
X1500678D01*
X1498274Y1839739D01*
X1495870Y1840293D01*
X1493466Y1840756D01*
X1491247Y1841033D01*
X1490230Y1841125D01*
X1489306Y1841218D01*
X1488474D01*
X1487826Y1841310D01*
X1487272D01*
X1486809D01*
X1486532D01*
X1486439D01*
X1484036Y1841218D01*
X1481817Y1841033D01*
X1479783Y1840663D01*
X1477934Y1840293D01*
X1476362Y1840016D01*
X1475715Y1839831D01*
X1475160Y1839646D01*
X1474698Y1839554D01*
X1474420Y1839461D01*
X1474235Y1839369D01*
X1474143D01*
X1472016Y1838444D01*
X1470075Y1837427D01*
X1468503Y1836318D01*
X1467116Y1835116D01*
X1466007Y1834099D01*
X1465267Y1833267D01*
X1464805Y1832619D01*
X1464620Y1832527D01*
Y1832434D01*
X1463418Y1830493D01*
X1462493Y1828366D01*
X1461846Y1826332D01*
X1461476Y1824391D01*
X1461199Y1822634D01*
X1461107Y1821895D01*
Y1821247D01*
X1461014Y1820785D01*
Y1820045D01*
X1461107Y1817734D01*
X1461476Y1815607D01*
X1462031Y1813851D01*
X1462586Y1812279D01*
X1463233Y1811077D01*
X1463695Y1810153D01*
X1464065Y1809598D01*
X1464250Y1809413D01*
X1465637Y1807934D01*
X1467209Y1806547D01*
X1468873Y1805437D01*
X1470537Y1804513D01*
X1472016Y1803773D01*
X1472756Y1803496D01*
X1473311Y1803311D01*
X1473773Y1803126D01*
X1474143Y1802941D01*
X1474328Y1802849D01*
X1474420D01*
X1472479Y1794528D01*
X1470814Y1795082D01*
X1469335Y1795637D01*
X1467948Y1796377D01*
X1466561Y1797024D01*
X1465360Y1797763D01*
X1464250Y1798596D01*
X1463141Y1799335D01*
X1462216Y1800075D01*
X1461476Y1800815D01*
X1460737Y1801462D01*
X1460090Y1802109D01*
X1459627Y1802571D01*
X1459165Y1803033D01*
X1458888Y1803403D01*
X1458795Y1803588D01*
X1458703Y1803681D01*
X1457871Y1804975D01*
X1457038Y1806269D01*
X1456391Y1807564D01*
X1455837Y1808951D01*
X1455004Y1811724D01*
X1454450Y1814221D01*
X1454172Y1815423D01*
X1454080Y1816440D01*
X1453987Y1817457D01*
X1453895Y1818289D01*
X1453803Y1818936D01*
Y1819860D01*
X1453987Y1822912D01*
X1454450Y1825870D01*
X1455004Y1828459D01*
X1455374Y1829661D01*
X1455744Y1830770D01*
X1456114Y1831787D01*
X1456484Y1832712D01*
X1456761Y1833452D01*
X1457038Y1834191D01*
X1457316Y1834653D01*
X1457501Y1835023D01*
X1457593Y1835301D01*
X1457686Y1835393D01*
X1459257Y1837889D01*
X1461107Y1840016D01*
X1462956Y1841865D01*
X1464805Y1843437D01*
X1466469Y1844639D01*
X1467209Y1845101D01*
X1467856Y1845471D01*
X1468318Y1845841D01*
X1468688Y1846026D01*
X1468965Y1846118D01*
X1469058Y1846210D01*
X1471924Y1847505D01*
X1474882Y1848429D01*
X1477841Y1849077D01*
X1480522Y1849539D01*
X1481724Y1849724D01*
X1482926Y1849816D01*
X1483851Y1849909D01*
X1484775D01*
X1485422Y1850001D01*
X1485977D01*
X1486347D01*
X1486439D01*
X1489768Y1849816D01*
D02*
G37*
G36*
X1477749Y1778810D02*
X1477101Y1777423D01*
X1476454Y1776036D01*
X1475807Y1774742D01*
X1475252Y1773632D01*
X1474790Y1772708D01*
X1474420Y1772153D01*
X1474328Y1772061D01*
Y1771968D01*
X1473311Y1770304D01*
X1472294Y1768825D01*
X1471369Y1767530D01*
X1470537Y1766513D01*
X1469890Y1765589D01*
X1469335Y1765034D01*
X1468965Y1764572D01*
X1468873Y1764479D01*
X1518892D01*
Y1756621D01*
X1454635D01*
Y1761706D01*
X1456206Y1762630D01*
X1457686Y1763647D01*
X1459165Y1764849D01*
X1460459Y1765959D01*
X1461569Y1767068D01*
X1462493Y1767900D01*
X1462771Y1768270D01*
X1463048Y1768547D01*
X1463141Y1768640D01*
X1463233Y1768732D01*
X1464805Y1770674D01*
X1466284Y1772615D01*
X1467578Y1774465D01*
X1468595Y1776314D01*
X1469520Y1777885D01*
X1469890Y1778533D01*
X1470167Y1779087D01*
X1470445Y1779550D01*
X1470537Y1779919D01*
X1470722Y1780104D01*
Y1780197D01*
X1478303D01*
X1477749Y1778810D01*
D02*
G37*
G36*
X1503544Y1711317D02*
X1518892D01*
Y1703458D01*
X1503544D01*
Y1694768D01*
X1496332D01*
Y1703458D01*
X1454912D01*
Y1709838D01*
X1496332Y1739146D01*
X1503544D01*
Y1711317D01*
D02*
G37*
%LPC*%
G36*
X1496332Y1731473D02*
X1467671Y1711317D01*
X1496332D01*
Y1731473D01*
D02*
G37*
%LPD*%
D67*
X1449393Y1700310D02*
X1590607D01*
Y1399690D02*
Y1700310D01*
X1449393Y1399690D02*
X1590607D01*
X1449393D02*
Y1700310D01*
X1295000Y1650607D02*
X1405000D01*
Y1429393D02*
Y1650607D01*
X1295000Y1429393D02*
X1405000D01*
X1295000D02*
Y1650607D01*
X1449393Y2000310D02*
X1590607D01*
Y1699690D02*
Y2000310D01*
X1449393Y1699690D02*
X1590607D01*
X1449393D02*
Y2000310D01*
D103*
X1630000Y680000D02*
Y2320000D01*
Y680000D02*
X3470000D01*
Y2320000D01*
X1630000D02*
X3470000D01*
%TF.MD5,f0b7371ebc66f53202ade7c26ad36110*%
M02*
