%TF.GenerationSoftware,Altium Limited,Altium Designer,26.3.0 (6)*%
G04 Layer_Physical_Order=2*
G04 Layer_Color=36540*
%FSLAX45Y45*%
%MOMM*%
%TF.SameCoordinates,27FE383B-3369-4B87-A22B-3F424D22D69C*%
%TF.FilePolarity,Positive*%
%TF.FileFunction,Copper,L2,Inr,Signal*%
%TF.Part,Single*%
G01*
G75*
%TA.AperFunction,ComponentPad*%
%ADD54R,1.55000X1.55000*%
%ADD55C,1.55000*%
%TA.AperFunction,ViaPad*%
%ADD56C,0.44000*%
%ADD57C,0.40000*%
%ADD58C,4.00000*%
G36*
X5000000Y0D02*
X0D01*
Y3000000D01*
X5000000D01*
Y0D01*
D02*
G37*
%LPC*%
G36*
X4136875Y2742700D02*
X4113125D01*
X4090184Y2736553D01*
X4069616Y2724678D01*
X4052822Y2707884D01*
X4040947Y2687316D01*
X4034800Y2664375D01*
Y2640625D01*
X4040947Y2617684D01*
X4052822Y2597116D01*
X4069616Y2580322D01*
X4090184Y2568447D01*
X4113125Y2562300D01*
X4136875D01*
X4159816Y2568447D01*
X4180384Y2580322D01*
X4197178Y2597116D01*
X4209053Y2617684D01*
X4215200Y2640625D01*
Y2664375D01*
X4209053Y2687316D01*
X4197178Y2707884D01*
X4180384Y2724678D01*
X4159816Y2736553D01*
X4136875Y2742700D01*
D02*
G37*
G36*
X4770949Y2962700D02*
X4729051D01*
X4687958Y2954526D01*
X4649249Y2938492D01*
X4614412Y2915215D01*
X4584785Y2885588D01*
X4561508Y2850751D01*
X4545474Y2812042D01*
X4537300Y2770949D01*
Y2729051D01*
X4545474Y2687958D01*
X4561508Y2649249D01*
X4584785Y2614412D01*
X4614412Y2584785D01*
X4649249Y2561508D01*
X4687958Y2545474D01*
X4729051Y2537300D01*
X4770949D01*
X4812042Y2545474D01*
X4850751Y2561508D01*
X4885588Y2584785D01*
X4915215Y2614412D01*
X4938492Y2649249D01*
X4954526Y2687958D01*
X4962700Y2729051D01*
Y2770949D01*
X4954526Y2812042D01*
X4938492Y2850751D01*
X4915215Y2885588D01*
X4885588Y2915215D01*
X4850751Y2938492D01*
X4812042Y2954526D01*
X4770949Y2962700D01*
D02*
G37*
G36*
X270949D02*
X229051D01*
X187958Y2954526D01*
X149249Y2938492D01*
X114412Y2915215D01*
X84785Y2885588D01*
X61508Y2850751D01*
X45474Y2812042D01*
X37300Y2770949D01*
Y2729051D01*
X45474Y2687958D01*
X61508Y2649249D01*
X84785Y2614412D01*
X114412Y2584785D01*
X149249Y2561508D01*
X187958Y2545474D01*
X229051Y2537300D01*
X270949D01*
X312042Y2545474D01*
X350751Y2561508D01*
X385588Y2584785D01*
X415215Y2614412D01*
X438492Y2649249D01*
X454526Y2687958D01*
X462700Y2729051D01*
Y2770949D01*
X454526Y2812042D01*
X438492Y2850751D01*
X415215Y2885588D01*
X385588Y2915215D01*
X350751Y2938492D01*
X312042Y2954526D01*
X270949Y2962700D01*
D02*
G37*
G36*
X4621505Y2557700D02*
X4608496D01*
X4596477Y2552722D01*
X4587279Y2543523D01*
X4582300Y2531505D01*
Y2518496D01*
X4587279Y2506477D01*
X4596477Y2497279D01*
X4608496Y2492300D01*
X4621505D01*
X4633523Y2497279D01*
X4642722Y2506477D01*
X4647700Y2518496D01*
Y2531505D01*
X4642722Y2543523D01*
X4633523Y2552722D01*
X4621505Y2557700D01*
D02*
G37*
G36*
X4766504Y2252700D02*
X4753495D01*
X4741477Y2247721D01*
X4732278Y2238523D01*
X4727300Y2226504D01*
Y2213495D01*
X4732278Y2201477D01*
X4741477Y2192278D01*
X4753495Y2187300D01*
X4766504D01*
X4778523Y2192278D01*
X4787721Y2201477D01*
X4792700Y2213495D01*
Y2226504D01*
X4787721Y2238523D01*
X4778523Y2247721D01*
X4766504Y2252700D01*
D02*
G37*
G36*
X4616504D02*
X4603495D01*
X4591477Y2247721D01*
X4582278Y2238523D01*
X4577300Y2226504D01*
Y2213495D01*
X4582278Y2201477D01*
X4591477Y2192278D01*
X4603495Y2187300D01*
X4616504D01*
X4628523Y2192278D01*
X4637721Y2201477D01*
X4642700Y2213495D01*
Y2226504D01*
X4637721Y2238523D01*
X4628523Y2247721D01*
X4616504Y2252700D01*
D02*
G37*
G36*
X4536505Y2182700D02*
X4523496D01*
X4511477Y2177722D01*
X4502279Y2168523D01*
X4497300Y2156504D01*
Y2143496D01*
X4502279Y2131477D01*
X4511477Y2122278D01*
X4523496Y2117300D01*
X4536505D01*
X4548523Y2122278D01*
X4557722Y2131477D01*
X4562700Y2143496D01*
Y2156504D01*
X4557722Y2168523D01*
X4548523Y2177722D01*
X4536505Y2182700D01*
D02*
G37*
G36*
X2531504Y2132700D02*
X2518496D01*
X2506477Y2127722D01*
X2497278Y2118523D01*
X2492300Y2106505D01*
Y2093496D01*
X2497278Y2081477D01*
X2506477Y2072279D01*
X2518496Y2067300D01*
X2531504D01*
X2543523Y2072279D01*
X2552722Y2081477D01*
X2557700Y2093496D01*
Y2106505D01*
X2552722Y2118523D01*
X2543523Y2127722D01*
X2531504Y2132700D01*
D02*
G37*
G36*
X2763956Y2102700D02*
X2750947D01*
X2738929Y2097722D01*
X2729730Y2088523D01*
X2724752Y2076505D01*
Y2063496D01*
X2729730Y2051477D01*
X2738929Y2042279D01*
X2750947Y2037300D01*
X2763956D01*
X2775975Y2042279D01*
X2785173Y2051477D01*
X2790152Y2063496D01*
Y2076505D01*
X2785173Y2088523D01*
X2775975Y2097722D01*
X2763956Y2102700D01*
D02*
G37*
G36*
X4656505Y2012700D02*
X4643496D01*
X4631477Y2007722D01*
X4622279Y1998523D01*
X4617300Y1986505D01*
Y1973496D01*
X4622279Y1961477D01*
X4631477Y1952279D01*
X4643496Y1947300D01*
X4656505D01*
X4668523Y1952279D01*
X4677722Y1961477D01*
X4682700Y1973496D01*
Y1986505D01*
X4677722Y1998523D01*
X4668523Y2007722D01*
X4656505Y2012700D01*
D02*
G37*
G36*
X2656504Y1992700D02*
X2643496D01*
X2631477Y1987721D01*
X2622278Y1978523D01*
X2617300Y1966504D01*
Y1953495D01*
X2622278Y1941477D01*
X2631477Y1932278D01*
X2643496Y1927300D01*
X2656504D01*
X2668523Y1932278D01*
X2677722Y1941477D01*
X2682700Y1953495D01*
Y1966504D01*
X2677722Y1978523D01*
X2668523Y1987721D01*
X2656504Y1992700D01*
D02*
G37*
G36*
X4816504Y1967700D02*
X4803496D01*
X4791477Y1962722D01*
X4782278Y1953523D01*
X4777300Y1941505D01*
Y1928496D01*
X4782278Y1916477D01*
X4791477Y1907279D01*
X4803496Y1902300D01*
X4816504D01*
X4828523Y1907279D01*
X4837722Y1916477D01*
X4842700Y1928496D01*
Y1941505D01*
X4837722Y1953523D01*
X4828523Y1962722D01*
X4816504Y1967700D01*
D02*
G37*
G36*
X1359053Y1955248D02*
X1346044D01*
X1334026Y1950270D01*
X1324827Y1941071D01*
X1319849Y1929053D01*
Y1916044D01*
X1324827Y1904025D01*
X1334026Y1894827D01*
X1346044Y1889848D01*
X1359053D01*
X1371071Y1894827D01*
X1380270Y1904025D01*
X1385248Y1916044D01*
Y1929053D01*
X1380270Y1941071D01*
X1371071Y1950270D01*
X1359053Y1955248D01*
D02*
G37*
G36*
X3896505Y1822700D02*
X3883496D01*
X3871477Y1817722D01*
X3862279Y1808523D01*
X3857300Y1796504D01*
Y1783496D01*
X3862279Y1771477D01*
X3871477Y1762278D01*
X3883496Y1757300D01*
X3896505D01*
X3908523Y1762278D01*
X3917722Y1771477D01*
X3922700Y1783496D01*
Y1796504D01*
X3917722Y1808523D01*
X3908523Y1817722D01*
X3896505Y1822700D01*
D02*
G37*
G36*
X4096504Y1882700D02*
X4083496D01*
X4071477Y1877722D01*
X4062278Y1868523D01*
X4057300Y1856505D01*
Y1843496D01*
X4062278Y1831477D01*
X4071477Y1822279D01*
X4072455Y1821873D01*
Y1808127D01*
X4071477Y1807722D01*
X4062278Y1798523D01*
X4057300Y1786504D01*
Y1773496D01*
X4062278Y1761477D01*
X4071477Y1752278D01*
X4083496Y1747300D01*
X4096504D01*
X4108523Y1752278D01*
X4117722Y1761477D01*
X4122700Y1773496D01*
Y1786504D01*
X4117722Y1798523D01*
X4108523Y1807722D01*
X4107545Y1808127D01*
Y1821873D01*
X4108523Y1822279D01*
X4117722Y1831477D01*
X4122700Y1843496D01*
Y1856505D01*
X4117722Y1868523D01*
X4108523Y1877722D01*
X4096504Y1882700D01*
D02*
G37*
G36*
X1356505Y1752700D02*
X1343496D01*
X1331477Y1747721D01*
X1322279Y1738523D01*
X1317300Y1726504D01*
Y1713495D01*
X1322279Y1701477D01*
X1331477Y1692278D01*
X1343496Y1687300D01*
X1356505D01*
X1368523Y1692278D01*
X1377722Y1701477D01*
X1382700Y1713495D01*
Y1726504D01*
X1377722Y1738523D01*
X1368523Y1747721D01*
X1356505Y1752700D01*
D02*
G37*
G36*
X4671504Y1751750D02*
X4658496D01*
X4646477Y1746771D01*
X4637279Y1737573D01*
X4632300Y1725554D01*
Y1712545D01*
X4637279Y1700527D01*
X4646477Y1691328D01*
X4658496Y1686350D01*
X4671504D01*
X4683523Y1691328D01*
X4692722Y1700527D01*
X4697700Y1712545D01*
Y1725554D01*
X4692722Y1737573D01*
X4683523Y1746771D01*
X4671504Y1751750D01*
D02*
G37*
G36*
X3983956Y1725248D02*
X3970947D01*
X3958929Y1720270D01*
X3949730Y1711071D01*
X3944752Y1699053D01*
Y1686044D01*
X3949730Y1674025D01*
X3958929Y1664827D01*
X3970947Y1659848D01*
X3983956D01*
X3995974Y1664827D01*
X4005173Y1674025D01*
X4010151Y1686044D01*
Y1699053D01*
X4005173Y1711071D01*
X3995974Y1720270D01*
X3983956Y1725248D01*
D02*
G37*
G36*
X2536504Y1702700D02*
X2523496D01*
X2511477Y1697722D01*
X2502278Y1688523D01*
X2497300Y1676504D01*
Y1663496D01*
X2502278Y1651477D01*
X2511477Y1642278D01*
X2523496Y1637300D01*
X2536504D01*
X2548523Y1642278D01*
X2557722Y1651477D01*
X2562700Y1663496D01*
Y1676504D01*
X2557722Y1688523D01*
X2548523Y1697722D01*
X2536504Y1702700D01*
D02*
G37*
G36*
X2016504D02*
X2003496D01*
X1991477Y1697722D01*
X1982278Y1688523D01*
X1977300Y1676504D01*
Y1663496D01*
X1982278Y1651477D01*
X1991477Y1642278D01*
X2003496Y1637300D01*
X2016504D01*
X2028523Y1642278D01*
X2037722Y1651477D01*
X2042700Y1663496D01*
Y1676504D01*
X2037722Y1688523D01*
X2028523Y1697722D01*
X2016504Y1702700D01*
D02*
G37*
G36*
X4456505Y1662700D02*
X4443496D01*
X4431477Y1657722D01*
X4422279Y1648523D01*
X4417300Y1636505D01*
Y1623496D01*
X4422279Y1611477D01*
X4431477Y1602279D01*
X4443496Y1597300D01*
X4456505D01*
X4468523Y1602279D01*
X4477722Y1611477D01*
X4482700Y1623496D01*
Y1636505D01*
X4477722Y1648523D01*
X4468523Y1657722D01*
X4456505Y1662700D01*
D02*
G37*
G36*
X4556902Y1664700D02*
X4543098D01*
X4530344Y1659417D01*
X4520583Y1649656D01*
X4515300Y1636902D01*
Y1623098D01*
X4520583Y1610344D01*
X4530344Y1600583D01*
X4543098Y1595300D01*
X4556902D01*
X4569656Y1600583D01*
X4579417Y1610344D01*
X4584700Y1623098D01*
Y1636902D01*
X4579417Y1649656D01*
X4569656Y1659417D01*
X4556902Y1664700D01*
D02*
G37*
G36*
X1936504Y1642700D02*
X1923496D01*
X1911477Y1637722D01*
X1902278Y1628523D01*
X1897300Y1616505D01*
Y1603496D01*
X1902278Y1591477D01*
X1911477Y1582279D01*
X1923496Y1577300D01*
X1936504D01*
X1948523Y1582279D01*
X1957722Y1591477D01*
X1962700Y1603496D01*
Y1616505D01*
X1957722Y1628523D01*
X1948523Y1637722D01*
X1936504Y1642700D01*
D02*
G37*
G36*
X2526902Y1474700D02*
X2513098D01*
X2500344Y1469417D01*
X2490583Y1459656D01*
X2485300Y1446902D01*
Y1433098D01*
X2490583Y1420344D01*
X2500344Y1410583D01*
X2513098Y1405300D01*
X2526902D01*
X2539656Y1410583D01*
X2549417Y1420344D01*
X2554700Y1433098D01*
Y1446902D01*
X2549417Y1459656D01*
X2539656Y1469417D01*
X2526902Y1474700D01*
D02*
G37*
G36*
X1496504Y1342700D02*
X1483496D01*
X1471477Y1337721D01*
X1462279Y1328523D01*
X1457300Y1316504D01*
Y1303495D01*
X1462279Y1291477D01*
X1471477Y1282278D01*
X1483496Y1277300D01*
X1496504D01*
X1508523Y1282278D01*
X1517722Y1291477D01*
X1522700Y1303495D01*
Y1316504D01*
X1517722Y1328523D01*
X1508523Y1337721D01*
X1496504Y1342700D01*
D02*
G37*
G36*
X2756505Y1322700D02*
X2743496D01*
X2731477Y1317722D01*
X2722279Y1308523D01*
X2717300Y1296504D01*
Y1283496D01*
X2722279Y1271477D01*
X2731477Y1262278D01*
X2743496Y1257300D01*
X2756505D01*
X2768523Y1262278D01*
X2777722Y1271477D01*
X2782700Y1283496D01*
Y1296504D01*
X2777722Y1308523D01*
X2768523Y1317722D01*
X2756505Y1322700D01*
D02*
G37*
G36*
X4188334Y1305790D02*
X4174529D01*
X4161776Y1300507D01*
X4152014Y1290746D01*
X4146731Y1277992D01*
Y1264188D01*
X4152014Y1251434D01*
X4161776Y1241673D01*
X4174529Y1236390D01*
X4188334D01*
X4201087Y1241673D01*
X4210848Y1251434D01*
X4216131Y1264188D01*
Y1277992D01*
X4210848Y1290746D01*
X4201087Y1300507D01*
X4188334Y1305790D01*
D02*
G37*
G36*
X4296902Y1304700D02*
X4283098D01*
X4270344Y1299417D01*
X4260583Y1289656D01*
X4255300Y1276902D01*
Y1263098D01*
X4260583Y1250344D01*
X4270344Y1240583D01*
X4283098Y1235300D01*
X4296902D01*
X4309656Y1240583D01*
X4319417Y1250344D01*
X4324700Y1263098D01*
Y1276902D01*
X4319417Y1289656D01*
X4309656Y1299417D01*
X4296902Y1304700D01*
D02*
G37*
G36*
X1593956Y1255248D02*
X1580947D01*
X1568929Y1250270D01*
X1559730Y1241071D01*
X1554752Y1229053D01*
Y1216044D01*
X1559730Y1204026D01*
X1568929Y1194827D01*
X1580947Y1189849D01*
X1593956D01*
X1605975Y1194827D01*
X1615173Y1204026D01*
X1620152Y1216044D01*
Y1229053D01*
X1615173Y1241071D01*
X1605975Y1250270D01*
X1593956Y1255248D01*
D02*
G37*
G36*
X2779205Y1246196D02*
X2766196D01*
X2754177Y1241217D01*
X2744979Y1232019D01*
X2740000Y1220000D01*
Y1206991D01*
X2744979Y1194973D01*
X2754177Y1185774D01*
X2766196Y1180796D01*
X2779205D01*
X2791223Y1185774D01*
X2800422Y1194973D01*
X2805400Y1206991D01*
Y1220000D01*
X2800422Y1232019D01*
X2791223Y1241217D01*
X2779205Y1246196D01*
D02*
G37*
G36*
X2526504Y1242700D02*
X2513496D01*
X2501477Y1237722D01*
X2492278Y1228523D01*
X2487300Y1216505D01*
Y1203496D01*
X2492278Y1191477D01*
X2501477Y1182279D01*
X2513496Y1177300D01*
X2526504D01*
X2538523Y1182279D01*
X2547722Y1191477D01*
X2552700Y1203496D01*
Y1216505D01*
X2547722Y1228523D01*
X2538523Y1237722D01*
X2526504Y1242700D01*
D02*
G37*
G36*
X905156Y1203306D02*
X892147D01*
X880128Y1198328D01*
X870930Y1189129D01*
X865951Y1177111D01*
Y1164102D01*
X870930Y1152084D01*
X880128Y1142885D01*
X892147Y1137907D01*
X905156D01*
X917174Y1142885D01*
X926373Y1152084D01*
X931351Y1164102D01*
Y1177111D01*
X926373Y1189129D01*
X917174Y1198328D01*
X905156Y1203306D01*
D02*
G37*
G36*
X4188334Y1203290D02*
X4174529D01*
X4161776Y1198007D01*
X4152014Y1188246D01*
X4146731Y1175492D01*
Y1161688D01*
X4152014Y1148934D01*
X4161776Y1139173D01*
X4174529Y1133890D01*
X4188334D01*
X4201087Y1139173D01*
X4210848Y1148934D01*
X4216131Y1161688D01*
Y1175492D01*
X4210848Y1188246D01*
X4201087Y1198007D01*
X4188334Y1203290D01*
D02*
G37*
G36*
X4301902Y1202200D02*
X4288098D01*
X4275344Y1196917D01*
X4265583Y1187156D01*
X4260300Y1174402D01*
Y1160598D01*
X4265583Y1147844D01*
X4275344Y1138083D01*
X4288098Y1132800D01*
X4301902D01*
X4314656Y1138083D01*
X4324417Y1147844D01*
X4329700Y1160598D01*
Y1174402D01*
X4324417Y1187156D01*
X4314656Y1196917D01*
X4301902Y1202200D01*
D02*
G37*
G36*
X3896505Y1162700D02*
X3883496D01*
X3871477Y1157722D01*
X3862279Y1148523D01*
X3857300Y1136504D01*
Y1123496D01*
X3862279Y1111477D01*
X3871477Y1102278D01*
X3883496Y1097300D01*
X3896505D01*
X3908523Y1102278D01*
X3917722Y1111477D01*
X3922700Y1123496D01*
Y1136504D01*
X3917722Y1148523D01*
X3908523Y1157722D01*
X3896505Y1162700D01*
D02*
G37*
G36*
X166504Y1032700D02*
X153496D01*
X141477Y1027722D01*
X132278Y1018523D01*
X127300Y1006504D01*
Y993496D01*
X132278Y981477D01*
X141477Y972278D01*
X153496Y967300D01*
X166504D01*
X178523Y972278D01*
X187721Y981477D01*
X192700Y993496D01*
Y1006504D01*
X187721Y1018523D01*
X178523Y1027722D01*
X166504Y1032700D01*
D02*
G37*
G36*
X2406504Y900152D02*
X2393496D01*
X2381477Y895173D01*
X2372278Y885975D01*
X2367300Y873956D01*
Y860947D01*
X2372278Y848929D01*
X2381477Y839730D01*
X2393496Y834752D01*
X2406504D01*
X2418523Y839730D01*
X2427722Y848929D01*
X2432700Y860947D01*
Y873956D01*
X2427722Y885975D01*
X2418523Y895173D01*
X2406504Y900152D01*
D02*
G37*
G36*
X166504Y792700D02*
X153496D01*
X141477Y787722D01*
X132278Y778523D01*
X127300Y766504D01*
Y753496D01*
X132278Y741477D01*
X141477Y732278D01*
X153496Y727300D01*
X166504D01*
X178523Y732278D01*
X187721Y741477D01*
X192700Y753496D01*
Y766504D01*
X187721Y778523D01*
X178523Y787722D01*
X166504Y792700D01*
D02*
G37*
G36*
X2766505Y592700D02*
X2753496D01*
X2741477Y587721D01*
X2732279Y578523D01*
X2727300Y566504D01*
Y553495D01*
X2732279Y541477D01*
X2741477Y532278D01*
X2753496Y527300D01*
X2766505D01*
X2778523Y532278D01*
X2787722Y541477D01*
X2792700Y553495D01*
Y566504D01*
X2787722Y578523D01*
X2778523Y587721D01*
X2766505Y592700D01*
D02*
G37*
G36*
X3466504Y522700D02*
X3453496D01*
X3441477Y517722D01*
X3432278Y508523D01*
X3427300Y496505D01*
Y483496D01*
X3432278Y471477D01*
X3441477Y462279D01*
X3453496Y457300D01*
X3466504D01*
X3478523Y462279D01*
X3487721Y471477D01*
X3492700Y483496D01*
Y496505D01*
X3487721Y508523D01*
X3478523Y517722D01*
X3466504Y522700D01*
D02*
G37*
G36*
X2863956Y505248D02*
X2850947D01*
X2838929Y500270D01*
X2829730Y491071D01*
X2824752Y479053D01*
Y466044D01*
X2829730Y454026D01*
X2838929Y444827D01*
X2850947Y439848D01*
X2863956D01*
X2875975Y444827D01*
X2885173Y454026D01*
X2890152Y466044D01*
Y479053D01*
X2885173Y491071D01*
X2875975Y500270D01*
X2863956Y505248D01*
D02*
G37*
G36*
X1800000Y441693D02*
X1780217Y437758D01*
X1763447Y426552D01*
X1752241Y409782D01*
X1748306Y390000D01*
X1752241Y370217D01*
X1763447Y353447D01*
X1780217Y342241D01*
X1800000Y338306D01*
X1819782Y342241D01*
X1836552Y353447D01*
X1847758Y370217D01*
X1851693Y390000D01*
X1847758Y409782D01*
X1836552Y426552D01*
X1819782Y437758D01*
X1800000Y441693D01*
D02*
G37*
G36*
X4376504Y312700D02*
X4363495D01*
X4351477Y307722D01*
X4342278Y298523D01*
X4337300Y286504D01*
Y273496D01*
X4342278Y261477D01*
X4351477Y252278D01*
X4363495Y247300D01*
X4376504D01*
X4388523Y252278D01*
X4397721Y261477D01*
X4402700Y273496D01*
Y286504D01*
X4397721Y298523D01*
X4388523Y307722D01*
X4376504Y312700D01*
D02*
G37*
G36*
X3536504D02*
X3523496D01*
X3511477Y307722D01*
X3502278Y298523D01*
X3497300Y286504D01*
Y273496D01*
X3502278Y261477D01*
X3511477Y252278D01*
X3523496Y247300D01*
X3536504D01*
X3548523Y252278D01*
X3557722Y261477D01*
X3562700Y273496D01*
Y286504D01*
X3557722Y298523D01*
X3548523Y307722D01*
X3536504Y312700D01*
D02*
G37*
G36*
X3799053Y310152D02*
X3786044D01*
X3774025Y305173D01*
X3764827Y295975D01*
X3759848Y283956D01*
Y270947D01*
X3764827Y258929D01*
X3774025Y249730D01*
X3786044Y244752D01*
X3799053D01*
X3811071Y249730D01*
X3820270Y258929D01*
X3825248Y270947D01*
Y283956D01*
X3820270Y295975D01*
X3811071Y305173D01*
X3799053Y310152D01*
D02*
G37*
G36*
X2026504Y232700D02*
X2013495D01*
X2001477Y227721D01*
X1992278Y218523D01*
X1987300Y206504D01*
Y193495D01*
X1992278Y181477D01*
X2001477Y172278D01*
X2013495Y167300D01*
X2026504D01*
X2038523Y172278D01*
X2047721Y181477D01*
X2052700Y193495D01*
Y206504D01*
X2047721Y218523D01*
X2038523Y227721D01*
X2026504Y232700D01*
D02*
G37*
G36*
X4286505Y212700D02*
X4273496D01*
X4261477Y207721D01*
X4252279Y198523D01*
X4247300Y186504D01*
Y173495D01*
X4252279Y161477D01*
X4261477Y152278D01*
X4273496Y147300D01*
X4286505D01*
X4298523Y152278D01*
X4307722Y161477D01*
X4312700Y173495D01*
Y186504D01*
X4307722Y198523D01*
X4298523Y207721D01*
X4286505Y212700D01*
D02*
G37*
G36*
X3886505D02*
X3873496D01*
X3861477Y207721D01*
X3852279Y198523D01*
X3847300Y186504D01*
Y173495D01*
X3852279Y161477D01*
X3861477Y152278D01*
X3873496Y147300D01*
X3886505D01*
X3898523Y152278D01*
X3907722Y161477D01*
X3912700Y173495D01*
Y186504D01*
X3907722Y198523D01*
X3898523Y207721D01*
X3886505Y212700D01*
D02*
G37*
G36*
X2241408Y127797D02*
X2228399D01*
X2216381Y122818D01*
X2207182Y113620D01*
X2202204Y101601D01*
Y88592D01*
X2207182Y76574D01*
X2216381Y67375D01*
X2228399Y62397D01*
X2241408D01*
X2253427Y67375D01*
X2262625Y76574D01*
X2267604Y88592D01*
Y101601D01*
X2262625Y113620D01*
X2253427Y122818D01*
X2241408Y127797D01*
D02*
G37*
G36*
X2543956Y125248D02*
X2530947D01*
X2518929Y120270D01*
X2509730Y111071D01*
X2504752Y99053D01*
Y86044D01*
X2509730Y74026D01*
X2518929Y64827D01*
X2530947Y59848D01*
X2543956D01*
X2555975Y64827D01*
X2565173Y74026D01*
X2570152Y86044D01*
Y99053D01*
X2565173Y111071D01*
X2555975Y120270D01*
X2543956Y125248D01*
D02*
G37*
G36*
X270949Y462700D02*
X229051D01*
X187958Y454526D01*
X149249Y438492D01*
X114412Y415215D01*
X84785Y385589D01*
X61508Y350751D01*
X45474Y312043D01*
X37300Y270949D01*
Y229051D01*
X45474Y187958D01*
X61508Y149249D01*
X84785Y114412D01*
X114412Y84785D01*
X149249Y61508D01*
X187958Y45474D01*
X229051Y37300D01*
X270949D01*
X312042Y45474D01*
X350751Y61508D01*
X385588Y84785D01*
X415215Y114412D01*
X438492Y149249D01*
X454526Y187958D01*
X462700Y229051D01*
Y270949D01*
X454526Y312043D01*
X438492Y350751D01*
X415215Y385589D01*
X385588Y415215D01*
X350751Y438492D01*
X312042Y454526D01*
X270949Y462700D01*
D02*
G37*
G36*
X4770949Y462700D02*
X4729051D01*
X4687958Y454526D01*
X4649249Y438492D01*
X4614412Y415215D01*
X4584785Y385588D01*
X4561508Y350751D01*
X4545474Y312042D01*
X4537300Y270949D01*
Y229051D01*
X4545474Y187958D01*
X4561508Y149249D01*
X4584785Y114412D01*
X4614412Y84785D01*
X4649249Y61508D01*
X4687958Y45474D01*
X4729051Y37300D01*
X4770949D01*
X4812042Y45474D01*
X4850751Y61508D01*
X4885588Y84785D01*
X4915215Y114412D01*
X4938492Y149249D01*
X4954526Y187958D01*
X4962700Y229051D01*
Y270949D01*
X4954526Y312042D01*
X4938492Y350751D01*
X4915215Y385588D01*
X4885588Y415215D01*
X4850751Y438492D01*
X4812042Y454526D01*
X4770949Y462700D01*
D02*
G37*
%LPD*%
D54*
X3875000Y2652500D02*
D03*
D55*
X4125000D02*
D03*
D56*
X4490000Y1390000D02*
D03*
X950000Y2930000D02*
D03*
X4181431Y1168590D02*
D03*
X4295000Y1167500D02*
D03*
X4181431Y1271090D02*
D03*
X4290000Y1270000D02*
D03*
X2520000Y1440000D02*
D03*
X2100000Y800000D02*
D03*
X1660000Y820000D02*
D03*
X2390000Y1000000D02*
D03*
X660000Y1590000D02*
D03*
X570000Y2550000D02*
D03*
X2380000D02*
D03*
X2080000D02*
D03*
X850000D02*
D03*
X920000Y1590000D02*
D03*
X153098Y1284700D02*
D03*
X160000Y1500000D02*
D03*
X4360000Y860000D02*
D03*
X4160000Y737500D02*
D03*
X3720000Y1930000D02*
D03*
X3500000Y1980000D02*
D03*
X3630000Y1370000D02*
D03*
X3550000Y1190000D02*
D03*
X3500000Y890000D02*
D03*
X2670000Y2060000D02*
D03*
X2200000Y2000000D02*
D03*
X2100000Y1890000D02*
D03*
X2990000Y1460000D02*
D03*
X2874700Y1576902D02*
D03*
X2750000Y1400000D02*
D03*
X2870000Y1340000D02*
D03*
Y1120000D02*
D03*
X3090000Y1360000D02*
D03*
X3160000Y1490000D02*
D03*
X3320000Y1580000D02*
D03*
X3530000Y1500000D02*
D03*
X3330000Y1300000D02*
D03*
X3100000Y1070000D02*
D03*
X3120000Y860000D02*
D03*
X2880000Y870000D02*
D03*
X3180000Y290000D02*
D03*
X3010000D02*
D03*
X2840000D02*
D03*
X2560000Y390000D02*
D03*
X2190000Y420000D02*
D03*
X2070000Y310000D02*
D03*
X2360000Y440000D02*
D03*
X1840000Y1310000D02*
D03*
X1680000Y200000D02*
D03*
X2680000Y90000D02*
D03*
X2380000D02*
D03*
X3320000Y490000D02*
D03*
X3000000Y470000D02*
D03*
X3100000Y560000D02*
D03*
X3790000Y420000D02*
D03*
X3870000Y520000D02*
D03*
X4370000Y420000D02*
D03*
X4280000Y520000D02*
D03*
X3980000Y890000D02*
D03*
X4720000Y970000D02*
D03*
X4796069Y1154160D02*
D03*
X4810000Y1310000D02*
D03*
X2820000Y2690000D02*
D03*
Y2450000D02*
D03*
X3490000Y2280000D02*
D03*
X2880000Y2050000D02*
D03*
X3890000Y1450000D02*
D03*
X3980000Y1550000D02*
D03*
X4080000Y2260000D02*
D03*
X3780000D02*
D03*
X3930000D02*
D03*
X4230000D02*
D03*
X4735000Y1995000D02*
D03*
X4820000Y2080000D02*
D03*
X4375000Y1630000D02*
D03*
X4100000Y1630000D02*
D03*
X4810000Y1505000D02*
D03*
X4650000Y1630000D02*
D03*
X4240000Y1505000D02*
D03*
X4480000Y1880000D02*
D03*
X4570000D02*
D03*
Y1800000D02*
D03*
X4480000D02*
D03*
X1520000Y2405000D02*
D03*
X1369417Y2279656D02*
D03*
X1420000Y1780000D02*
D03*
X1630000D02*
D03*
X2010000Y1330000D02*
D03*
X2430000Y1160000D02*
D03*
X2010000Y1050000D02*
D03*
X2440000Y1780000D02*
D03*
X2140000Y1650000D02*
D03*
X776902Y1284700D02*
D03*
X830000Y980000D02*
D03*
X650000D02*
D03*
X505300Y1026902D02*
D03*
X640000Y1150000D02*
D03*
Y830000D02*
D03*
X1890000Y1750000D02*
D03*
X2080000Y2120000D02*
D03*
X1743098Y2085300D02*
D03*
X1380000Y2120000D02*
D03*
X1140000Y2110000D02*
D03*
X890000Y1880000D02*
D03*
X470000Y1290000D02*
D03*
X690000Y470000D02*
D03*
X390000Y920000D02*
D03*
X400000Y620000D02*
D03*
X1930000Y820000D02*
D03*
X1370000Y810000D02*
D03*
X1020000D02*
D03*
X1070000Y270000D02*
D03*
X2040000Y620000D02*
D03*
X1620000Y470000D02*
D03*
X580000Y2920000D02*
D03*
X1290000Y2940000D02*
D03*
X460000Y1750000D02*
D03*
X700000Y1960000D02*
D03*
X960000Y2170000D02*
D03*
X1900000Y2290000D02*
D03*
X2400000Y2300000D02*
D03*
X2760000Y2270000D02*
D03*
X4550000Y1630000D02*
D03*
D57*
X2525000Y2100000D02*
D03*
X2234904Y95097D02*
D03*
X2020000Y200000D02*
D03*
X160000Y760000D02*
D03*
Y1000000D02*
D03*
X2537452Y92548D02*
D03*
X2400000Y867452D02*
D03*
X898651Y1170606D02*
D03*
X1490000Y1310000D02*
D03*
X1350000Y1720000D02*
D03*
X1352548Y1922548D02*
D03*
X1587452Y1222548D02*
D03*
X2650000Y1960000D02*
D03*
X2857452Y472548D02*
D03*
X2760000Y560000D02*
D03*
X3460000Y490000D02*
D03*
X3880000Y180000D02*
D03*
X4280000D02*
D03*
X3792548Y277452D02*
D03*
X3530000Y280000D02*
D03*
X4370000D02*
D03*
X2757452Y2070000D02*
D03*
X3890000Y1130000D02*
D03*
Y1790000D02*
D03*
X3977452Y1692548D02*
D03*
X1930000Y1610000D02*
D03*
X2772700Y1213496D02*
D03*
X2520000Y1210000D02*
D03*
X2750000Y1290000D02*
D03*
X2530000Y1670000D02*
D03*
X2010000D02*
D03*
X4090000Y1780000D02*
D03*
Y1850000D02*
D03*
X4810000Y1935000D02*
D03*
X4450000Y1630000D02*
D03*
X4615000Y2525000D02*
D03*
X4650000Y1980000D02*
D03*
X4610000Y2220000D02*
D03*
X4665000Y1719050D02*
D03*
X4530000Y2150000D02*
D03*
X4760000Y2220000D02*
D03*
D58*
X250000Y250000D02*
D03*
X4750000Y250000D02*
D03*
Y2750000D02*
D03*
X250000D02*
D03*
%TF.MD5,a1a9980e7aaa942fac64ee9304473994*%
M02*
