%TF.GenerationSoftware,Altium Limited,Altium Designer,26.3.0 (6)*%
G04 Layer_Color=32768*
%FSLAX45Y45*%
%MOMM*%
%TF.SameCoordinates,27FE383B-3369-4B87-A22B-3F424D22D69C*%
%TF.FilePolarity,Positive*%
%TF.FileFunction,Other,Top_Designator*%
%TF.Part,Single*%
G01*
G75*
%TA.AperFunction,NonConductor*%
%ADD100C,0.15000*%
G36*
X1922897Y744136D02*
X1878491D01*
X1878408D01*
X1878075D01*
X1877575D01*
X1876825D01*
X1875992Y744052D01*
X1875075D01*
X1873992Y743969D01*
X1872909Y743886D01*
X1870493Y743719D01*
X1868077Y743386D01*
X1865745Y742886D01*
X1864661Y742636D01*
X1863745Y742303D01*
X1863662D01*
X1863578Y742219D01*
X1863329Y742136D01*
X1862995Y741970D01*
X1862079Y741470D01*
X1861079Y740803D01*
X1859829Y739970D01*
X1858663Y738887D01*
X1857497Y737554D01*
X1856414Y735971D01*
Y735888D01*
X1856330Y735721D01*
X1856164Y735471D01*
X1855997Y735138D01*
X1855830Y734721D01*
X1855664Y734138D01*
X1855414Y733555D01*
X1855164Y732889D01*
X1854747Y731222D01*
X1854331Y729306D01*
X1853998Y727140D01*
X1853914Y724807D01*
Y723724D01*
X1853998Y722974D01*
X1854081Y722058D01*
X1854164Y720975D01*
X1854331Y719809D01*
X1854581Y718559D01*
X1855164Y715976D01*
X1855580Y714643D01*
X1856080Y713310D01*
X1856664Y712061D01*
X1857330Y710894D01*
X1858080Y709811D01*
X1858996Y708811D01*
X1859080Y708728D01*
X1859246Y708561D01*
X1859579Y708395D01*
X1859996Y708062D01*
X1860579Y707728D01*
X1861329Y707312D01*
X1862245Y706812D01*
X1863329Y706395D01*
X1864578Y705979D01*
X1865994Y705479D01*
X1867577Y705062D01*
X1869327Y704729D01*
X1871326Y704396D01*
X1873493Y704146D01*
X1875909Y704063D01*
X1878491Y703979D01*
X1922897D01*
Y693815D01*
X1878491D01*
X1878325D01*
X1877991D01*
X1877408D01*
X1876575D01*
X1875575Y693899D01*
X1874492Y693982D01*
X1873243Y694065D01*
X1871826Y694148D01*
X1868910Y694482D01*
X1865828Y694898D01*
X1862829Y695565D01*
X1861412Y695981D01*
X1860079Y696481D01*
X1859996D01*
X1859746Y696565D01*
X1859413Y696731D01*
X1858913Y696981D01*
X1858330Y697314D01*
X1857663Y697648D01*
X1856164Y698647D01*
X1855247Y699231D01*
X1854414Y699897D01*
X1853414Y700730D01*
X1852498Y701563D01*
X1851582Y702563D01*
X1850665Y703563D01*
X1849832Y704729D01*
X1848999Y705979D01*
X1848916Y706062D01*
X1848832Y706312D01*
X1848582Y706645D01*
X1848332Y707228D01*
X1847999Y707895D01*
X1847666Y708728D01*
X1847249Y709645D01*
X1846916Y710811D01*
X1846499Y711977D01*
X1846083Y713310D01*
X1845750Y714810D01*
X1845416Y716393D01*
X1845166Y718142D01*
X1844917Y719975D01*
X1844833Y721891D01*
X1844750Y723891D01*
Y724974D01*
X1844833Y725724D01*
Y726640D01*
X1844917Y727640D01*
X1845083Y728890D01*
X1845250Y730139D01*
X1845666Y732972D01*
X1846333Y735971D01*
X1847249Y738887D01*
X1847749Y740303D01*
X1848416Y741636D01*
X1848499Y741720D01*
X1848582Y741970D01*
X1848832Y742303D01*
X1849082Y742719D01*
X1849499Y743303D01*
X1849999Y743969D01*
X1850498Y744636D01*
X1851165Y745385D01*
X1852665Y747052D01*
X1854497Y748635D01*
X1856664Y750134D01*
X1857913Y750801D01*
X1859163Y751384D01*
X1859246D01*
X1859496Y751467D01*
X1859913Y751634D01*
X1860496Y751800D01*
X1861162Y752050D01*
X1862079Y752300D01*
X1863079Y752550D01*
X1864245Y752800D01*
X1865578Y753133D01*
X1866994Y753383D01*
X1868577Y753633D01*
X1870327Y753800D01*
X1872160Y754050D01*
X1874159Y754133D01*
X1876242Y754300D01*
X1878491D01*
X1922897D01*
Y744136D01*
D02*
G37*
G36*
X1866911Y670738D02*
X1866828D01*
X1866578Y670654D01*
X1866244Y670571D01*
X1865745Y670488D01*
X1865161Y670405D01*
X1864412Y670155D01*
X1862829Y669738D01*
X1861079Y669072D01*
X1859246Y668155D01*
X1857580Y667072D01*
X1856830Y666406D01*
X1856080Y665739D01*
Y665656D01*
X1855914Y665572D01*
X1855747Y665323D01*
X1855497Y664989D01*
X1854914Y664156D01*
X1854331Y662990D01*
X1853664Y661573D01*
X1853081Y659907D01*
X1852665Y658074D01*
X1852581Y657075D01*
X1852498Y655992D01*
Y655325D01*
X1852581Y654825D01*
X1852665Y654242D01*
X1852748Y653576D01*
X1853164Y651993D01*
X1853748Y650160D01*
X1854164Y649243D01*
X1854664Y648244D01*
X1855247Y647244D01*
X1855914Y646327D01*
X1856664Y645411D01*
X1857580Y644495D01*
X1857663Y644411D01*
X1857830Y644328D01*
X1858080Y644078D01*
X1858496Y643745D01*
X1859080Y643411D01*
X1859663Y642995D01*
X1860413Y642578D01*
X1861246Y642078D01*
X1862162Y641662D01*
X1863162Y641245D01*
X1864328Y640829D01*
X1865495Y640496D01*
X1866828Y640162D01*
X1868244Y639912D01*
X1869660Y639829D01*
X1871243Y639746D01*
X1871326D01*
X1871576D01*
X1871993D01*
X1872576Y639829D01*
X1873243Y639912D01*
X1874076Y639996D01*
X1874909Y640162D01*
X1875909Y640329D01*
X1877908Y640829D01*
X1880074Y641662D01*
X1881074Y642162D01*
X1882074Y642828D01*
X1883073Y643495D01*
X1883990Y644328D01*
X1884073Y644411D01*
X1884157Y644495D01*
X1884406Y644828D01*
X1884740Y645161D01*
X1885073Y645578D01*
X1885489Y646161D01*
X1885906Y646744D01*
X1886406Y647494D01*
X1886822Y648327D01*
X1887239Y649160D01*
X1887989Y651243D01*
X1888322Y652326D01*
X1888572Y653576D01*
X1888655Y654825D01*
X1888739Y656158D01*
Y656908D01*
X1888655Y657824D01*
X1888489Y658907D01*
X1888239Y660240D01*
X1887822Y661657D01*
X1887322Y663073D01*
X1886573Y664489D01*
X1886489Y664656D01*
X1886239Y665073D01*
X1885739Y665739D01*
X1885156Y666572D01*
X1884323Y667405D01*
X1883407Y668405D01*
X1882324Y669321D01*
X1881157Y670155D01*
X1882407Y678986D01*
X1921897Y671571D01*
Y633331D01*
X1912899D01*
Y664073D01*
X1892238Y668155D01*
X1892321Y668072D01*
X1892488Y667822D01*
X1892654Y667489D01*
X1892988Y666989D01*
X1893321Y666322D01*
X1893737Y665572D01*
X1894237Y664739D01*
X1894654Y663740D01*
X1895070Y662740D01*
X1895570Y661573D01*
X1896320Y659157D01*
X1896653Y657824D01*
X1896903Y656491D01*
X1896987Y655075D01*
X1897070Y653659D01*
Y653242D01*
X1896987Y652659D01*
Y651993D01*
X1896820Y651159D01*
X1896737Y650160D01*
X1896487Y648993D01*
X1896237Y647827D01*
X1895820Y646494D01*
X1895404Y645161D01*
X1894820Y643745D01*
X1894154Y642328D01*
X1893321Y640912D01*
X1892404Y639496D01*
X1891321Y638079D01*
X1890072Y636747D01*
X1889988Y636663D01*
X1889738Y636413D01*
X1889322Y636080D01*
X1888822Y635663D01*
X1888155Y635080D01*
X1887239Y634497D01*
X1886323Y633914D01*
X1885240Y633247D01*
X1883990Y632581D01*
X1882574Y631998D01*
X1881157Y631331D01*
X1879491Y630831D01*
X1877825Y630415D01*
X1875992Y630082D01*
X1874076Y629832D01*
X1872076Y629748D01*
X1871993D01*
X1871576D01*
X1871077D01*
X1870327Y629832D01*
X1869410Y629915D01*
X1868411Y630082D01*
X1867244Y630248D01*
X1865911Y630498D01*
X1864578Y630831D01*
X1863079Y631248D01*
X1861579Y631748D01*
X1860079Y632331D01*
X1858580Y632997D01*
X1856997Y633831D01*
X1855497Y634747D01*
X1854081Y635830D01*
X1853998Y635913D01*
X1853664Y636163D01*
X1853248Y636580D01*
X1852665Y637163D01*
X1851915Y637913D01*
X1851165Y638829D01*
X1850249Y639912D01*
X1849415Y641162D01*
X1848582Y642495D01*
X1847666Y643995D01*
X1846916Y645661D01*
X1846250Y647494D01*
X1845583Y649410D01*
X1845166Y651493D01*
X1844833Y653659D01*
X1844750Y655992D01*
Y656991D01*
X1844833Y657741D01*
X1844917Y658658D01*
X1845083Y659657D01*
X1845250Y660824D01*
X1845500Y662073D01*
X1845750Y663406D01*
X1846166Y664823D01*
X1846666Y666239D01*
X1847249Y667655D01*
X1847916Y669072D01*
X1848666Y670488D01*
X1849582Y671821D01*
X1850582Y673154D01*
X1850665Y673237D01*
X1850832Y673404D01*
X1851165Y673737D01*
X1851665Y674154D01*
X1852248Y674737D01*
X1852915Y675320D01*
X1853748Y675903D01*
X1854747Y676570D01*
X1855747Y677236D01*
X1856913Y677903D01*
X1858246Y678486D01*
X1859579Y679069D01*
X1861079Y679652D01*
X1862662Y680069D01*
X1864412Y680402D01*
X1866161Y680652D01*
X1866911Y670738D01*
D02*
G37*
D100*
X249465Y1488478D02*
Y1438494D01*
Y1463486D01*
X374424D01*
X399416Y1438494D01*
Y1413502D01*
X374424Y1388510D01*
X399416Y1638429D02*
Y1538461D01*
X299448Y1638429D01*
X274456D01*
X249465Y1613437D01*
Y1563453D01*
X274456Y1538461D01*
%TF.MD5,6e84a572f71a1dd1eae0ee9e4fb91cbd*%
M02*
