%TF.GenerationSoftware,Altium Limited,Altium Designer,26.3.0 (6)*%
G04 Layer_Color=16711935*
%FSLAX45Y45*%
%MOMM*%
%TF.SameCoordinates,27FE383B-3369-4B87-A22B-3F424D22D69C*%
%TF.FilePolarity,Positive*%
%TF.FileFunction,Other,Top_3D_Body*%
%TF.Part,Single*%
G01*
G75*
%TA.AperFunction,NonConductor*%
%ADD67C,0.20000*%
%ADD69C,0.07620*%
%ADD70C,0.10000*%
%ADD101C,0.02540*%
D67*
X2690879Y765000D02*
Y1765000D01*
X3690879D01*
Y765000D02*
Y1765000D01*
X2690879Y765000D02*
X3690879D01*
X2410000Y1972500D02*
Y2127500D01*
X2490000D01*
Y1972500D02*
Y2127500D01*
X2410000Y1972500D02*
X2490000D01*
X2280000D02*
Y2127500D01*
X2360000D01*
Y1972500D02*
Y2127500D01*
X2280000Y1972500D02*
X2360000D01*
X1009258Y1130607D02*
X1164258D01*
X1009258D02*
Y1210606D01*
X1164258D01*
Y1130607D02*
Y1210606D01*
X1009258Y1260000D02*
X1164258D01*
X1009258D02*
Y1340000D01*
X1164258D01*
Y1260000D02*
Y1340000D01*
X1012500Y1000000D02*
X1167500D01*
X1012500D02*
Y1080000D01*
X1167500D01*
Y1000000D02*
Y1080000D01*
X2242500Y855000D02*
Y1025000D01*
X2337500D01*
Y855000D02*
Y1025000D01*
X2242500Y855000D02*
X2337500D01*
X3305000Y305116D02*
X3475000D01*
X3305000D02*
Y400116D01*
X3475000D01*
Y305116D02*
Y400116D01*
X3305000Y165116D02*
X3475000D01*
X3305000D02*
Y260116D01*
X3475000D01*
Y165116D02*
Y260116D01*
X2915000Y2205500D02*
Y2335500D01*
X3085000D01*
Y2205500D02*
Y2335500D01*
X2915000Y2205500D02*
X3085000D01*
X4240000Y272548D02*
Y432548D01*
X4320000D01*
Y272548D02*
Y432548D01*
X4240000Y272548D02*
X4320000D01*
X3840000Y270000D02*
Y430000D01*
X3920000D01*
Y270000D02*
Y430000D01*
X3840000Y270000D02*
X3920000D01*
X2530000Y230000D02*
X2690000D01*
Y150000D02*
Y230000D01*
X2530000Y150000D02*
X2690000D01*
X2530000D02*
Y230000D01*
X2227452D02*
X2387452D01*
Y150000D02*
Y230000D01*
X2227452Y150000D02*
X2387452D01*
X2227452D02*
Y230000D01*
X3350000Y2122500D02*
X3430000D01*
Y2277500D01*
X3350000D02*
X3430000D01*
X3350000Y2122500D02*
Y2277500D01*
X3210000Y2122500D02*
X3290000D01*
Y2277500D01*
X3210000D02*
X3290000D01*
X3210000Y2122500D02*
Y2277500D01*
X1770000Y240000D02*
X1930000D01*
Y160000D02*
Y240000D01*
X1770000Y160000D02*
X1930000D01*
X1770000D02*
Y240000D01*
X4590000Y1350000D02*
X4750000D01*
Y1270000D02*
Y1350000D01*
X4590000Y1270000D02*
X4750000D01*
X4590000D02*
Y1350000D01*
X4350000D02*
X4510000D01*
Y1270000D02*
Y1350000D01*
X4350000Y1270000D02*
X4510000D01*
X4350000D02*
Y1350000D01*
X3960000Y2050000D02*
Y2210000D01*
X4040000D01*
Y2050000D02*
Y2210000D01*
X3960000Y2050000D02*
X4040000D01*
X3630000Y2312500D02*
Y2887500D01*
Y2312500D02*
X4370000D01*
Y2887500D01*
X3630000D02*
X4370000D01*
X3405000Y2360000D02*
Y2460000D01*
X3235000D02*
X3405000D01*
X3235000Y2360000D02*
Y2460000D01*
Y2360000D02*
X3405000D01*
X2850000Y520000D02*
Y600000D01*
Y520000D02*
X3010000D01*
Y600000D01*
X2850000D02*
X3010000D01*
X2450000Y860000D02*
X2530000D01*
Y1020000D01*
X2450000D02*
X2530000D01*
X2450000Y860000D02*
Y1020000D01*
X2750000Y1920000D02*
Y2000000D01*
Y1920000D02*
X2910000D01*
Y2000000D01*
X2750000D02*
X2910000D01*
X3850000Y1040000D02*
X3930000D01*
X3850000Y880000D02*
Y1040000D01*
Y880000D02*
X3930000D01*
Y1040000D01*
X3850000Y1700000D02*
X3930000D01*
X3850000Y1540000D02*
Y1700000D01*
Y1540000D02*
X3930000D01*
Y1700000D01*
X3470000Y530000D02*
Y610000D01*
X3310000D02*
X3470000D01*
X3310000Y530000D02*
Y610000D01*
Y530000D02*
X3470000D01*
X830000Y135000D02*
Y865000D01*
Y135000D02*
X1470000D01*
Y865000D01*
X830000D02*
X1470000D01*
X600000Y170000D02*
X680000D01*
Y330000D01*
X600000D02*
X680000D01*
X600000Y170000D02*
Y330000D01*
X1580000Y1270000D02*
Y1350000D01*
Y1270000D02*
X1740000D01*
Y1350000D01*
X1580000D02*
X1740000D01*
X4260000Y2050000D02*
X4340000D01*
Y2210000D01*
X4260000D02*
X4340000D01*
X4260000Y2050000D02*
Y2210000D01*
X4110000Y2050000D02*
X4190000D01*
Y2210000D01*
X4110000D02*
X4190000D01*
X4110000Y2050000D02*
Y2210000D01*
X3810000Y2050000D02*
X3890000D01*
Y2210000D01*
X3810000D02*
X3890000D01*
X3810000Y2050000D02*
Y2210000D01*
X3652500Y2215000D02*
X3747500D01*
X3652500Y2045000D02*
Y2215000D01*
Y2045000D02*
X3747500D01*
Y2215000D01*
X4590000Y2040000D02*
Y2120000D01*
Y2040000D02*
X4750000D01*
Y2120000D01*
X4590000D02*
X4750000D01*
X4625000Y2255000D02*
Y2345000D01*
X4455000D02*
X4625000D01*
X4455000Y2255000D02*
Y2345000D01*
Y2255000D02*
X4625000D01*
X4745000D02*
Y2345000D01*
Y2255000D02*
X4915000D01*
Y2345000D01*
X4745000D02*
X4915000D01*
D69*
X2329930Y770399D02*
X2414569Y685760D01*
X2329930D02*
X2414569Y770399D01*
X2329930Y728079D02*
X2414569D01*
X2372250Y685760D02*
Y770399D01*
D70*
X1988160Y440800D02*
G03*
X1988160Y440800I-30000J0D01*
G01*
X4510000Y1905000D02*
G03*
X4510000Y1905000I-50000J0D01*
G01*
X4733569Y994160D02*
G03*
X4733569Y994160I-50000J0D01*
G01*
X2004000Y290000D02*
Y490000D01*
X1704000D02*
X2004000D01*
X1704000Y290000D02*
X2004000D01*
X1704000D02*
Y490000D01*
X4317500Y1610000D02*
Y1830000D01*
X4162500Y1610000D02*
Y1830000D01*
X4317500D01*
X4162500Y1610000D02*
X4317500D01*
X4732500D02*
X4887500D01*
X4732500Y1830000D02*
X4887500D01*
X4732500Y1610000D02*
Y1830000D01*
X4887500Y1610000D02*
Y1830000D01*
X4370000Y1685000D02*
X4680000D01*
X4370000Y1995000D02*
X4680000D01*
Y1685000D02*
Y1995000D01*
X4370000Y1685000D02*
Y1995000D01*
X4318569Y1089160D02*
X4778569D01*
X4318569Y829160D02*
X4778569D01*
Y1089160D01*
X4318569Y829160D02*
Y1089160D01*
X4082500Y842500D02*
X4237500D01*
X4082500Y1062500D02*
X4237500D01*
X4082500Y842500D02*
Y1062500D01*
X4237500Y842500D02*
Y1062500D01*
X4750000Y2385000D02*
X4920000D01*
X4750000Y2475000D02*
X4920000D01*
Y2385000D02*
Y2475000D01*
X4750000Y2385000D02*
Y2475000D01*
X4625000Y2385000D02*
Y2475000D01*
X4455000Y2385000D02*
Y2475000D01*
Y2385000D02*
X4625000D01*
X4455000Y2475000D02*
X4625000D01*
D101*
X2307600Y297600D02*
Y602400D01*
X2612400D01*
Y297600D02*
Y602400D01*
X2307600Y297600D02*
X2612400D01*
X2307600Y475400D02*
X2434600Y602400D01*
%TF.MD5,4d82d7281ee18d0a3c4d1bf0c261828e*%
M02*
