%TF.GenerationSoftware,Altium Limited,Altium Designer,26.3.0 (6)*%
G04 Layer_Color=128*
%FSLAX45Y45*%
%MOMM*%
%TF.SameCoordinates,27FE383B-3369-4B87-A22B-3F424D22D69C*%
%TF.FilePolarity,Positive*%
%TF.FileFunction,Drillmap*%
%TF.Part,Single*%
G01*
G75*
%TA.AperFunction,NonConductor*%
%ADD110C,0.12700*%
D110*
X3825000Y2652500D02*
X3925000D01*
X3875000Y2602500D02*
Y2702500D01*
X1781250Y390000D02*
X1818750D01*
X1800000Y371250D02*
Y408750D01*
X4075000Y2652500D02*
X4175000D01*
X4125000Y2602500D02*
Y2702500D01*
X4475000Y1390000D02*
X4505000D01*
X4490000Y1375000D02*
Y1405000D01*
X2510000Y2100000D02*
X2540000D01*
X2525000Y2085000D02*
Y2115000D01*
X935000Y2930000D02*
X965000D01*
X950000Y2915000D02*
Y2945000D01*
X2219904Y95097D02*
X2249904D01*
X2234904Y80097D02*
Y110097D01*
X2005000Y200000D02*
X2035000D01*
X2020000Y185000D02*
Y215000D01*
X145000Y760000D02*
X175000D01*
X160000Y745000D02*
Y775000D01*
X145000Y1000000D02*
X175000D01*
X160000Y985000D02*
Y1015000D01*
X2522452Y92548D02*
X2552452D01*
X2537452Y77548D02*
Y107548D01*
X2385000Y867452D02*
X2415000D01*
X2400000Y852452D02*
Y882452D01*
X883651Y1170606D02*
X913651D01*
X898651Y1155607D02*
Y1185606D01*
X1475000Y1310000D02*
X1505000D01*
X1490000Y1295000D02*
Y1325000D01*
X1335000Y1720000D02*
X1365000D01*
X1350000Y1705000D02*
Y1735000D01*
X1337549Y1922548D02*
X1367548D01*
X1352548Y1907548D02*
Y1937548D01*
X1572452Y1222548D02*
X1602452D01*
X1587452Y1207549D02*
Y1237548D01*
X2635000Y1960000D02*
X2665000D01*
X2650000Y1945000D02*
Y1975000D01*
X2842452Y472548D02*
X2872452D01*
X2857452Y457548D02*
Y487548D01*
X2745000Y560000D02*
X2775000D01*
X2760000Y545000D02*
Y575000D01*
X3445000Y490000D02*
X3475000D01*
X3460000Y475000D02*
Y505000D01*
X3865000Y180000D02*
X3895000D01*
X3880000Y165000D02*
Y195000D01*
X4265000Y180000D02*
X4295000D01*
X4280000Y165000D02*
Y195000D01*
X3777548Y277452D02*
X3807548D01*
X3792548Y262452D02*
Y292452D01*
X3515000Y280000D02*
X3545000D01*
X3530000Y265000D02*
Y295000D01*
X4355000Y280000D02*
X4385000D01*
X4370000Y265000D02*
Y295000D01*
X2742452Y2070000D02*
X2772452D01*
X2757452Y2055000D02*
Y2085000D01*
X3875000Y1130000D02*
X3905000D01*
X3890000Y1115000D02*
Y1145000D01*
X4166431Y1168590D02*
X4196431D01*
X4181431Y1153590D02*
Y1183590D01*
X4280000Y1167500D02*
X4310000D01*
X4295000Y1152500D02*
Y1182500D01*
X3875000Y1790000D02*
X3905000D01*
X3890000Y1775000D02*
Y1805000D01*
X4166431Y1271090D02*
X4196431D01*
X4181431Y1256090D02*
Y1286090D01*
X4275000Y1270000D02*
X4305000D01*
X4290000Y1255000D02*
Y1285000D01*
X3962452Y1692548D02*
X3992452D01*
X3977452Y1677548D02*
Y1707548D01*
X1915000Y1610000D02*
X1945000D01*
X1930000Y1595000D02*
Y1625000D01*
X2505000Y1440000D02*
X2535000D01*
X2520000Y1425000D02*
Y1455000D01*
X2085000Y800000D02*
X2115000D01*
X2100000Y785000D02*
Y815000D01*
X1645000Y820000D02*
X1675000D01*
X1660000Y805000D02*
Y835000D01*
X2375000Y1000000D02*
X2405000D01*
X2390000Y985000D02*
Y1015000D01*
X645000Y1590000D02*
X675000D01*
X660000Y1575000D02*
Y1605000D01*
X555000Y2550000D02*
X585000D01*
X570000Y2535000D02*
Y2565000D01*
X2365000Y2550000D02*
X2395000D01*
X2380000Y2535000D02*
Y2565000D01*
X2065000Y2550000D02*
X2095000D01*
X2080000Y2535000D02*
Y2565000D01*
X835000Y2550000D02*
X865000D01*
X850000Y2535000D02*
Y2565000D01*
X905000Y1590000D02*
X935000D01*
X920000Y1575000D02*
Y1605000D01*
X138098Y1284700D02*
X168098D01*
X153098Y1269700D02*
Y1299700D01*
X145000Y1500000D02*
X175000D01*
X160000Y1485000D02*
Y1515000D01*
X4345000Y860000D02*
X4375000D01*
X4360000Y845000D02*
Y875000D01*
X4145000Y737500D02*
X4175000D01*
X4160000Y722500D02*
Y752500D01*
X3705000Y1930000D02*
X3735000D01*
X3720000Y1915000D02*
Y1945000D01*
X3485000Y1980000D02*
X3515000D01*
X3500000Y1965000D02*
Y1995000D01*
X3615000Y1370000D02*
X3645000D01*
X3630000Y1355000D02*
Y1385000D01*
X3535000Y1190000D02*
X3565000D01*
X3550000Y1175000D02*
Y1205000D01*
X3485000Y890000D02*
X3515000D01*
X3500000Y875000D02*
Y905000D01*
X2655000Y2060000D02*
X2685000D01*
X2670000Y2045000D02*
Y2075000D01*
X2185000Y2000000D02*
X2215000D01*
X2200000Y1985000D02*
Y2015000D01*
X2085000Y1890000D02*
X2115000D01*
X2100000Y1875000D02*
Y1905000D01*
X2975000Y1460000D02*
X3005000D01*
X2990000Y1445000D02*
Y1475000D01*
X2859700Y1576902D02*
X2889700D01*
X2874700Y1561902D02*
Y1591902D01*
X2735000Y1400000D02*
X2765000D01*
X2750000Y1385000D02*
Y1415000D01*
X2855000Y1340000D02*
X2885000D01*
X2870000Y1325000D02*
Y1355000D01*
X2855000Y1120000D02*
X2885000D01*
X2870000Y1105000D02*
Y1135000D01*
X3075000Y1360000D02*
X3105000D01*
X3090000Y1345000D02*
Y1375000D01*
X3145000Y1490000D02*
X3175000D01*
X3160000Y1475000D02*
Y1505000D01*
X3305000Y1580000D02*
X3335000D01*
X3320000Y1565000D02*
Y1595000D01*
X3515000Y1500000D02*
X3545000D01*
X3530000Y1485000D02*
Y1515000D01*
X3315000Y1300000D02*
X3345000D01*
X3330000Y1285000D02*
Y1315000D01*
X3085000Y1070000D02*
X3115000D01*
X3100000Y1055000D02*
Y1085000D01*
X3105000Y860000D02*
X3135000D01*
X3120000Y845000D02*
Y875000D01*
X2865000Y870000D02*
X2895000D01*
X2880000Y855000D02*
Y885000D01*
X3165000Y290000D02*
X3195000D01*
X3180000Y275000D02*
Y305000D01*
X2995000Y290000D02*
X3025000D01*
X3010000Y275000D02*
Y305000D01*
X2825000Y290000D02*
X2855000D01*
X2840000Y275000D02*
Y305000D01*
X2545000Y390000D02*
X2575000D01*
X2560000Y375000D02*
Y405000D01*
X2175000Y420000D02*
X2205000D01*
X2190000Y405000D02*
Y435000D01*
X2055000Y310000D02*
X2085000D01*
X2070000Y295000D02*
Y325000D01*
X2345000Y440000D02*
X2375000D01*
X2360000Y425000D02*
Y455000D01*
X1825000Y1310000D02*
X1855000D01*
X1840000Y1295000D02*
Y1325000D01*
X1665000Y200000D02*
X1695000D01*
X1680000Y185000D02*
Y215000D01*
X2665000Y90000D02*
X2695000D01*
X2680000Y75000D02*
Y105000D01*
X2365000Y90000D02*
X2395000D01*
X2380000Y75000D02*
Y105000D01*
X3305000Y490000D02*
X3335000D01*
X3320000Y475000D02*
Y505000D01*
X2985000Y470000D02*
X3015000D01*
X3000000Y455000D02*
Y485000D01*
X3085000Y560000D02*
X3115000D01*
X3100000Y545000D02*
Y575000D01*
X3775000Y420000D02*
X3805000D01*
X3790000Y405000D02*
Y435000D01*
X3855000Y520000D02*
X3885000D01*
X3870000Y505000D02*
Y535000D01*
X4355000Y420000D02*
X4385000D01*
X4370000Y405000D02*
Y435000D01*
X4265000Y520000D02*
X4295000D01*
X4280000Y505000D02*
Y535000D01*
X3965000Y890000D02*
X3995000D01*
X3980000Y875000D02*
Y905000D01*
X4705000Y970000D02*
X4735000D01*
X4720000Y955000D02*
Y985000D01*
X4781069Y1154160D02*
X4811069D01*
X4796069Y1139160D02*
Y1169160D01*
X4795000Y1310000D02*
X4825000D01*
X4810000Y1295000D02*
Y1325000D01*
X2805000Y2690000D02*
X2835000D01*
X2820000Y2675000D02*
Y2705000D01*
X2805000Y2450000D02*
X2835000D01*
X2820000Y2435000D02*
Y2465000D01*
X3475000Y2280000D02*
X3505000D01*
X3490000Y2265000D02*
Y2295000D01*
X2865000Y2050000D02*
X2895000D01*
X2880000Y2035000D02*
Y2065000D01*
X3875000Y1450000D02*
X3905000D01*
X3890000Y1435000D02*
Y1465000D01*
X3965000Y1550000D02*
X3995000D01*
X3980000Y1535000D02*
Y1565000D01*
X4065000Y2260000D02*
X4095000D01*
X4080000Y2245000D02*
Y2275000D01*
X3765000Y2260000D02*
X3795000D01*
X3780000Y2245000D02*
Y2275000D01*
X3915000Y2260000D02*
X3945000D01*
X3930000Y2245000D02*
Y2275000D01*
X4215000Y2260000D02*
X4245000D01*
X4230000Y2245000D02*
Y2275000D01*
X4720000Y1995000D02*
X4750000D01*
X4735000Y1980000D02*
Y2010000D01*
X4805000Y2080000D02*
X4835000D01*
X4820000Y2065000D02*
Y2095000D01*
X4360000Y1630000D02*
X4390000D01*
X4375000Y1615000D02*
Y1645000D01*
X4085000Y1630000D02*
X4115000D01*
X4100000Y1615000D02*
Y1645000D01*
X4795000Y1505000D02*
X4825000D01*
X4810000Y1490000D02*
Y1520000D01*
X4635000Y1630000D02*
X4665000D01*
X4650000Y1615000D02*
Y1645000D01*
X4225000Y1505000D02*
X4255000D01*
X4240000Y1490000D02*
Y1520000D01*
X4465000Y1880000D02*
X4495000D01*
X4480000Y1865000D02*
Y1895000D01*
X4555000Y1880000D02*
X4585000D01*
X4570000Y1865000D02*
Y1895000D01*
X4555000Y1800000D02*
X4585000D01*
X4570000Y1785000D02*
Y1815000D01*
X4465000Y1800000D02*
X4495000D01*
X4480000Y1785000D02*
Y1815000D01*
X100000Y250000D02*
X400000D01*
X250000Y100000D02*
Y400000D01*
X1505000Y2405000D02*
X1535000D01*
X1520000Y2390000D02*
Y2420000D01*
X1354417Y2279656D02*
X1384417D01*
X1369417Y2264656D02*
Y2294656D01*
X1405000Y1780000D02*
X1435000D01*
X1420000Y1765000D02*
Y1795000D01*
X1615000Y1780000D02*
X1645000D01*
X1630000Y1765000D02*
Y1795000D01*
X1995000Y1330000D02*
X2025000D01*
X2010000Y1315000D02*
Y1345000D01*
X2415000Y1160000D02*
X2445000D01*
X2430000Y1145000D02*
Y1175000D01*
X1995000Y1050000D02*
X2025000D01*
X2010000Y1035000D02*
Y1065000D01*
X2425000Y1780000D02*
X2455000D01*
X2440000Y1765000D02*
Y1795000D01*
X2125000Y1650000D02*
X2155000D01*
X2140000Y1635000D02*
Y1665000D01*
X761902Y1284700D02*
X791902D01*
X776902Y1269700D02*
Y1299700D01*
X815000Y980000D02*
X845000D01*
X830000Y965000D02*
Y995000D01*
X635000Y980000D02*
X665000D01*
X650000Y965000D02*
Y995000D01*
X490300Y1026902D02*
X520300D01*
X505300Y1011902D02*
Y1041902D01*
X625000Y1150000D02*
X655000D01*
X640000Y1135000D02*
Y1165000D01*
X625000Y830000D02*
X655000D01*
X640000Y815000D02*
Y845000D01*
X1875000Y1750000D02*
X1905000D01*
X1890000Y1735000D02*
Y1765000D01*
X2065000Y2120000D02*
X2095000D01*
X2080000Y2105000D02*
Y2135000D01*
X1728098Y2085300D02*
X1758098D01*
X1743098Y2070300D02*
Y2100300D01*
X1365000Y2120000D02*
X1395000D01*
X1380000Y2105000D02*
Y2135000D01*
X1125000Y2110000D02*
X1155000D01*
X1140000Y2095000D02*
Y2125000D01*
X875000Y1880000D02*
X905000D01*
X890000Y1865000D02*
Y1895000D01*
X455000Y1290000D02*
X485000D01*
X470000Y1275000D02*
Y1305000D01*
X675000Y470000D02*
X705000D01*
X690000Y455000D02*
Y485000D01*
X375000Y920000D02*
X405000D01*
X390000Y905000D02*
Y935000D01*
X385000Y620000D02*
X415000D01*
X400000Y605000D02*
Y635000D01*
X1915000Y820000D02*
X1945000D01*
X1930000Y805000D02*
Y835000D01*
X1355000Y810000D02*
X1385000D01*
X1370000Y795000D02*
Y825000D01*
X1005000Y810000D02*
X1035000D01*
X1020000Y795000D02*
Y825000D01*
X1055000Y270000D02*
X1085000D01*
X1070000Y255000D02*
Y285000D01*
X2025000Y620000D02*
X2055000D01*
X2040000Y605000D02*
Y635000D01*
X1605000Y470000D02*
X1635000D01*
X1620000Y455000D02*
Y485000D01*
X565000Y2920000D02*
X595000D01*
X580000Y2905000D02*
Y2935000D01*
X1275000Y2940000D02*
X1305000D01*
X1290000Y2925000D02*
Y2955000D01*
X445000Y1750000D02*
X475000D01*
X460000Y1735000D02*
Y1765000D01*
X685000Y1960000D02*
X715000D01*
X700000Y1945000D02*
Y1975000D01*
X945000Y2170000D02*
X975000D01*
X960000Y2155000D02*
Y2185000D01*
X1885000Y2290000D02*
X1915000D01*
X1900000Y2275000D02*
Y2305000D01*
X2385000Y2300000D02*
X2415000D01*
X2400000Y2285000D02*
Y2315000D01*
X2745000Y2270000D02*
X2775000D01*
X2760000Y2255000D02*
Y2285000D01*
X2757700Y1213496D02*
X2787700D01*
X2772700Y1198496D02*
Y1228496D01*
X2505000Y1210000D02*
X2535000D01*
X2520000Y1195000D02*
Y1225000D01*
X2735000Y1290000D02*
X2765000D01*
X2750000Y1275000D02*
Y1305000D01*
X2515000Y1670000D02*
X2545000D01*
X2530000Y1655000D02*
Y1685000D01*
X1995000Y1670000D02*
X2025000D01*
X2010000Y1655000D02*
Y1685000D01*
X4075000Y1780000D02*
X4105000D01*
X4090000Y1765000D02*
Y1795000D01*
X4075000Y1850000D02*
X4105000D01*
X4090000Y1835000D02*
Y1865000D01*
X4795000Y1935000D02*
X4825000D01*
X4810000Y1920000D02*
Y1950000D01*
X4435000Y1630000D02*
X4465000D01*
X4450000Y1615000D02*
Y1645000D01*
X4600000Y2525000D02*
X4630000D01*
X4615000Y2510000D02*
Y2540000D01*
X4635000Y1980000D02*
X4665000D01*
X4650000Y1965000D02*
Y1995000D01*
X4595000Y2220000D02*
X4625000D01*
X4610000Y2205000D02*
Y2235000D01*
X4650000Y1719050D02*
X4680000D01*
X4665000Y1704050D02*
Y1734050D01*
X4515000Y2150000D02*
X4545000D01*
X4530000Y2135000D02*
Y2165000D01*
X4745000Y2220000D02*
X4775000D01*
X4760000Y2205000D02*
Y2235000D01*
X4535000Y1630000D02*
X4565000D01*
X4550000Y1615000D02*
Y1645000D01*
X4600000Y250000D02*
X4900000D01*
X4750000Y100000D02*
Y400000D01*
X4600000Y2750000D02*
X4900000D01*
X4750000Y2600000D02*
Y2900000D01*
X100000Y2750000D02*
X400000D01*
X250000Y2600000D02*
Y2900000D01*
%TF.MD5,d241b61fa5edde3979ef0e937b227b43*%
M02*
