%TF.GenerationSoftware,Altium Limited,Altium Designer,26.3.0 (6)*%
G04 Layer_Color=2752767*
%FSLAX45Y45*%
%MOMM*%
%TF.SameCoordinates,27FE383B-3369-4B87-A22B-3F424D22D69C*%
%TF.FilePolarity,Positive*%
%TF.FileFunction,Drawing*%
%TF.Part,Single*%
G01*
G75*
%TA.AperFunction,NonConductor*%
%ADD110C,0.12700*%
D110*
X3875000Y2601700D02*
X3824200Y2703300D01*
X3925800D01*
X3875000Y2601700D01*
X1749200Y339200D02*
Y440800D01*
X1850800D01*
Y339200D01*
X1749200D01*
X4125000Y2601700D02*
X4074200Y2703300D01*
X4175800D01*
X4125000Y2601700D01*
X4439200Y1339200D02*
X4464600Y1390000D01*
X4439200Y1440800D01*
X4490000Y1415400D01*
X4540800Y1440800D01*
X4515400Y1390000D01*
X4540800Y1339200D01*
X4490000Y1364600D01*
X4439200Y1339200D01*
X2474200Y2049200D02*
X2499600Y2100000D01*
X2474200Y2150800D01*
X2525000Y2125400D01*
X2575800Y2150800D01*
X2550400Y2100000D01*
X2575800Y2049200D01*
X2525000Y2074600D01*
X2474200Y2049200D01*
X899200Y2879200D02*
X924600Y2930000D01*
X899200Y2980800D01*
X950000Y2955400D01*
X1000800Y2980800D01*
X975400Y2930000D01*
X1000800Y2879200D01*
X950000Y2904600D01*
X899200Y2879200D01*
X2184104Y44297D02*
X2209504Y95097D01*
X2184104Y145897D01*
X2234904Y120497D01*
X2285704Y145897D01*
X2260304Y95097D01*
X2285704Y44297D01*
X2234904Y69697D01*
X2184104Y44297D01*
X1969200Y149200D02*
X1994600Y200000D01*
X1969200Y250800D01*
X2020000Y225400D01*
X2070800Y250800D01*
X2045400Y200000D01*
X2070800Y149200D01*
X2020000Y174600D01*
X1969200Y149200D01*
X109200Y709200D02*
X134600Y760000D01*
X109200Y810800D01*
X160000Y785400D01*
X210800Y810800D01*
X185400Y760000D01*
X210800Y709200D01*
X160000Y734600D01*
X109200Y709200D01*
Y949200D02*
X134600Y1000000D01*
X109200Y1050800D01*
X160000Y1025400D01*
X210800Y1050800D01*
X185400Y1000000D01*
X210800Y949200D01*
X160000Y974600D01*
X109200Y949200D01*
X2486652Y41748D02*
X2512052Y92548D01*
X2486652Y143348D01*
X2537452Y117948D01*
X2588252Y143348D01*
X2562852Y92548D01*
X2588252Y41748D01*
X2537452Y67148D01*
X2486652Y41748D01*
X2349200Y816652D02*
X2374600Y867452D01*
X2349200Y918252D01*
X2400000Y892852D01*
X2450800Y918252D01*
X2425400Y867452D01*
X2450800Y816652D01*
X2400000Y842052D01*
X2349200Y816652D01*
X847851Y1119806D02*
X873251Y1170606D01*
X847851Y1221406D01*
X898651Y1196006D01*
X949451Y1221406D01*
X924051Y1170606D01*
X949451Y1119806D01*
X898651Y1145206D01*
X847851Y1119806D01*
X1439200Y1259200D02*
X1464600Y1310000D01*
X1439200Y1360800D01*
X1490000Y1335400D01*
X1540800Y1360800D01*
X1515400Y1310000D01*
X1540800Y1259200D01*
X1490000Y1284600D01*
X1439200Y1259200D01*
X1299200Y1669200D02*
X1324600Y1720000D01*
X1299200Y1770800D01*
X1350000Y1745400D01*
X1400800Y1770800D01*
X1375400Y1720000D01*
X1400800Y1669200D01*
X1350000Y1694600D01*
X1299200Y1669200D01*
X1301748Y1871748D02*
X1327148Y1922548D01*
X1301748Y1973348D01*
X1352548Y1947948D01*
X1403348Y1973348D01*
X1377948Y1922548D01*
X1403348Y1871748D01*
X1352548Y1897148D01*
X1301748Y1871748D01*
X1536652Y1171748D02*
X1562052Y1222548D01*
X1536652Y1273348D01*
X1587452Y1247948D01*
X1638252Y1273348D01*
X1612852Y1222548D01*
X1638252Y1171748D01*
X1587452Y1197148D01*
X1536652Y1171748D01*
X2599200Y1909200D02*
X2624600Y1960000D01*
X2599200Y2010800D01*
X2650000Y1985400D01*
X2700800Y2010800D01*
X2675400Y1960000D01*
X2700800Y1909200D01*
X2650000Y1934600D01*
X2599200Y1909200D01*
X2806652Y421748D02*
X2832052Y472548D01*
X2806652Y523348D01*
X2857452Y497948D01*
X2908252Y523348D01*
X2882852Y472548D01*
X2908252Y421748D01*
X2857452Y447148D01*
X2806652Y421748D01*
X2709200Y509200D02*
X2734600Y560000D01*
X2709200Y610800D01*
X2760000Y585400D01*
X2810800Y610800D01*
X2785400Y560000D01*
X2810800Y509200D01*
X2760000Y534600D01*
X2709200Y509200D01*
X3409200Y439200D02*
X3434600Y490000D01*
X3409200Y540800D01*
X3460000Y515400D01*
X3510800Y540800D01*
X3485400Y490000D01*
X3510800Y439200D01*
X3460000Y464600D01*
X3409200Y439200D01*
X3829200Y129200D02*
X3854600Y180000D01*
X3829200Y230800D01*
X3880000Y205400D01*
X3930800Y230800D01*
X3905400Y180000D01*
X3930800Y129200D01*
X3880000Y154600D01*
X3829200Y129200D01*
X4229200D02*
X4254600Y180000D01*
X4229200Y230800D01*
X4280000Y205400D01*
X4330800Y230800D01*
X4305400Y180000D01*
X4330800Y129200D01*
X4280000Y154600D01*
X4229200Y129200D01*
X3741748Y226652D02*
X3767148Y277452D01*
X3741748Y328252D01*
X3792548Y302852D01*
X3843348Y328252D01*
X3817948Y277452D01*
X3843348Y226652D01*
X3792548Y252052D01*
X3741748Y226652D01*
X3479200Y229200D02*
X3504600Y280000D01*
X3479200Y330800D01*
X3530000Y305400D01*
X3580800Y330800D01*
X3555400Y280000D01*
X3580800Y229200D01*
X3530000Y254600D01*
X3479200Y229200D01*
X4319200D02*
X4344600Y280000D01*
X4319200Y330800D01*
X4370000Y305400D01*
X4420800Y330800D01*
X4395400Y280000D01*
X4420800Y229200D01*
X4370000Y254600D01*
X4319200Y229200D01*
X2706652Y2019200D02*
X2732052Y2070000D01*
X2706652Y2120800D01*
X2757452Y2095400D01*
X2808252Y2120800D01*
X2782852Y2070000D01*
X2808252Y2019200D01*
X2757452Y2044600D01*
X2706652Y2019200D01*
X3839200Y1079200D02*
X3864600Y1130000D01*
X3839200Y1180800D01*
X3890000Y1155400D01*
X3940800Y1180800D01*
X3915400Y1130000D01*
X3940800Y1079200D01*
X3890000Y1104600D01*
X3839200Y1079200D01*
X4130631Y1117790D02*
X4156031Y1168590D01*
X4130631Y1219390D01*
X4181431Y1193990D01*
X4232231Y1219390D01*
X4206831Y1168590D01*
X4232231Y1117790D01*
X4181431Y1143190D01*
X4130631Y1117790D01*
X4244200Y1116700D02*
X4269600Y1167500D01*
X4244200Y1218300D01*
X4295000Y1192900D01*
X4345800Y1218300D01*
X4320400Y1167500D01*
X4345800Y1116700D01*
X4295000Y1142100D01*
X4244200Y1116700D01*
X3839200Y1739200D02*
X3864600Y1790000D01*
X3839200Y1840800D01*
X3890000Y1815400D01*
X3940800Y1840800D01*
X3915400Y1790000D01*
X3940800Y1739200D01*
X3890000Y1764600D01*
X3839200Y1739200D01*
X4130631Y1220290D02*
X4156031Y1271090D01*
X4130631Y1321890D01*
X4181431Y1296490D01*
X4232231Y1321890D01*
X4206831Y1271090D01*
X4232231Y1220290D01*
X4181431Y1245690D01*
X4130631Y1220290D01*
X4239200Y1219200D02*
X4264600Y1270000D01*
X4239200Y1320800D01*
X4290000Y1295400D01*
X4340800Y1320800D01*
X4315400Y1270000D01*
X4340800Y1219200D01*
X4290000Y1244600D01*
X4239200Y1219200D01*
X3926652Y1641748D02*
X3952052Y1692548D01*
X3926652Y1743348D01*
X3977452Y1717948D01*
X4028252Y1743348D01*
X4002852Y1692548D01*
X4028252Y1641748D01*
X3977452Y1667148D01*
X3926652Y1641748D01*
X1879200Y1559200D02*
X1904600Y1610000D01*
X1879200Y1660800D01*
X1930000Y1635400D01*
X1980800Y1660800D01*
X1955400Y1610000D01*
X1980800Y1559200D01*
X1930000Y1584600D01*
X1879200Y1559200D01*
X2469200Y1389200D02*
X2494600Y1440000D01*
X2469200Y1490800D01*
X2520000Y1465400D01*
X2570800Y1490800D01*
X2545400Y1440000D01*
X2570800Y1389200D01*
X2520000Y1414600D01*
X2469200Y1389200D01*
X2049200Y749200D02*
X2074600Y800000D01*
X2049200Y850800D01*
X2100000Y825400D01*
X2150800Y850800D01*
X2125400Y800000D01*
X2150800Y749200D01*
X2100000Y774600D01*
X2049200Y749200D01*
X1609200Y769200D02*
X1634600Y820000D01*
X1609200Y870800D01*
X1660000Y845400D01*
X1710800Y870800D01*
X1685400Y820000D01*
X1710800Y769200D01*
X1660000Y794600D01*
X1609200Y769200D01*
X2339200Y949200D02*
X2364600Y1000000D01*
X2339200Y1050800D01*
X2390000Y1025400D01*
X2440800Y1050800D01*
X2415400Y1000000D01*
X2440800Y949200D01*
X2390000Y974600D01*
X2339200Y949200D01*
X609200Y1539200D02*
X634600Y1590000D01*
X609200Y1640800D01*
X660000Y1615400D01*
X710800Y1640800D01*
X685400Y1590000D01*
X710800Y1539200D01*
X660000Y1564600D01*
X609200Y1539200D01*
X519200Y2499200D02*
X544600Y2550000D01*
X519200Y2600800D01*
X570000Y2575400D01*
X620800Y2600800D01*
X595400Y2550000D01*
X620800Y2499200D01*
X570000Y2524600D01*
X519200Y2499200D01*
X2329200D02*
X2354600Y2550000D01*
X2329200Y2600800D01*
X2380000Y2575400D01*
X2430800Y2600800D01*
X2405400Y2550000D01*
X2430800Y2499200D01*
X2380000Y2524600D01*
X2329200Y2499200D01*
X2029200D02*
X2054600Y2550000D01*
X2029200Y2600800D01*
X2080000Y2575400D01*
X2130800Y2600800D01*
X2105400Y2550000D01*
X2130800Y2499200D01*
X2080000Y2524600D01*
X2029200Y2499200D01*
X799200D02*
X824600Y2550000D01*
X799200Y2600800D01*
X850000Y2575400D01*
X900800Y2600800D01*
X875400Y2550000D01*
X900800Y2499200D01*
X850000Y2524600D01*
X799200Y2499200D01*
X869200Y1539200D02*
X894600Y1590000D01*
X869200Y1640800D01*
X920000Y1615400D01*
X970800Y1640800D01*
X945400Y1590000D01*
X970800Y1539200D01*
X920000Y1564600D01*
X869200Y1539200D01*
X102298Y1233900D02*
X127698Y1284700D01*
X102298Y1335500D01*
X153098Y1310100D01*
X203898Y1335500D01*
X178498Y1284700D01*
X203898Y1233900D01*
X153098Y1259300D01*
X102298Y1233900D01*
X109200Y1449200D02*
X134600Y1500000D01*
X109200Y1550800D01*
X160000Y1525400D01*
X210800Y1550800D01*
X185400Y1500000D01*
X210800Y1449200D01*
X160000Y1474600D01*
X109200Y1449200D01*
X4309200Y809200D02*
X4334600Y860000D01*
X4309200Y910800D01*
X4360000Y885400D01*
X4410800Y910800D01*
X4385400Y860000D01*
X4410800Y809200D01*
X4360000Y834600D01*
X4309200Y809200D01*
X4109200Y686700D02*
X4134600Y737500D01*
X4109200Y788300D01*
X4160000Y762900D01*
X4210800Y788300D01*
X4185400Y737500D01*
X4210800Y686700D01*
X4160000Y712100D01*
X4109200Y686700D01*
X3669200Y1879200D02*
X3694600Y1930000D01*
X3669200Y1980800D01*
X3720000Y1955400D01*
X3770800Y1980800D01*
X3745400Y1930000D01*
X3770800Y1879200D01*
X3720000Y1904600D01*
X3669200Y1879200D01*
X3449200Y1929200D02*
X3474600Y1980000D01*
X3449200Y2030800D01*
X3500000Y2005400D01*
X3550800Y2030800D01*
X3525400Y1980000D01*
X3550800Y1929200D01*
X3500000Y1954600D01*
X3449200Y1929200D01*
X3579200Y1319200D02*
X3604600Y1370000D01*
X3579200Y1420800D01*
X3630000Y1395400D01*
X3680800Y1420800D01*
X3655400Y1370000D01*
X3680800Y1319200D01*
X3630000Y1344600D01*
X3579200Y1319200D01*
X3499200Y1139200D02*
X3524600Y1190000D01*
X3499200Y1240800D01*
X3550000Y1215400D01*
X3600800Y1240800D01*
X3575400Y1190000D01*
X3600800Y1139200D01*
X3550000Y1164600D01*
X3499200Y1139200D01*
X3449200Y839200D02*
X3474600Y890000D01*
X3449200Y940800D01*
X3500000Y915400D01*
X3550800Y940800D01*
X3525400Y890000D01*
X3550800Y839200D01*
X3500000Y864600D01*
X3449200Y839200D01*
X2619200Y2009200D02*
X2644600Y2060000D01*
X2619200Y2110800D01*
X2670000Y2085400D01*
X2720800Y2110800D01*
X2695400Y2060000D01*
X2720800Y2009200D01*
X2670000Y2034600D01*
X2619200Y2009200D01*
X2149200Y1949200D02*
X2174600Y2000000D01*
X2149200Y2050800D01*
X2200000Y2025400D01*
X2250800Y2050800D01*
X2225400Y2000000D01*
X2250800Y1949200D01*
X2200000Y1974600D01*
X2149200Y1949200D01*
X2049200Y1839200D02*
X2074600Y1890000D01*
X2049200Y1940800D01*
X2100000Y1915400D01*
X2150800Y1940800D01*
X2125400Y1890000D01*
X2150800Y1839200D01*
X2100000Y1864600D01*
X2049200Y1839200D01*
X2939200Y1409200D02*
X2964600Y1460000D01*
X2939200Y1510800D01*
X2990000Y1485400D01*
X3040800Y1510800D01*
X3015400Y1460000D01*
X3040800Y1409200D01*
X2990000Y1434600D01*
X2939200Y1409200D01*
X2823900Y1526102D02*
X2849300Y1576902D01*
X2823900Y1627702D01*
X2874700Y1602302D01*
X2925500Y1627702D01*
X2900100Y1576902D01*
X2925500Y1526102D01*
X2874700Y1551502D01*
X2823900Y1526102D01*
X2699200Y1349200D02*
X2724600Y1400000D01*
X2699200Y1450800D01*
X2750000Y1425400D01*
X2800800Y1450800D01*
X2775400Y1400000D01*
X2800800Y1349200D01*
X2750000Y1374600D01*
X2699200Y1349200D01*
X2819200Y1289200D02*
X2844600Y1340000D01*
X2819200Y1390800D01*
X2870000Y1365400D01*
X2920800Y1390800D01*
X2895400Y1340000D01*
X2920800Y1289200D01*
X2870000Y1314600D01*
X2819200Y1289200D01*
Y1069200D02*
X2844600Y1120000D01*
X2819200Y1170800D01*
X2870000Y1145400D01*
X2920800Y1170800D01*
X2895400Y1120000D01*
X2920800Y1069200D01*
X2870000Y1094600D01*
X2819200Y1069200D01*
X3039200Y1309200D02*
X3064600Y1360000D01*
X3039200Y1410800D01*
X3090000Y1385400D01*
X3140800Y1410800D01*
X3115400Y1360000D01*
X3140800Y1309200D01*
X3090000Y1334600D01*
X3039200Y1309200D01*
X3109200Y1439200D02*
X3134600Y1490000D01*
X3109200Y1540800D01*
X3160000Y1515400D01*
X3210800Y1540800D01*
X3185400Y1490000D01*
X3210800Y1439200D01*
X3160000Y1464600D01*
X3109200Y1439200D01*
X3269200Y1529200D02*
X3294600Y1580000D01*
X3269200Y1630800D01*
X3320000Y1605400D01*
X3370800Y1630800D01*
X3345400Y1580000D01*
X3370800Y1529200D01*
X3320000Y1554600D01*
X3269200Y1529200D01*
X3479200Y1449200D02*
X3504600Y1500000D01*
X3479200Y1550800D01*
X3530000Y1525400D01*
X3580800Y1550800D01*
X3555400Y1500000D01*
X3580800Y1449200D01*
X3530000Y1474600D01*
X3479200Y1449200D01*
X3279200Y1249200D02*
X3304600Y1300000D01*
X3279200Y1350800D01*
X3330000Y1325400D01*
X3380800Y1350800D01*
X3355400Y1300000D01*
X3380800Y1249200D01*
X3330000Y1274600D01*
X3279200Y1249200D01*
X3049200Y1019200D02*
X3074600Y1070000D01*
X3049200Y1120800D01*
X3100000Y1095400D01*
X3150800Y1120800D01*
X3125400Y1070000D01*
X3150800Y1019200D01*
X3100000Y1044600D01*
X3049200Y1019200D01*
X3069200Y809200D02*
X3094600Y860000D01*
X3069200Y910800D01*
X3120000Y885400D01*
X3170800Y910800D01*
X3145400Y860000D01*
X3170800Y809200D01*
X3120000Y834600D01*
X3069200Y809200D01*
X2829200Y819200D02*
X2854600Y870000D01*
X2829200Y920800D01*
X2880000Y895400D01*
X2930800Y920800D01*
X2905400Y870000D01*
X2930800Y819200D01*
X2880000Y844600D01*
X2829200Y819200D01*
X3129200Y239200D02*
X3154600Y290000D01*
X3129200Y340800D01*
X3180000Y315400D01*
X3230800Y340800D01*
X3205400Y290000D01*
X3230800Y239200D01*
X3180000Y264600D01*
X3129200Y239200D01*
X2959200D02*
X2984600Y290000D01*
X2959200Y340800D01*
X3010000Y315400D01*
X3060800Y340800D01*
X3035400Y290000D01*
X3060800Y239200D01*
X3010000Y264600D01*
X2959200Y239200D01*
X2789200D02*
X2814600Y290000D01*
X2789200Y340800D01*
X2840000Y315400D01*
X2890800Y340800D01*
X2865400Y290000D01*
X2890800Y239200D01*
X2840000Y264600D01*
X2789200Y239200D01*
X2509200Y339200D02*
X2534600Y390000D01*
X2509200Y440800D01*
X2560000Y415400D01*
X2610800Y440800D01*
X2585400Y390000D01*
X2610800Y339200D01*
X2560000Y364600D01*
X2509200Y339200D01*
X2139200Y369200D02*
X2164600Y420000D01*
X2139200Y470800D01*
X2190000Y445400D01*
X2240800Y470800D01*
X2215400Y420000D01*
X2240800Y369200D01*
X2190000Y394600D01*
X2139200Y369200D01*
X2019200Y259200D02*
X2044600Y310000D01*
X2019200Y360800D01*
X2070000Y335400D01*
X2120800Y360800D01*
X2095400Y310000D01*
X2120800Y259200D01*
X2070000Y284600D01*
X2019200Y259200D01*
X2309200Y389200D02*
X2334600Y440000D01*
X2309200Y490800D01*
X2360000Y465400D01*
X2410800Y490800D01*
X2385400Y440000D01*
X2410800Y389200D01*
X2360000Y414600D01*
X2309200Y389200D01*
X1789200Y1259200D02*
X1814600Y1310000D01*
X1789200Y1360800D01*
X1840000Y1335400D01*
X1890800Y1360800D01*
X1865400Y1310000D01*
X1890800Y1259200D01*
X1840000Y1284600D01*
X1789200Y1259200D01*
X1629200Y149200D02*
X1654600Y200000D01*
X1629200Y250800D01*
X1680000Y225400D01*
X1730800Y250800D01*
X1705400Y200000D01*
X1730800Y149200D01*
X1680000Y174600D01*
X1629200Y149200D01*
X2629200Y39200D02*
X2654600Y90000D01*
X2629200Y140800D01*
X2680000Y115400D01*
X2730800Y140800D01*
X2705400Y90000D01*
X2730800Y39200D01*
X2680000Y64600D01*
X2629200Y39200D01*
X2329200D02*
X2354600Y90000D01*
X2329200Y140800D01*
X2380000Y115400D01*
X2430800Y140800D01*
X2405400Y90000D01*
X2430800Y39200D01*
X2380000Y64600D01*
X2329200Y39200D01*
X3269200Y439200D02*
X3294600Y490000D01*
X3269200Y540800D01*
X3320000Y515400D01*
X3370800Y540800D01*
X3345400Y490000D01*
X3370800Y439200D01*
X3320000Y464600D01*
X3269200Y439200D01*
X2949200Y419200D02*
X2974600Y470000D01*
X2949200Y520800D01*
X3000000Y495400D01*
X3050800Y520800D01*
X3025400Y470000D01*
X3050800Y419200D01*
X3000000Y444600D01*
X2949200Y419200D01*
X3049200Y509200D02*
X3074600Y560000D01*
X3049200Y610800D01*
X3100000Y585400D01*
X3150800Y610800D01*
X3125400Y560000D01*
X3150800Y509200D01*
X3100000Y534600D01*
X3049200Y509200D01*
X3739200Y369200D02*
X3764600Y420000D01*
X3739200Y470800D01*
X3790000Y445400D01*
X3840800Y470800D01*
X3815400Y420000D01*
X3840800Y369200D01*
X3790000Y394600D01*
X3739200Y369200D01*
X3819200Y469200D02*
X3844600Y520000D01*
X3819200Y570800D01*
X3870000Y545400D01*
X3920800Y570800D01*
X3895400Y520000D01*
X3920800Y469200D01*
X3870000Y494600D01*
X3819200Y469200D01*
X4319200Y369200D02*
X4344600Y420000D01*
X4319200Y470800D01*
X4370000Y445400D01*
X4420800Y470800D01*
X4395400Y420000D01*
X4420800Y369200D01*
X4370000Y394600D01*
X4319200Y369200D01*
X4229200Y469200D02*
X4254600Y520000D01*
X4229200Y570800D01*
X4280000Y545400D01*
X4330800Y570800D01*
X4305400Y520000D01*
X4330800Y469200D01*
X4280000Y494600D01*
X4229200Y469200D01*
X3929200Y839200D02*
X3954600Y890000D01*
X3929200Y940800D01*
X3980000Y915400D01*
X4030800Y940800D01*
X4005400Y890000D01*
X4030800Y839200D01*
X3980000Y864600D01*
X3929200Y839200D01*
X4669200Y919200D02*
X4694600Y970000D01*
X4669200Y1020800D01*
X4720000Y995400D01*
X4770800Y1020800D01*
X4745400Y970000D01*
X4770800Y919200D01*
X4720000Y944600D01*
X4669200Y919200D01*
X4745269Y1103360D02*
X4770669Y1154160D01*
X4745269Y1204960D01*
X4796069Y1179560D01*
X4846869Y1204960D01*
X4821469Y1154160D01*
X4846869Y1103360D01*
X4796069Y1128760D01*
X4745269Y1103360D01*
X4759200Y1259200D02*
X4784600Y1310000D01*
X4759200Y1360800D01*
X4810000Y1335400D01*
X4860800Y1360800D01*
X4835400Y1310000D01*
X4860800Y1259200D01*
X4810000Y1284600D01*
X4759200Y1259200D01*
X2769200Y2639200D02*
X2794600Y2690000D01*
X2769200Y2740800D01*
X2820000Y2715400D01*
X2870800Y2740800D01*
X2845400Y2690000D01*
X2870800Y2639200D01*
X2820000Y2664600D01*
X2769200Y2639200D01*
Y2399200D02*
X2794600Y2450000D01*
X2769200Y2500800D01*
X2820000Y2475400D01*
X2870800Y2500800D01*
X2845400Y2450000D01*
X2870800Y2399200D01*
X2820000Y2424600D01*
X2769200Y2399200D01*
X3439200Y2229200D02*
X3464600Y2280000D01*
X3439200Y2330800D01*
X3490000Y2305400D01*
X3540800Y2330800D01*
X3515400Y2280000D01*
X3540800Y2229200D01*
X3490000Y2254600D01*
X3439200Y2229200D01*
X2829200Y1999200D02*
X2854600Y2050000D01*
X2829200Y2100800D01*
X2880000Y2075400D01*
X2930800Y2100800D01*
X2905400Y2050000D01*
X2930800Y1999200D01*
X2880000Y2024600D01*
X2829200Y1999200D01*
X3839200Y1399200D02*
X3864600Y1450000D01*
X3839200Y1500800D01*
X3890000Y1475400D01*
X3940800Y1500800D01*
X3915400Y1450000D01*
X3940800Y1399200D01*
X3890000Y1424600D01*
X3839200Y1399200D01*
X3929200Y1499200D02*
X3954600Y1550000D01*
X3929200Y1600800D01*
X3980000Y1575400D01*
X4030800Y1600800D01*
X4005400Y1550000D01*
X4030800Y1499200D01*
X3980000Y1524600D01*
X3929200Y1499200D01*
X4029200Y2209200D02*
X4054600Y2260000D01*
X4029200Y2310800D01*
X4080000Y2285400D01*
X4130800Y2310800D01*
X4105400Y2260000D01*
X4130800Y2209200D01*
X4080000Y2234600D01*
X4029200Y2209200D01*
X3729200D02*
X3754600Y2260000D01*
X3729200Y2310800D01*
X3780000Y2285400D01*
X3830800Y2310800D01*
X3805400Y2260000D01*
X3830800Y2209200D01*
X3780000Y2234600D01*
X3729200Y2209200D01*
X3879200D02*
X3904600Y2260000D01*
X3879200Y2310800D01*
X3930000Y2285400D01*
X3980800Y2310800D01*
X3955400Y2260000D01*
X3980800Y2209200D01*
X3930000Y2234600D01*
X3879200Y2209200D01*
X4179200D02*
X4204600Y2260000D01*
X4179200Y2310800D01*
X4230000Y2285400D01*
X4280800Y2310800D01*
X4255400Y2260000D01*
X4280800Y2209200D01*
X4230000Y2234600D01*
X4179200Y2209200D01*
X4684200Y1944200D02*
X4709600Y1995000D01*
X4684200Y2045800D01*
X4735000Y2020400D01*
X4785800Y2045800D01*
X4760400Y1995000D01*
X4785800Y1944200D01*
X4735000Y1969600D01*
X4684200Y1944200D01*
X4769200Y2029200D02*
X4794600Y2080000D01*
X4769200Y2130800D01*
X4820000Y2105400D01*
X4870800Y2130800D01*
X4845400Y2080000D01*
X4870800Y2029200D01*
X4820000Y2054600D01*
X4769200Y2029200D01*
X4324200Y1579200D02*
X4349600Y1630000D01*
X4324200Y1680800D01*
X4375000Y1655400D01*
X4425800Y1680800D01*
X4400400Y1630000D01*
X4425800Y1579200D01*
X4375000Y1604600D01*
X4324200Y1579200D01*
X4049200Y1579200D02*
X4074600Y1630000D01*
X4049200Y1680800D01*
X4100000Y1655400D01*
X4150800Y1680800D01*
X4125400Y1630000D01*
X4150800Y1579200D01*
X4100000Y1604600D01*
X4049200Y1579200D01*
X4759200Y1454200D02*
X4784600Y1505000D01*
X4759200Y1555800D01*
X4810000Y1530400D01*
X4860800Y1555800D01*
X4835400Y1505000D01*
X4860800Y1454200D01*
X4810000Y1479600D01*
X4759200Y1454200D01*
X4599200Y1579200D02*
X4624600Y1630000D01*
X4599200Y1680800D01*
X4650000Y1655400D01*
X4700800Y1680800D01*
X4675400Y1630000D01*
X4700800Y1579200D01*
X4650000Y1604600D01*
X4599200Y1579200D01*
X4189200Y1454200D02*
X4214600Y1505000D01*
X4189200Y1555800D01*
X4240000Y1530400D01*
X4290800Y1555800D01*
X4265400Y1505000D01*
X4290800Y1454200D01*
X4240000Y1479600D01*
X4189200Y1454200D01*
X4429200Y1829200D02*
X4454600Y1880000D01*
X4429200Y1930800D01*
X4480000Y1905400D01*
X4530800Y1930800D01*
X4505400Y1880000D01*
X4530800Y1829200D01*
X4480000Y1854600D01*
X4429200Y1829200D01*
X4519200D02*
X4544600Y1880000D01*
X4519200Y1930800D01*
X4570000Y1905400D01*
X4620800Y1930800D01*
X4595400Y1880000D01*
X4620800Y1829200D01*
X4570000Y1854600D01*
X4519200Y1829200D01*
Y1749200D02*
X4544600Y1800000D01*
X4519200Y1850800D01*
X4570000Y1825400D01*
X4620800Y1850800D01*
X4595400Y1800000D01*
X4620800Y1749200D01*
X4570000Y1774600D01*
X4519200Y1749200D01*
X4429200D02*
X4454600Y1800000D01*
X4429200Y1850800D01*
X4480000Y1825400D01*
X4530800Y1850800D01*
X4505400Y1800000D01*
X4530800Y1749200D01*
X4480000Y1774600D01*
X4429200Y1749200D01*
X250000Y199200D02*
X275400Y224600D01*
X300800D01*
X275400Y250000D01*
X300800Y275400D01*
X275400D01*
X250000Y300800D01*
X224600Y275400D01*
X199200D01*
X224600Y250000D01*
X199200Y224600D01*
X224600D01*
X250000Y199200D01*
X1469200Y2354200D02*
X1494600Y2405000D01*
X1469200Y2455800D01*
X1520000Y2430400D01*
X1570800Y2455800D01*
X1545400Y2405000D01*
X1570800Y2354200D01*
X1520000Y2379600D01*
X1469200Y2354200D01*
X1318617Y2228856D02*
X1344017Y2279656D01*
X1318617Y2330456D01*
X1369417Y2305056D01*
X1420217Y2330456D01*
X1394817Y2279656D01*
X1420217Y2228856D01*
X1369417Y2254256D01*
X1318617Y2228856D01*
X1369200Y1729200D02*
X1394600Y1780000D01*
X1369200Y1830800D01*
X1420000Y1805400D01*
X1470800Y1830800D01*
X1445400Y1780000D01*
X1470800Y1729200D01*
X1420000Y1754600D01*
X1369200Y1729200D01*
X1579200D02*
X1604600Y1780000D01*
X1579200Y1830800D01*
X1630000Y1805400D01*
X1680800Y1830800D01*
X1655400Y1780000D01*
X1680800Y1729200D01*
X1630000Y1754600D01*
X1579200Y1729200D01*
X1959200Y1279200D02*
X1984600Y1330000D01*
X1959200Y1380800D01*
X2010000Y1355400D01*
X2060800Y1380800D01*
X2035400Y1330000D01*
X2060800Y1279200D01*
X2010000Y1304600D01*
X1959200Y1279200D01*
X2379200Y1109200D02*
X2404600Y1160000D01*
X2379200Y1210800D01*
X2430000Y1185400D01*
X2480800Y1210800D01*
X2455400Y1160000D01*
X2480800Y1109200D01*
X2430000Y1134600D01*
X2379200Y1109200D01*
X1959200Y999200D02*
X1984600Y1050000D01*
X1959200Y1100800D01*
X2010000Y1075400D01*
X2060800Y1100800D01*
X2035400Y1050000D01*
X2060800Y999200D01*
X2010000Y1024600D01*
X1959200Y999200D01*
X2389200Y1729200D02*
X2414600Y1780000D01*
X2389200Y1830800D01*
X2440000Y1805400D01*
X2490800Y1830800D01*
X2465400Y1780000D01*
X2490800Y1729200D01*
X2440000Y1754600D01*
X2389200Y1729200D01*
X2089200Y1599200D02*
X2114600Y1650000D01*
X2089200Y1700800D01*
X2140000Y1675400D01*
X2190800Y1700800D01*
X2165400Y1650000D01*
X2190800Y1599200D01*
X2140000Y1624600D01*
X2089200Y1599200D01*
X726102Y1233900D02*
X751502Y1284700D01*
X726102Y1335500D01*
X776902Y1310100D01*
X827702Y1335500D01*
X802302Y1284700D01*
X827702Y1233900D01*
X776902Y1259300D01*
X726102Y1233900D01*
X779200Y929200D02*
X804600Y980000D01*
X779200Y1030800D01*
X830000Y1005400D01*
X880800Y1030800D01*
X855400Y980000D01*
X880800Y929200D01*
X830000Y954600D01*
X779200Y929200D01*
X599200D02*
X624600Y980000D01*
X599200Y1030800D01*
X650000Y1005400D01*
X700800Y1030800D01*
X675400Y980000D01*
X700800Y929200D01*
X650000Y954600D01*
X599200Y929200D01*
X454500Y976102D02*
X479900Y1026902D01*
X454500Y1077702D01*
X505300Y1052302D01*
X556100Y1077702D01*
X530700Y1026902D01*
X556100Y976102D01*
X505300Y1001502D01*
X454500Y976102D01*
X589200Y1099200D02*
X614600Y1150000D01*
X589200Y1200800D01*
X640000Y1175400D01*
X690800Y1200800D01*
X665400Y1150000D01*
X690800Y1099200D01*
X640000Y1124600D01*
X589200Y1099200D01*
Y779200D02*
X614600Y830000D01*
X589200Y880800D01*
X640000Y855400D01*
X690800Y880800D01*
X665400Y830000D01*
X690800Y779200D01*
X640000Y804600D01*
X589200Y779200D01*
X1839200Y1699200D02*
X1864600Y1750000D01*
X1839200Y1800800D01*
X1890000Y1775400D01*
X1940800Y1800800D01*
X1915400Y1750000D01*
X1940800Y1699200D01*
X1890000Y1724600D01*
X1839200Y1699200D01*
X2029200Y2069200D02*
X2054600Y2120000D01*
X2029200Y2170800D01*
X2080000Y2145400D01*
X2130800Y2170800D01*
X2105400Y2120000D01*
X2130800Y2069200D01*
X2080000Y2094600D01*
X2029200Y2069200D01*
X1692298Y2034500D02*
X1717698Y2085300D01*
X1692298Y2136100D01*
X1743098Y2110700D01*
X1793898Y2136100D01*
X1768498Y2085300D01*
X1793898Y2034500D01*
X1743098Y2059900D01*
X1692298Y2034500D01*
X1329200Y2069200D02*
X1354600Y2120000D01*
X1329200Y2170800D01*
X1380000Y2145400D01*
X1430800Y2170800D01*
X1405400Y2120000D01*
X1430800Y2069200D01*
X1380000Y2094600D01*
X1329200Y2069200D01*
X1089200Y2059200D02*
X1114600Y2110000D01*
X1089200Y2160800D01*
X1140000Y2135400D01*
X1190800Y2160800D01*
X1165400Y2110000D01*
X1190800Y2059200D01*
X1140000Y2084600D01*
X1089200Y2059200D01*
X839200Y1829200D02*
X864600Y1880000D01*
X839200Y1930800D01*
X890000Y1905400D01*
X940800Y1930800D01*
X915400Y1880000D01*
X940800Y1829200D01*
X890000Y1854600D01*
X839200Y1829200D01*
X419200Y1239200D02*
X444600Y1290000D01*
X419200Y1340800D01*
X470000Y1315400D01*
X520800Y1340800D01*
X495400Y1290000D01*
X520800Y1239200D01*
X470000Y1264600D01*
X419200Y1239200D01*
X639200Y419200D02*
X664600Y470000D01*
X639200Y520800D01*
X690000Y495400D01*
X740800Y520800D01*
X715400Y470000D01*
X740800Y419200D01*
X690000Y444600D01*
X639200Y419200D01*
X339200Y869200D02*
X364600Y920000D01*
X339200Y970800D01*
X390000Y945400D01*
X440800Y970800D01*
X415400Y920000D01*
X440800Y869200D01*
X390000Y894600D01*
X339200Y869200D01*
X349200Y569200D02*
X374600Y620000D01*
X349200Y670800D01*
X400000Y645400D01*
X450800Y670800D01*
X425400Y620000D01*
X450800Y569200D01*
X400000Y594600D01*
X349200Y569200D01*
X1879200Y769200D02*
X1904600Y820000D01*
X1879200Y870800D01*
X1930000Y845400D01*
X1980800Y870800D01*
X1955400Y820000D01*
X1980800Y769200D01*
X1930000Y794600D01*
X1879200Y769200D01*
X1319200Y759200D02*
X1344600Y810000D01*
X1319200Y860800D01*
X1370000Y835400D01*
X1420800Y860800D01*
X1395400Y810000D01*
X1420800Y759200D01*
X1370000Y784600D01*
X1319200Y759200D01*
X969200D02*
X994600Y810000D01*
X969200Y860800D01*
X1020000Y835400D01*
X1070800Y860800D01*
X1045400Y810000D01*
X1070800Y759200D01*
X1020000Y784600D01*
X969200Y759200D01*
X1019200Y219200D02*
X1044600Y270000D01*
X1019200Y320800D01*
X1070000Y295400D01*
X1120800Y320800D01*
X1095400Y270000D01*
X1120800Y219200D01*
X1070000Y244600D01*
X1019200Y219200D01*
X1989200Y569200D02*
X2014600Y620000D01*
X1989200Y670800D01*
X2040000Y645400D01*
X2090800Y670800D01*
X2065400Y620000D01*
X2090800Y569200D01*
X2040000Y594600D01*
X1989200Y569200D01*
X1569200Y419200D02*
X1594600Y470000D01*
X1569200Y520800D01*
X1620000Y495400D01*
X1670800Y520800D01*
X1645400Y470000D01*
X1670800Y419200D01*
X1620000Y444600D01*
X1569200Y419200D01*
X529200Y2869200D02*
X554600Y2920000D01*
X529200Y2970800D01*
X580000Y2945400D01*
X630800Y2970800D01*
X605400Y2920000D01*
X630800Y2869200D01*
X580000Y2894600D01*
X529200Y2869200D01*
X1239200Y2889200D02*
X1264600Y2940000D01*
X1239200Y2990800D01*
X1290000Y2965400D01*
X1340800Y2990800D01*
X1315400Y2940000D01*
X1340800Y2889200D01*
X1290000Y2914600D01*
X1239200Y2889200D01*
X409200Y1699200D02*
X434600Y1750000D01*
X409200Y1800800D01*
X460000Y1775400D01*
X510800Y1800800D01*
X485400Y1750000D01*
X510800Y1699200D01*
X460000Y1724600D01*
X409200Y1699200D01*
X649200Y1909200D02*
X674600Y1960000D01*
X649200Y2010800D01*
X700000Y1985400D01*
X750800Y2010800D01*
X725400Y1960000D01*
X750800Y1909200D01*
X700000Y1934600D01*
X649200Y1909200D01*
X909200Y2119200D02*
X934600Y2170000D01*
X909200Y2220800D01*
X960000Y2195400D01*
X1010800Y2220800D01*
X985400Y2170000D01*
X1010800Y2119200D01*
X960000Y2144600D01*
X909200Y2119200D01*
X1849200Y2239200D02*
X1874600Y2290000D01*
X1849200Y2340800D01*
X1900000Y2315400D01*
X1950800Y2340800D01*
X1925400Y2290000D01*
X1950800Y2239200D01*
X1900000Y2264600D01*
X1849200Y2239200D01*
X2349200Y2249200D02*
X2374600Y2300000D01*
X2349200Y2350800D01*
X2400000Y2325400D01*
X2450800Y2350800D01*
X2425400Y2300000D01*
X2450800Y2249200D01*
X2400000Y2274600D01*
X2349200Y2249200D01*
X2709200Y2219200D02*
X2734600Y2270000D01*
X2709200Y2320800D01*
X2760000Y2295400D01*
X2810800Y2320800D01*
X2785400Y2270000D01*
X2810800Y2219200D01*
X2760000Y2244600D01*
X2709200Y2219200D01*
X2721900Y1162696D02*
X2747300Y1213496D01*
X2721900Y1264296D01*
X2772700Y1238896D01*
X2823500Y1264296D01*
X2798100Y1213496D01*
X2823500Y1162696D01*
X2772700Y1188096D01*
X2721900Y1162696D01*
X2469200Y1159200D02*
X2494600Y1210000D01*
X2469200Y1260800D01*
X2520000Y1235400D01*
X2570800Y1260800D01*
X2545400Y1210000D01*
X2570800Y1159200D01*
X2520000Y1184600D01*
X2469200Y1159200D01*
X2699200Y1239200D02*
X2724600Y1290000D01*
X2699200Y1340800D01*
X2750000Y1315400D01*
X2800800Y1340800D01*
X2775400Y1290000D01*
X2800800Y1239200D01*
X2750000Y1264600D01*
X2699200Y1239200D01*
X2479200Y1619200D02*
X2504600Y1670000D01*
X2479200Y1720800D01*
X2530000Y1695400D01*
X2580800Y1720800D01*
X2555400Y1670000D01*
X2580800Y1619200D01*
X2530000Y1644600D01*
X2479200Y1619200D01*
X1959200D02*
X1984600Y1670000D01*
X1959200Y1720800D01*
X2010000Y1695400D01*
X2060800Y1720800D01*
X2035400Y1670000D01*
X2060800Y1619200D01*
X2010000Y1644600D01*
X1959200Y1619200D01*
X4039200Y1729200D02*
X4064600Y1780000D01*
X4039200Y1830800D01*
X4090000Y1805400D01*
X4140800Y1830800D01*
X4115400Y1780000D01*
X4140800Y1729200D01*
X4090000Y1754600D01*
X4039200Y1729200D01*
Y1799200D02*
X4064600Y1850000D01*
X4039200Y1900800D01*
X4090000Y1875400D01*
X4140800Y1900800D01*
X4115400Y1850000D01*
X4140800Y1799200D01*
X4090000Y1824600D01*
X4039200Y1799200D01*
X4759200Y1884200D02*
X4784600Y1935000D01*
X4759200Y1985800D01*
X4810000Y1960400D01*
X4860800Y1985800D01*
X4835400Y1935000D01*
X4860800Y1884200D01*
X4810000Y1909600D01*
X4759200Y1884200D01*
X4399200Y1579200D02*
X4424600Y1630000D01*
X4399200Y1680800D01*
X4450000Y1655400D01*
X4500800Y1680800D01*
X4475400Y1630000D01*
X4500800Y1579200D01*
X4450000Y1604600D01*
X4399200Y1579200D01*
X4564200Y2474200D02*
X4589600Y2525000D01*
X4564200Y2575800D01*
X4615000Y2550400D01*
X4665800Y2575800D01*
X4640400Y2525000D01*
X4665800Y2474200D01*
X4615000Y2499600D01*
X4564200Y2474200D01*
X4599200Y1929200D02*
X4624600Y1980000D01*
X4599200Y2030800D01*
X4650000Y2005400D01*
X4700800Y2030800D01*
X4675400Y1980000D01*
X4700800Y1929200D01*
X4650000Y1954600D01*
X4599200Y1929200D01*
X4559200Y2169200D02*
X4584600Y2220000D01*
X4559200Y2270800D01*
X4610000Y2245400D01*
X4660800Y2270800D01*
X4635400Y2220000D01*
X4660800Y2169200D01*
X4610000Y2194600D01*
X4559200Y2169200D01*
X4614200Y1668250D02*
X4639600Y1719050D01*
X4614200Y1769850D01*
X4665000Y1744450D01*
X4715800Y1769850D01*
X4690400Y1719050D01*
X4715800Y1668250D01*
X4665000Y1693650D01*
X4614200Y1668250D01*
X4479200Y2099200D02*
X4504600Y2150000D01*
X4479200Y2200800D01*
X4530000Y2175400D01*
X4580800Y2200800D01*
X4555400Y2150000D01*
X4580800Y2099200D01*
X4530000Y2124600D01*
X4479200Y2099200D01*
X4709200Y2169200D02*
X4734600Y2220000D01*
X4709200Y2270800D01*
X4760000Y2245400D01*
X4810800Y2270800D01*
X4785400Y2220000D01*
X4810800Y2169200D01*
X4760000Y2194600D01*
X4709200Y2169200D01*
X4499200Y1579200D02*
X4524600Y1630000D01*
X4499200Y1680800D01*
X4550000Y1655400D01*
X4600800Y1680800D01*
X4575400Y1630000D01*
X4600800Y1579200D01*
X4550000Y1604600D01*
X4499200Y1579200D01*
X4750000Y199200D02*
X4775400Y224600D01*
X4800800D01*
X4775400Y250000D01*
X4800800Y275400D01*
X4775400D01*
X4750000Y300800D01*
X4724600Y275400D01*
X4699200D01*
X4724600Y250000D01*
X4699200Y224600D01*
X4724600D01*
X4750000Y199200D01*
Y2699200D02*
X4775400Y2724600D01*
X4800800D01*
X4775400Y2750000D01*
X4800800Y2775400D01*
X4775400D01*
X4750000Y2800800D01*
X4724600Y2775400D01*
X4699200D01*
X4724600Y2750000D01*
X4699200Y2724600D01*
X4724600D01*
X4750000Y2699200D01*
X250000D02*
X275400Y2724600D01*
X300800D01*
X275400Y2750000D01*
X300800Y2775400D01*
X275400D01*
X250000Y2800800D01*
X224600Y2775400D01*
X199200D01*
X224600Y2750000D01*
X199200Y2724600D01*
X224600D01*
X250000Y2699200D01*
%TF.MD5,5872d6439a78468cc64e32718593b596*%
M02*
