M48
;Layer_Color=9474304
;FILE_FORMAT=4:4
METRIC,LZ
;TYPE=PLATED
T01F00S00C0.3000
T02F00S00C1.0000
T03F00S00C3.0000
%
T01
X00016Y00076
Y001
X0001531Y0012847
X00047Y00129
X0005053Y0010269
X00065Y00098
X00064Y00083
Y00115
X0007769Y0012847
X00089865Y00117061
X00083Y00098
X00102Y00081
X00137
X00107Y00027
X00069Y00047
X0004Y00062
X00039Y00092
X00166Y00082
X00193
X0021Y0008
X00204Y00062
X00207Y00031
X00202Y0002
X0022349Y0000951
X00238Y00009
X00253745Y00009255
X00268Y00009
X00284Y00029
X00301
X00318
X00332Y00049
X00346Y00049
X00353Y00028
X00379255Y00027745
X00379Y00042
X00387Y00052
X00388Y00018
X00428
X00437Y00028
Y00042
X00428Y00052
X00416Y0007375
X00436Y00086
X004295Y0011675
X00429Y00127
X00418143Y00127109
Y00116859
X00389Y00113
X00398Y00089
X0035
X00355Y00119
X00363Y00137
X00333Y0013
X00309Y00136
X00287Y00134
X00275Y00129
X0027727Y0012135
X00287Y00112
X00288Y00087
X00312Y00086
X0031Y00107
Y00056
X003Y00047
X00285745Y00047255
X00276Y00056
X00256Y00039
X00236Y00044
X00219Y00042
X00162Y00047
X00168Y0002
X00158745Y00122255
X00149Y00131
X00184
X00201Y00133
Y00105
X00239Y001
X0024Y00086745
X00243Y00116
X00252Y00121
X00275Y0014
X00449Y00139
X00481Y00131
X00479607Y00115416
X00472Y00097
X00481Y001505
X00465Y00163
X00455
X00445Y00163
X004375Y00163
X00424Y001505
X0041Y00163
X00409Y00178
Y00185
X00389Y00179
X00397745Y00169255
X00398Y00155
X00389Y00145
X00353Y0015
X00332Y00158
X00316Y00149
X00299Y00146
X0028747Y0015769
X00253Y00167
X00244Y00178
X00265Y00196
X00267Y00206
X00275745Y00207
X00288Y00205
X00276Y00227
X00282Y00245
Y00269
X00238Y00255
X0024Y0023
X002525Y0021
X0022Y002
X0021Y00189
X00208Y00212
X0019Y00229
X0017431Y0020853
X00163Y00178
X00189Y00175
X00193Y00161
X00201Y00167
X00214Y00165
X00252Y00144
X0035Y00198
X00372Y00193
X00378Y00226
X00393
X00408
X00423
X00453Y00215
X00461Y00222
X00476
X00482Y00208
X00481Y001935
X004735Y001995
X00465Y00198
X00457Y00188
Y0018
X00448
Y00188
X004665Y00171905
X004615Y002525
X00349Y00228
X00208Y00255
X00152Y002405
X00136942Y00227966
X00138Y00212
X00135255Y00192255
X00135Y00172
X00142Y00178
X00114Y00211
X00096Y00217
X00089Y00188
X0007Y00196
X00066Y00159
X00092
X00046Y00175
X00016Y0015
X00057Y00255
X00085
X00095Y00293
X00129Y00294
X00058Y00292
T02
X003875Y0026525
X004125
T03
X00025Y00025
X00475Y00025
Y00275
X00025
M30
